<svg width="199" height="33" viewBox="0 0 199 33" fill="none" xmlns="http://www.w3.org/2000/svg">
<path d="M8.98242 8.92676V10H1.44922V8.92676H8.98242ZM1.66113 8.92676V12.4473H0.355469L0.348633 8.92676H1.66113ZM10.1309 8.92676L10.1172 12.4404H8.81152V8.92676H10.1309ZM7.69043 0.046875V1.12695H3.3291V0.046875H7.69043ZM8.8252 0.046875V10H7.5127V0.046875H8.8252ZM2.87793 0.046875H4.19727L3.99219 4.05273C3.96484 4.6543 3.90788 5.21029 3.82129 5.7207C3.7347 6.22656 3.6276 6.68913 3.5 7.1084C3.3724 7.52767 3.22656 7.90365 3.0625 8.23633C2.89844 8.56445 2.72298 8.84928 2.53613 9.09082C2.34928 9.3278 2.15332 9.52376 1.94824 9.67871C1.74772 9.8291 1.54492 9.9362 1.33984 10H0.738281V8.92676H1.16211C1.2806 8.79915 1.41504 8.61458 1.56543 8.37305C1.72038 8.13151 1.87305 7.81934 2.02344 7.43652C2.17839 7.04915 2.31283 6.57747 2.42676 6.02148C2.54525 5.46549 2.625 4.80924 2.66602 4.05273L2.87793 0.046875ZM12.8584 7.99707L16.2695 2.60352H17.541V10H16.2695V4.60645L12.8584 10H11.6006V2.60352H12.8584V7.99707ZM20.8359 4.02539V12.8438H19.5645V2.60352H20.7266L20.8359 4.02539ZM25.8193 6.24023V6.38379C25.8193 6.92155 25.7555 7.42057 25.6279 7.88086C25.5003 8.33659 25.3135 8.73307 25.0674 9.07031C24.8258 9.40755 24.5273 9.6696 24.1719 9.85645C23.8164 10.0433 23.4085 10.1367 22.9482 10.1367C22.4788 10.1367 22.0641 10.0592 21.7041 9.9043C21.3441 9.74935 21.0387 9.52376 20.7881 9.22754C20.5374 8.93132 20.3369 8.57585 20.1865 8.16113C20.0407 7.74642 19.9404 7.2793 19.8857 6.75977V5.99414C19.9404 5.44727 20.043 4.95736 20.1934 4.52441C20.3438 4.09147 20.542 3.72233 20.7881 3.41699C21.0387 3.1071 21.3418 2.8724 21.6973 2.71289C22.0527 2.54883 22.4629 2.4668 22.9277 2.4668C23.3926 2.4668 23.805 2.55794 24.165 2.74023C24.5251 2.91797 24.8281 3.17318 25.0742 3.50586C25.3203 3.83854 25.5049 4.2373 25.6279 4.70215C25.7555 5.16243 25.8193 5.67513 25.8193 6.24023ZM24.5479 6.38379V6.24023C24.5479 5.87109 24.5091 5.52474 24.4316 5.20117C24.3542 4.87305 24.2334 4.58594 24.0693 4.33984C23.9098 4.08919 23.7048 3.89323 23.4541 3.75195C23.2035 3.60612 22.9049 3.5332 22.5586 3.5332C22.2396 3.5332 21.9616 3.58789 21.7246 3.69727C21.4922 3.80664 21.2939 3.95475 21.1299 4.1416C20.9658 4.32389 20.8314 4.53353 20.7266 4.77051C20.6263 5.00293 20.5511 5.24447 20.501 5.49512V7.26562C20.5921 7.58464 20.7197 7.88542 20.8838 8.16797C21.0479 8.44596 21.2666 8.67155 21.54 8.84473C21.8135 9.01335 22.1576 9.09766 22.5723 9.09766C22.9141 9.09766 23.208 9.02702 23.4541 8.88574C23.7048 8.73991 23.9098 8.54167 24.0693 8.29102C24.2334 8.04036 24.3542 7.75326 24.4316 7.42969C24.5091 7.10156 24.5479 6.75293 24.5479 6.38379ZM30.502 10.1367C29.987 10.1367 29.5199 10.0501 29.1006 9.87695C28.6859 9.69922 28.3281 9.45085 28.0273 9.13184C27.7311 8.81283 27.5033 8.43457 27.3438 7.99707C27.1842 7.55957 27.1045 7.08105 27.1045 6.56152V6.27441C27.1045 5.67285 27.1934 5.13737 27.3711 4.66797C27.5488 4.19401 27.7904 3.79297 28.0957 3.46484C28.401 3.13672 28.7474 2.88835 29.1348 2.71973C29.5221 2.55111 29.9232 2.4668 30.3379 2.4668C30.8665 2.4668 31.3223 2.55794 31.7051 2.74023C32.0924 2.92253 32.4092 3.17773 32.6553 3.50586C32.9014 3.82943 33.0837 4.21224 33.2021 4.6543C33.3206 5.0918 33.3799 5.57031 33.3799 6.08984V6.65723H27.8564V5.625H32.1152V5.5293C32.097 5.20117 32.0286 4.88216 31.9102 4.57227C31.7962 4.26237 31.6139 4.00716 31.3633 3.80664C31.1126 3.60612 30.7708 3.50586 30.3379 3.50586C30.0508 3.50586 29.7865 3.56738 29.5449 3.69043C29.3034 3.80892 29.096 3.98665 28.9229 4.22363C28.7497 4.46061 28.6152 4.75 28.5195 5.0918C28.4238 5.43359 28.376 5.8278 28.376 6.27441V6.56152C28.376 6.91243 28.4238 7.24284 28.5195 7.55273C28.6198 7.85807 28.7633 8.12695 28.9502 8.35938C29.1416 8.5918 29.3717 8.77409 29.6406 8.90625C29.9141 9.03841 30.224 9.10449 30.5703 9.10449C31.0169 9.10449 31.3952 9.01335 31.7051 8.83105C32.015 8.64876 32.2861 8.40495 32.5186 8.09961L33.2842 8.70801C33.1247 8.94954 32.9219 9.17969 32.6758 9.39844C32.4297 9.61719 32.1266 9.79492 31.7666 9.93164C31.4111 10.0684 30.9896 10.1367 30.502 10.1367ZM36.2305 2.60352V10H34.9658V2.60352H36.2305ZM41.084 2.60352L37.5771 6.8418H35.8066L35.6152 5.73438H37.0645L39.5459 2.60352H41.084ZM39.7236 10L37.0029 6.65039L37.8164 5.73438L41.3301 10H39.7236ZM45.4453 2.60352V10H44.1738V2.60352H45.4453ZM47.9268 2.60352V3.62891H41.7402V2.60352H47.9268ZM48.5488 6.38379V6.22656C48.5488 5.69336 48.6263 5.19889 48.7812 4.74316C48.9362 4.28288 49.1595 3.88411 49.4512 3.54688C49.7428 3.20508 50.096 2.94076 50.5107 2.75391C50.9255 2.5625 51.3903 2.4668 51.9053 2.4668C52.4248 2.4668 52.8919 2.5625 53.3066 2.75391C53.7259 2.94076 54.0814 3.20508 54.373 3.54688C54.6693 3.88411 54.8949 4.28288 55.0498 4.74316C55.2048 5.19889 55.2822 5.69336 55.2822 6.22656V6.38379C55.2822 6.91699 55.2048 7.41146 55.0498 7.86719C54.8949 8.32292 54.6693 8.72168 54.373 9.06348C54.0814 9.40072 53.7282 9.66504 53.3135 9.85645C52.9033 10.0433 52.4385 10.1367 51.9189 10.1367C51.3994 10.1367 50.9323 10.0433 50.5176 9.85645C50.1029 9.66504 49.7474 9.40072 49.4512 9.06348C49.1595 8.72168 48.9362 8.32292 48.7812 7.86719C48.6263 7.41146 48.5488 6.91699 48.5488 6.38379ZM49.8135 6.22656V6.38379C49.8135 6.75293 49.8568 7.10156 49.9434 7.42969C50.0299 7.75326 50.1598 8.04036 50.333 8.29102C50.5107 8.54167 50.7318 8.73991 50.9961 8.88574C51.2604 9.02702 51.568 9.09766 51.9189 9.09766C52.2653 9.09766 52.5684 9.02702 52.8281 8.88574C53.0924 8.73991 53.3112 8.54167 53.4844 8.29102C53.6576 8.04036 53.7874 7.75326 53.874 7.42969C53.9652 7.10156 54.0107 6.75293 54.0107 6.38379V6.22656C54.0107 5.86198 53.9652 5.5179 53.874 5.19434C53.7874 4.86621 53.6553 4.57682 53.4775 4.32617C53.3044 4.07096 53.0856 3.87044 52.8213 3.72461C52.5615 3.57878 52.2562 3.50586 51.9053 3.50586C51.5589 3.50586 51.2536 3.57878 50.9893 3.72461C50.7295 3.87044 50.5107 4.07096 50.333 4.32617C50.1598 4.57682 50.0299 4.86621 49.9434 5.19434C49.8568 5.5179 49.8135 5.86198 49.8135 6.22656ZM58.1328 4.02539V12.8438H56.8613V2.60352H58.0234L58.1328 4.02539ZM63.1162 6.24023V6.38379C63.1162 6.92155 63.0524 7.42057 62.9248 7.88086C62.7972 8.33659 62.6104 8.73307 62.3643 9.07031C62.1227 9.40755 61.8242 9.6696 61.4688 9.85645C61.1133 10.0433 60.7054 10.1367 60.2451 10.1367C59.7757 10.1367 59.361 10.0592 59.001 9.9043C58.641 9.74935 58.3356 9.52376 58.085 9.22754C57.8343 8.93132 57.6338 8.57585 57.4834 8.16113C57.3376 7.74642 57.2373 7.2793 57.1826 6.75977V5.99414C57.2373 5.44727 57.3398 4.95736 57.4902 4.52441C57.6406 4.09147 57.8389 3.72233 58.085 3.41699C58.3356 3.1071 58.6387 2.8724 58.9941 2.71289C59.3496 2.54883 59.7598 2.4668 60.2246 2.4668C60.6895 2.4668 61.1019 2.55794 61.4619 2.74023C61.8219 2.91797 62.125 3.17318 62.3711 3.50586C62.6172 3.83854 62.8018 4.2373 62.9248 4.70215C63.0524 5.16243 63.1162 5.67513 63.1162 6.24023ZM61.8447 6.38379V6.24023C61.8447 5.87109 61.806 5.52474 61.7285 5.20117C61.651 4.87305 61.5303 4.58594 61.3662 4.33984C61.2067 4.08919 61.0016 3.89323 60.751 3.75195C60.5003 3.60612 60.2018 3.5332 59.8555 3.5332C59.5365 3.5332 59.2585 3.58789 59.0215 3.69727C58.7891 3.80664 58.5908 3.95475 58.4268 4.1416C58.2627 4.32389 58.1283 4.53353 58.0234 4.77051C57.9232 5.00293 57.848 5.24447 57.7979 5.49512V7.26562C57.889 7.58464 58.0166 7.88542 58.1807 8.16797C58.3447 8.44596 58.5635 8.67155 58.8369 8.84473C59.1104 9.01335 59.4544 9.09766 59.8691 9.09766C60.2109 9.09766 60.5049 9.02702 60.751 8.88574C61.0016 8.73991 61.2067 8.54167 61.3662 8.29102C61.5303 8.04036 61.651 7.75326 61.7285 7.42969C61.806 7.10156 61.8447 6.75293 61.8447 6.38379ZM73.1309 2.60352V3.64941H69.3916V2.60352H73.1309ZM69.5762 2.60352V10H68.3115V2.60352H69.5762ZM74.252 2.60352V10H72.9805V2.60352H74.252ZM75.9473 6.38379V6.22656C75.9473 5.69336 76.0247 5.19889 76.1797 4.74316C76.3346 4.28288 76.5579 3.88411 76.8496 3.54688C77.1413 3.20508 77.4945 2.94076 77.9092 2.75391C78.3239 2.5625 78.7887 2.4668 79.3037 2.4668C79.8232 2.4668 80.2904 2.5625 80.7051 2.75391C81.1243 2.94076 81.4798 3.20508 81.7715 3.54688C82.0677 3.88411 82.2933 4.28288 82.4482 4.74316C82.6032 5.19889 82.6807 5.69336 82.6807 6.22656V6.38379C82.6807 6.91699 82.6032 7.41146 82.4482 7.86719C82.2933 8.32292 82.0677 8.72168 81.7715 9.06348C81.4798 9.40072 81.1266 9.66504 80.7119 9.85645C80.3018 10.0433 79.8369 10.1367 79.3174 10.1367C78.7979 10.1367 78.3307 10.0433 77.916 9.85645C77.5013 9.66504 77.1458 9.40072 76.8496 9.06348C76.5579 8.72168 76.3346 8.32292 76.1797 7.86719C76.0247 7.41146 75.9473 6.91699 75.9473 6.38379ZM77.2119 6.22656V6.38379C77.2119 6.75293 77.2552 7.10156 77.3418 7.42969C77.4284 7.75326 77.5583 8.04036 77.7314 8.29102C77.9092 8.54167 78.1302 8.73991 78.3945 8.88574C78.6589 9.02702 78.9665 9.09766 79.3174 9.09766C79.6637 9.09766 79.9668 9.02702 80.2266 8.88574C80.4909 8.73991 80.7096 8.54167 80.8828 8.29102C81.056 8.04036 81.1859 7.75326 81.2725 7.42969C81.3636 7.10156 81.4092 6.75293 81.4092 6.38379V6.22656C81.4092 5.86198 81.3636 5.5179 81.2725 5.19434C81.1859 4.86621 81.0537 4.57682 80.876 4.32617C80.7028 4.07096 80.484 3.87044 80.2197 3.72461C79.96 3.57878 79.6546 3.50586 79.3037 3.50586C78.9574 3.50586 78.652 3.57878 78.3877 3.72461C78.1279 3.87044 77.9092 4.07096 77.7314 4.32617C77.5583 4.57682 77.4284 4.86621 77.3418 5.19434C77.2552 5.5179 77.2119 5.86198 77.2119 6.22656ZM92.668 2.60352V3.64941H88.9287V2.60352H92.668ZM89.1133 2.60352V10H87.8486V2.60352H89.1133ZM93.7891 2.60352V10H92.5176V2.60352H93.7891ZM97.084 4.02539V12.8438H95.8125V2.60352H96.9746L97.084 4.02539ZM102.067 6.24023V6.38379C102.067 6.92155 102.004 7.42057 101.876 7.88086C101.748 8.33659 101.562 8.73307 101.315 9.07031C101.074 9.40755 100.775 9.6696 100.42 9.85645C100.064 10.0433 99.6566 10.1367 99.1963 10.1367C98.7269 10.1367 98.3122 10.0592 97.9521 9.9043C97.5921 9.74935 97.2868 9.52376 97.0361 9.22754C96.7855 8.93132 96.585 8.57585 96.4346 8.16113C96.2887 7.74642 96.1885 7.2793 96.1338 6.75977V5.99414C96.1885 5.44727 96.291 4.95736 96.4414 4.52441C96.5918 4.09147 96.79 3.72233 97.0361 3.41699C97.2868 3.1071 97.5898 2.8724 97.9453 2.71289C98.3008 2.54883 98.7109 2.4668 99.1758 2.4668C99.6406 2.4668 100.053 2.55794 100.413 2.74023C100.773 2.91797 101.076 3.17318 101.322 3.50586C101.568 3.83854 101.753 4.2373 101.876 4.70215C102.004 5.16243 102.067 5.67513 102.067 6.24023ZM100.796 6.38379V6.24023C100.796 5.87109 100.757 5.52474 100.68 5.20117C100.602 4.87305 100.481 4.58594 100.317 4.33984C100.158 4.08919 99.9528 3.89323 99.7021 3.75195C99.4515 3.60612 99.153 3.5332 98.8066 3.5332C98.4876 3.5332 98.2096 3.58789 97.9727 3.69727C97.7402 3.80664 97.542 3.95475 97.3779 4.1416C97.2139 4.32389 97.0794 4.53353 96.9746 4.77051C96.8743 5.00293 96.7992 5.24447 96.749 5.49512V7.26562C96.8402 7.58464 96.9678 7.88542 97.1318 8.16797C97.2959 8.44596 97.5146 8.67155 97.7881 8.84473C98.0615 9.01335 98.4056 9.09766 98.8203 9.09766C99.1621 9.09766 99.4561 9.02702 99.7021 8.88574C99.9528 8.73991 100.158 8.54167 100.317 8.29102C100.481 8.04036 100.602 7.75326 100.68 7.42969C100.757 7.10156 100.796 6.75293 100.796 6.38379ZM103.346 6.38379V6.22656C103.346 5.69336 103.423 5.19889 103.578 4.74316C103.733 4.28288 103.956 3.88411 104.248 3.54688C104.54 3.20508 104.893 2.94076 105.308 2.75391C105.722 2.5625 106.187 2.4668 106.702 2.4668C107.222 2.4668 107.689 2.5625 108.104 2.75391C108.523 2.94076 108.878 3.20508 109.17 3.54688C109.466 3.88411 109.692 4.28288 109.847 4.74316C110.002 5.19889 110.079 5.69336 110.079 6.22656V6.38379C110.079 6.91699 110.002 7.41146 109.847 7.86719C109.692 8.32292 109.466 8.72168 109.17 9.06348C108.878 9.40072 108.525 9.66504 108.11 9.85645C107.7 10.0433 107.235 10.1367 106.716 10.1367C106.196 10.1367 105.729 10.0433 105.314 9.85645C104.9 9.66504 104.544 9.40072 104.248 9.06348C103.956 8.72168 103.733 8.32292 103.578 7.86719C103.423 7.41146 103.346 6.91699 103.346 6.38379ZM104.61 6.22656V6.38379C104.61 6.75293 104.654 7.10156 104.74 7.42969C104.827 7.75326 104.957 8.04036 105.13 8.29102C105.308 8.54167 105.529 8.73991 105.793 8.88574C106.057 9.02702 106.365 9.09766 106.716 9.09766C107.062 9.09766 107.365 9.02702 107.625 8.88574C107.889 8.73991 108.108 8.54167 108.281 8.29102C108.454 8.04036 108.584 7.75326 108.671 7.42969C108.762 7.10156 108.808 6.75293 108.808 6.38379V6.22656C108.808 5.86198 108.762 5.5179 108.671 5.19434C108.584 4.86621 108.452 4.57682 108.274 4.32617C108.101 4.07096 107.882 3.87044 107.618 3.72461C107.358 3.57878 107.053 3.50586 106.702 3.50586C106.356 3.50586 106.05 3.57878 105.786 3.72461C105.526 3.87044 105.308 4.07096 105.13 4.32617C104.957 4.57682 104.827 4.86621 104.74 5.19434C104.654 5.5179 104.61 5.86198 104.61 6.22656ZM114.734 10.1367C114.219 10.1367 113.752 10.0501 113.333 9.87695C112.918 9.69922 112.561 9.45085 112.26 9.13184C111.964 8.81283 111.736 8.43457 111.576 7.99707C111.417 7.55957 111.337 7.08105 111.337 6.56152V6.27441C111.337 5.67285 111.426 5.13737 111.604 4.66797C111.781 4.19401 112.023 3.79297 112.328 3.46484C112.633 3.13672 112.98 2.88835 113.367 2.71973C113.755 2.55111 114.156 2.4668 114.57 2.4668C115.099 2.4668 115.555 2.55794 115.938 2.74023C116.325 2.92253 116.642 3.17773 116.888 3.50586C117.134 3.82943 117.316 4.21224 117.435 4.6543C117.553 5.0918 117.612 5.57031 117.612 6.08984V6.65723H112.089V5.625H116.348V5.5293C116.329 5.20117 116.261 4.88216 116.143 4.57227C116.029 4.26237 115.846 4.00716 115.596 3.80664C115.345 3.60612 115.003 3.50586 114.57 3.50586C114.283 3.50586 114.019 3.56738 113.777 3.69043C113.536 3.80892 113.328 3.98665 113.155 4.22363C112.982 4.46061 112.848 4.75 112.752 5.0918C112.656 5.43359 112.608 5.8278 112.608 6.27441V6.56152C112.608 6.91243 112.656 7.24284 112.752 7.55273C112.852 7.85807 112.996 8.12695 113.183 8.35938C113.374 8.5918 113.604 8.77409 113.873 8.90625C114.146 9.03841 114.456 9.10449 114.803 9.10449C115.249 9.10449 115.628 9.01335 115.938 8.83105C116.247 8.64876 116.519 8.40495 116.751 8.09961L117.517 8.70801C117.357 8.94954 117.154 9.17969 116.908 9.39844C116.662 9.61719 116.359 9.79492 115.999 9.93164C115.644 10.0684 115.222 10.1367 114.734 10.1367ZM120.463 2.60352V10H119.198V2.60352H120.463ZM125.316 2.60352L121.81 6.8418H120.039L119.848 5.73438H121.297L123.778 2.60352H125.316ZM123.956 10L121.235 6.65039L122.049 5.73438L125.562 10H123.956ZM129.678 2.60352V10H128.406V2.60352H129.678ZM132.159 2.60352V3.62891H125.973V2.60352H132.159ZM134.771 7.99707L138.182 2.60352H139.453V10H138.182V4.60645L134.771 10H133.513V2.60352H134.771V7.99707ZM142.748 4.02539V12.8438H141.477V2.60352H142.639L142.748 4.02539ZM147.731 6.24023V6.38379C147.731 6.92155 147.668 7.42057 147.54 7.88086C147.412 8.33659 147.226 8.73307 146.979 9.07031C146.738 9.40755 146.439 9.6696 146.084 9.85645C145.729 10.0433 145.321 10.1367 144.86 10.1367C144.391 10.1367 143.976 10.0592 143.616 9.9043C143.256 9.74935 142.951 9.52376 142.7 9.22754C142.45 8.93132 142.249 8.57585 142.099 8.16113C141.953 7.74642 141.853 7.2793 141.798 6.75977V5.99414C141.853 5.44727 141.955 4.95736 142.105 4.52441C142.256 4.09147 142.454 3.72233 142.7 3.41699C142.951 3.1071 143.254 2.8724 143.609 2.71289C143.965 2.54883 144.375 2.4668 144.84 2.4668C145.305 2.4668 145.717 2.55794 146.077 2.74023C146.437 2.91797 146.74 3.17318 146.986 3.50586C147.232 3.83854 147.417 4.2373 147.54 4.70215C147.668 5.16243 147.731 5.67513 147.731 6.24023ZM146.46 6.38379V6.24023C146.46 5.87109 146.421 5.52474 146.344 5.20117C146.266 4.87305 146.146 4.58594 145.981 4.33984C145.822 4.08919 145.617 3.89323 145.366 3.75195C145.116 3.60612 144.817 3.5332 144.471 3.5332C144.152 3.5332 143.874 3.58789 143.637 3.69727C143.404 3.80664 143.206 3.95475 143.042 4.1416C142.878 4.32389 142.743 4.53353 142.639 4.77051C142.538 5.00293 142.463 5.24447 142.413 5.49512V7.26562C142.504 7.58464 142.632 7.88542 142.796 8.16797C142.96 8.44596 143.179 8.67155 143.452 8.84473C143.726 9.01335 144.07 9.09766 144.484 9.09766C144.826 9.09766 145.12 9.02702 145.366 8.88574C145.617 8.73991 145.822 8.54167 145.981 8.29102C146.146 8.04036 146.266 7.75326 146.344 7.42969C146.421 7.10156 146.46 6.75293 146.46 6.38379ZM149.01 6.38379V6.22656C149.01 5.69336 149.087 5.19889 149.242 4.74316C149.397 4.28288 149.62 3.88411 149.912 3.54688C150.204 3.20508 150.557 2.94076 150.972 2.75391C151.386 2.5625 151.851 2.4668 152.366 2.4668C152.886 2.4668 153.353 2.5625 153.768 2.75391C154.187 2.94076 154.542 3.20508 154.834 3.54688C155.13 3.88411 155.356 4.28288 155.511 4.74316C155.666 5.19889 155.743 5.69336 155.743 6.22656V6.38379C155.743 6.91699 155.666 7.41146 155.511 7.86719C155.356 8.32292 155.13 8.72168 154.834 9.06348C154.542 9.40072 154.189 9.66504 153.774 9.85645C153.364 10.0433 152.899 10.1367 152.38 10.1367C151.86 10.1367 151.393 10.0433 150.979 9.85645C150.564 9.66504 150.208 9.40072 149.912 9.06348C149.62 8.72168 149.397 8.32292 149.242 7.86719C149.087 7.41146 149.01 6.91699 149.01 6.38379ZM150.274 6.22656V6.38379C150.274 6.75293 150.318 7.10156 150.404 7.42969C150.491 7.75326 150.621 8.04036 150.794 8.29102C150.972 8.54167 151.193 8.73991 151.457 8.88574C151.721 9.02702 152.029 9.09766 152.38 9.09766C152.726 9.09766 153.029 9.02702 153.289 8.88574C153.553 8.73991 153.772 8.54167 153.945 8.29102C154.118 8.04036 154.248 7.75326 154.335 7.42969C154.426 7.10156 154.472 6.75293 154.472 6.38379V6.22656C154.472 5.86198 154.426 5.5179 154.335 5.19434C154.248 4.86621 154.116 4.57682 153.938 4.32617C153.765 4.07096 153.547 3.87044 153.282 3.72461C153.022 3.57878 152.717 3.50586 152.366 3.50586C152.02 3.50586 151.715 3.57878 151.45 3.72461C151.19 3.87044 150.972 4.07096 150.794 4.32617C150.621 4.57682 150.491 4.86621 150.404 5.19434C150.318 5.5179 150.274 5.86198 150.274 6.22656ZM160.802 6.74609H158.375L158.361 5.73438H160.344C160.736 5.73438 161.062 5.69564 161.321 5.61816C161.586 5.54069 161.784 5.42448 161.916 5.26953C162.048 5.11458 162.114 4.92318 162.114 4.69531C162.114 4.51758 162.076 4.36263 161.998 4.23047C161.925 4.09375 161.813 3.9821 161.663 3.89551C161.513 3.80436 161.326 3.73828 161.103 3.69727C160.884 3.65169 160.626 3.62891 160.33 3.62891H158.71V10H157.445V2.60352H160.33C160.799 2.60352 161.221 2.64453 161.595 2.72656C161.973 2.80859 162.294 2.93392 162.559 3.10254C162.827 3.2666 163.033 3.47624 163.174 3.73145C163.315 3.98665 163.386 4.28743 163.386 4.63379C163.386 4.8571 163.34 5.06901 163.249 5.26953C163.158 5.47005 163.023 5.64779 162.846 5.80273C162.668 5.95768 162.449 6.08529 162.189 6.18555C161.93 6.28125 161.631 6.34277 161.294 6.37012L160.802 6.74609ZM160.802 10H157.917L158.546 8.97461H160.802C161.153 8.97461 161.444 8.93132 161.677 8.84473C161.909 8.75358 162.082 8.62598 162.196 8.46191C162.315 8.29329 162.374 8.09277 162.374 7.86035C162.374 7.62793 162.315 7.42969 162.196 7.26562C162.082 7.09701 161.909 6.9694 161.677 6.88281C161.444 6.79167 161.153 6.74609 160.802 6.74609H158.881L158.895 5.73438H161.294L161.752 6.11719C162.158 6.14909 162.502 6.24935 162.784 6.41797C163.067 6.58659 163.281 6.80078 163.427 7.06055C163.573 7.31576 163.646 7.59375 163.646 7.89453C163.646 8.24089 163.579 8.54622 163.447 8.81055C163.32 9.07487 163.133 9.2959 162.887 9.47363C162.641 9.64681 162.342 9.77897 161.991 9.87012C161.64 9.95671 161.244 10 160.802 10ZM169.702 8.73535V4.92773C169.702 4.63607 169.643 4.38314 169.524 4.16895C169.41 3.9502 169.237 3.78158 169.005 3.66309C168.772 3.5446 168.485 3.48535 168.144 3.48535C167.825 3.48535 167.544 3.54004 167.303 3.64941C167.066 3.75879 166.879 3.90234 166.742 4.08008C166.61 4.25781 166.544 4.44922 166.544 4.6543H165.279C165.279 4.38997 165.348 4.12793 165.484 3.86816C165.621 3.6084 165.817 3.3737 166.072 3.16406C166.332 2.94987 166.642 2.78125 167.002 2.6582C167.367 2.5306 167.772 2.4668 168.219 2.4668C168.757 2.4668 169.23 2.55794 169.641 2.74023C170.055 2.92253 170.379 3.19824 170.611 3.56738C170.848 3.93197 170.967 4.38997 170.967 4.94141V8.38672C170.967 8.63281 170.987 8.89486 171.028 9.17285C171.074 9.45085 171.14 9.6901 171.227 9.89062V10H169.907C169.843 9.85417 169.793 9.66048 169.757 9.41895C169.72 9.17285 169.702 8.94499 169.702 8.73535ZM169.921 5.51562L169.935 6.4043H168.656C168.296 6.4043 167.975 6.43392 167.692 6.49316C167.41 6.54785 167.173 6.63216 166.981 6.74609C166.79 6.86003 166.644 7.00358 166.544 7.17676C166.444 7.34538 166.394 7.54362 166.394 7.77148C166.394 8.00391 166.446 8.21582 166.551 8.40723C166.656 8.59863 166.813 8.7513 167.022 8.86523C167.237 8.97461 167.499 9.0293 167.809 9.0293C168.196 9.0293 168.538 8.94727 168.834 8.7832C169.13 8.61914 169.365 8.41862 169.538 8.18164C169.716 7.94466 169.812 7.71452 169.825 7.49121L170.365 8.09961C170.333 8.29102 170.247 8.50293 170.105 8.73535C169.964 8.96777 169.775 9.19108 169.538 9.40527C169.306 9.61491 169.028 9.79036 168.704 9.93164C168.385 10.0684 168.025 10.1367 167.624 10.1367C167.123 10.1367 166.683 10.0387 166.305 9.84277C165.931 9.64681 165.639 9.38477 165.43 9.05664C165.225 8.72396 165.122 8.35254 165.122 7.94238C165.122 7.5459 165.2 7.19727 165.354 6.89648C165.509 6.59115 165.733 6.33822 166.024 6.1377C166.316 5.93262 166.667 5.77767 167.077 5.67285C167.487 5.56803 167.945 5.51562 168.451 5.51562H169.921ZM177.974 5.80957V6.83496H174.063V5.80957H177.974ZM174.33 2.60352V10H173.065V2.60352H174.33ZM178.999 2.60352V10H177.728V2.60352H178.999ZM182.403 7.99707L185.814 2.60352H187.086V10H185.814V4.60645L182.403 10H181.146V2.60352H182.403V7.99707ZM193.327 5.74121V6.77344H189.396V5.74121H193.327ZM190.497 2.60352V10H189.232V2.60352H190.497ZM192.247 6.38379V6.22656C192.247 5.69336 192.325 5.19889 192.479 4.74316C192.634 4.28288 192.858 3.88411 193.149 3.54688C193.446 3.20508 193.799 2.94076 194.209 2.75391C194.624 2.5625 195.089 2.4668 195.604 2.4668C196.128 2.4668 196.597 2.5625 197.012 2.75391C197.426 2.94076 197.78 3.20508 198.071 3.54688C198.368 3.88411 198.593 4.28288 198.748 4.74316C198.903 5.19889 198.98 5.69336 198.98 6.22656V6.38379C198.98 6.91699 198.903 7.41146 198.748 7.86719C198.593 8.32292 198.37 8.72168 198.078 9.06348C197.786 9.40072 197.433 9.66504 197.019 9.85645C196.604 10.0433 196.137 10.1367 195.617 10.1367C195.098 10.1367 194.631 10.0433 194.216 9.85645C193.801 9.66504 193.446 9.40072 193.149 9.06348C192.858 8.72168 192.634 8.32292 192.479 7.86719C192.325 7.41146 192.247 6.91699 192.247 6.38379ZM193.519 6.22656V6.38379C193.519 6.75293 193.562 7.10156 193.648 7.42969C193.735 7.75326 193.865 8.04036 194.038 8.29102C194.216 8.54167 194.435 8.73991 194.694 8.88574C194.959 9.02702 195.266 9.09766 195.617 9.09766C195.968 9.09766 196.273 9.02702 196.533 8.88574C196.798 8.73991 197.016 8.54167 197.189 8.29102C197.363 8.04036 197.493 7.75326 197.579 7.42969C197.67 7.10156 197.716 6.75293 197.716 6.38379V6.22656C197.716 5.86198 197.67 5.5179 197.579 5.19434C197.493 4.86621 197.36 4.57682 197.183 4.32617C197.009 4.07096 196.791 3.87044 196.526 3.72461C196.262 3.57878 195.954 3.50586 195.604 3.50586C195.257 3.50586 194.954 3.57878 194.694 3.72461C194.435 3.87044 194.216 4.07096 194.038 4.32617C193.865 4.57682 193.735 4.86621 193.648 5.19434C193.562 5.5179 193.519 5.86198 193.519 6.22656ZM3.84863 30H1.77051L1.78418 28.9268H3.84863C4.55957 28.9268 5.15202 28.7786 5.62598 28.4824C6.09993 28.1816 6.4554 27.7624 6.69238 27.2246C6.93392 26.6823 7.05469 26.0488 7.05469 25.3242V24.7158C7.05469 24.1462 6.98633 23.6403 6.84961 23.1982C6.71289 22.7516 6.51237 22.3757 6.24805 22.0703C5.98372 21.7604 5.66016 21.5257 5.27734 21.3662C4.89909 21.2067 4.46387 21.127 3.97168 21.127H1.72949V20.0469H3.97168C4.62337 20.0469 5.2181 20.1562 5.75586 20.375C6.29362 20.5892 6.75618 20.9014 7.14355 21.3115C7.53548 21.7171 7.83626 22.2093 8.0459 22.7881C8.25553 23.3623 8.36035 24.0094 8.36035 24.7295V25.3242C8.36035 26.0443 8.25553 26.6937 8.0459 27.2725C7.83626 27.8467 7.5332 28.3366 7.13672 28.7422C6.74479 29.1478 6.27083 29.46 5.71484 29.6787C5.16341 29.8929 4.54134 30 3.84863 30ZM2.47461 20.0469V30H1.15527V20.0469H2.47461ZM9.81641 26.3838V26.2266C9.81641 25.6934 9.89388 25.1989 10.0488 24.7432C10.2038 24.2829 10.4271 23.8841 10.7188 23.5469C11.0104 23.2051 11.3636 22.9408 11.7783 22.7539C12.193 22.5625 12.6579 22.4668 13.1729 22.4668C13.6924 22.4668 14.1595 22.5625 14.5742 22.7539C14.9935 22.9408 15.349 23.2051 15.6406 23.5469C15.9368 23.8841 16.1624 24.2829 16.3174 24.7432C16.4723 25.1989 16.5498 25.6934 16.5498 26.2266V26.3838C16.5498 26.917 16.4723 27.4115 16.3174 27.8672C16.1624 28.3229 15.9368 28.7217 15.6406 29.0635C15.349 29.4007 14.9958 29.665 14.5811 29.8564C14.1709 30.0433 13.7061 30.1367 13.1865 30.1367C12.667 30.1367 12.1999 30.0433 11.7852 29.8564C11.3704 29.665 11.015 29.4007 10.7188 29.0635C10.4271 28.7217 10.2038 28.3229 10.0488 27.8672C9.89388 27.4115 9.81641 26.917 9.81641 26.3838ZM11.0811 26.2266V26.3838C11.0811 26.7529 11.1243 27.1016 11.2109 27.4297C11.2975 27.7533 11.4274 28.0404 11.6006 28.291C11.7783 28.5417 11.9993 28.7399 12.2637 28.8857C12.528 29.027 12.8356 29.0977 13.1865 29.0977C13.5329 29.0977 13.8359 29.027 14.0957 28.8857C14.36 28.7399 14.5788 28.5417 14.752 28.291C14.9251 28.0404 15.055 27.7533 15.1416 27.4297C15.2327 27.1016 15.2783 26.7529 15.2783 26.3838V26.2266C15.2783 25.862 15.2327 25.5179 15.1416 25.1943C15.055 24.8662 14.9229 24.5768 14.7451 24.3262C14.5719 24.071 14.3532 23.8704 14.0889 23.7246C13.8291 23.5788 13.5238 23.5059 13.1729 23.5059C12.8265 23.5059 12.5212 23.5788 12.2568 23.7246C11.9971 23.8704 11.7783 24.071 11.6006 24.3262C11.4274 24.5768 11.2975 24.8662 11.2109 25.1943C11.1243 25.5179 11.0811 25.862 11.0811 26.2266ZM21.0957 29.0977C21.3965 29.0977 21.6745 29.0361 21.9297 28.9131C22.1849 28.79 22.3945 28.6214 22.5586 28.4072C22.7227 28.1885 22.8161 27.9401 22.8389 27.6621H24.042C24.0192 28.0996 23.8711 28.5075 23.5977 28.8857C23.3288 29.2594 22.9756 29.5625 22.5381 29.7949C22.1006 30.0228 21.6198 30.1367 21.0957 30.1367C20.5397 30.1367 20.0544 30.0387 19.6396 29.8428C19.2295 29.6468 18.8877 29.3779 18.6143 29.0361C18.3454 28.6943 18.1426 28.3024 18.0059 27.8604C17.8737 27.4137 17.8076 26.9421 17.8076 26.4453V26.1582C17.8076 25.6615 17.8737 25.1921 18.0059 24.75C18.1426 24.3034 18.3454 23.9092 18.6143 23.5674C18.8877 23.2256 19.2295 22.9567 19.6396 22.7607C20.0544 22.5648 20.5397 22.4668 21.0957 22.4668C21.6745 22.4668 22.1803 22.5853 22.6133 22.8223C23.0462 23.0547 23.3857 23.3737 23.6318 23.7793C23.8825 24.1803 24.0192 24.6361 24.042 25.1465H22.8389C22.8161 24.8411 22.7295 24.5654 22.5791 24.3193C22.4333 24.0732 22.2327 23.8773 21.9775 23.7314C21.7269 23.5811 21.4329 23.5059 21.0957 23.5059C20.7083 23.5059 20.3825 23.5833 20.1182 23.7383C19.8584 23.8887 19.651 24.0938 19.4961 24.3535C19.3457 24.6087 19.2363 24.8936 19.168 25.208C19.1042 25.5179 19.0723 25.8346 19.0723 26.1582V26.4453C19.0723 26.7689 19.1042 27.0879 19.168 27.4023C19.2318 27.7168 19.3389 28.0016 19.4893 28.2568C19.6442 28.512 19.8516 28.7171 20.1113 28.8721C20.3757 29.0225 20.7038 29.0977 21.0957 29.0977ZM29.9893 28.291V22.6035H31.2607V30H30.0508L29.9893 28.291ZM30.2285 26.7324L30.7549 26.7188C30.7549 27.2109 30.7025 27.6667 30.5977 28.0859C30.4974 28.5007 30.3333 28.8607 30.1055 29.166C29.8776 29.4714 29.5791 29.7106 29.21 29.8838C28.8408 30.0524 28.3919 30.1367 27.8633 30.1367C27.5033 30.1367 27.1729 30.0843 26.8721 29.9795C26.5758 29.8747 26.3206 29.7129 26.1064 29.4941C25.8923 29.2754 25.7259 28.9906 25.6074 28.6396C25.4935 28.2887 25.4365 27.8672 25.4365 27.375V22.6035H26.7012V27.3887C26.7012 27.7214 26.7376 27.9971 26.8105 28.2158C26.888 28.43 26.9906 28.6009 27.1182 28.7285C27.2503 28.8516 27.3962 28.9382 27.5557 28.9883C27.7197 29.0384 27.8883 29.0635 28.0615 29.0635C28.5993 29.0635 29.0254 28.9609 29.3398 28.7559C29.6543 28.5462 29.8799 28.266 30.0166 27.915C30.1579 27.5596 30.2285 27.1654 30.2285 26.7324ZM38.6846 27.4844C38.6846 27.252 38.6481 27.0469 38.5752 26.8691C38.5068 26.6868 38.3838 26.5228 38.2061 26.377C38.0329 26.2311 37.7913 26.0921 37.4814 25.96C37.1761 25.8278 36.7887 25.6934 36.3193 25.5566C35.8271 25.4108 35.3828 25.249 34.9863 25.0713C34.5898 24.889 34.2503 24.6816 33.9678 24.4492C33.6852 24.2168 33.4688 23.9502 33.3184 23.6494C33.168 23.3486 33.0928 23.0046 33.0928 22.6172C33.0928 22.2298 33.1725 21.8721 33.332 21.5439C33.4915 21.2158 33.7194 20.931 34.0156 20.6895C34.3164 20.4434 34.6742 20.252 35.0889 20.1152C35.5036 19.9785 35.9661 19.9102 36.4766 19.9102C37.224 19.9102 37.8574 20.0537 38.377 20.3408C38.901 20.6234 39.2998 20.9948 39.5732 21.4551C39.8467 21.9108 39.9834 22.3984 39.9834 22.918H38.6709C38.6709 22.5443 38.5911 22.2139 38.4316 21.9268C38.2721 21.6351 38.0306 21.4072 37.707 21.2432C37.3835 21.0745 36.9733 20.9902 36.4766 20.9902C36.0072 20.9902 35.6198 21.0609 35.3145 21.2021C35.0091 21.3434 34.7812 21.5348 34.6309 21.7764C34.485 22.0179 34.4121 22.2936 34.4121 22.6035C34.4121 22.8132 34.4554 23.0046 34.542 23.1777C34.6331 23.3464 34.7721 23.5036 34.959 23.6494C35.1504 23.7952 35.3919 23.9297 35.6836 24.0527C35.9798 24.1758 36.333 24.2943 36.7432 24.4082C37.3083 24.5677 37.7959 24.7454 38.2061 24.9414C38.6162 25.1374 38.9535 25.3584 39.2178 25.6045C39.4867 25.846 39.6849 26.1217 39.8125 26.4316C39.9447 26.737 40.0107 27.0833 40.0107 27.4707C40.0107 27.8763 39.9287 28.2432 39.7646 28.5713C39.6006 28.8994 39.3659 29.1797 39.0605 29.4121C38.7552 29.6445 38.3883 29.8245 37.96 29.9521C37.5361 30.0752 37.0622 30.1367 36.5381 30.1367C36.0778 30.1367 35.6243 30.0729 35.1777 29.9453C34.7357 29.8177 34.3324 29.6263 33.9678 29.3711C33.6077 29.1159 33.3184 28.8014 33.0996 28.4277C32.8854 28.0495 32.7783 27.612 32.7783 27.1152H34.0908C34.0908 27.457 34.1569 27.751 34.2891 27.9971C34.4212 28.2386 34.6012 28.4391 34.8291 28.5986C35.0615 28.7581 35.3236 28.8766 35.6152 28.9541C35.9115 29.027 36.2191 29.0635 36.5381 29.0635C36.9984 29.0635 37.388 28.9997 37.707 28.8721C38.026 28.7445 38.2676 28.5622 38.4316 28.3252C38.6003 28.0882 38.6846 27.8079 38.6846 27.4844ZM42.875 22.6035V30H41.6035V22.6035H42.875ZM41.5078 20.6416C41.5078 20.4365 41.5693 20.2633 41.6924 20.1221C41.82 19.9808 42.0068 19.9102 42.2529 19.9102C42.4945 19.9102 42.679 19.9808 42.8066 20.1221C42.9388 20.2633 43.0049 20.4365 43.0049 20.6416C43.0049 20.8376 42.9388 21.0062 42.8066 21.1475C42.679 21.2842 42.4945 21.3525 42.2529 21.3525C42.0068 21.3525 41.82 21.2842 41.6924 21.1475C41.5693 21.0062 41.5078 20.8376 41.5078 20.6416ZM49.6973 22.6035H50.8457V29.8428C50.8457 30.4945 50.7135 31.0505 50.4492 31.5107C50.1849 31.971 49.8158 32.3197 49.3418 32.5566C48.8724 32.7982 48.3301 32.9189 47.7148 32.9189C47.4596 32.9189 47.1589 32.8779 46.8125 32.7959C46.4707 32.7184 46.1335 32.584 45.8008 32.3926C45.4727 32.2057 45.1969 31.9528 44.9736 31.6338L45.6367 30.8818C45.9466 31.2555 46.2702 31.5153 46.6074 31.6611C46.9492 31.807 47.2865 31.8799 47.6191 31.8799C48.0202 31.8799 48.3665 31.8047 48.6582 31.6543C48.9499 31.5039 49.1755 31.2806 49.335 30.9844C49.499 30.6927 49.5811 30.3327 49.5811 29.9043V24.2305L49.6973 22.6035ZM44.6045 26.3838V26.2402C44.6045 25.6751 44.6706 25.1624 44.8027 24.7021C44.9395 24.2373 45.1331 23.8385 45.3838 23.5059C45.639 23.1732 45.9466 22.918 46.3066 22.7402C46.6667 22.5579 47.0723 22.4668 47.5234 22.4668C47.9883 22.4668 48.3939 22.5488 48.7402 22.7129C49.0911 22.8724 49.3874 23.1071 49.6289 23.417C49.875 23.7223 50.0687 24.0915 50.21 24.5244C50.3512 24.9574 50.4492 25.4473 50.5039 25.9941V26.623C50.4538 27.1654 50.3558 27.653 50.21 28.0859C50.0687 28.5189 49.875 28.888 49.6289 29.1934C49.3874 29.4987 49.0911 29.7334 48.7402 29.8975C48.3893 30.057 47.9792 30.1367 47.5098 30.1367C47.0677 30.1367 46.6667 30.0433 46.3066 29.8564C45.9512 29.6696 45.6458 29.4076 45.3906 29.0703C45.1354 28.7331 44.9395 28.3366 44.8027 27.8809C44.6706 27.4206 44.6045 26.9215 44.6045 26.3838ZM45.8691 26.2402V26.3838C45.8691 26.7529 45.9056 27.0993 45.9785 27.4229C46.056 27.7464 46.1722 28.0312 46.3271 28.2773C46.4867 28.5234 46.6895 28.7171 46.9355 28.8584C47.1816 28.9951 47.4756 29.0635 47.8174 29.0635C48.2367 29.0635 48.583 28.9746 48.8564 28.7969C49.1299 28.6191 49.3464 28.3844 49.5059 28.0928C49.6699 27.8011 49.7975 27.4844 49.8887 27.1426V25.4951C49.8385 25.2445 49.7611 25.0029 49.6562 24.7705C49.556 24.5335 49.4238 24.3239 49.2598 24.1416C49.1003 23.9548 48.902 23.8066 48.665 23.6973C48.4281 23.5879 48.1501 23.5332 47.8311 23.5332C47.4847 23.5332 47.1862 23.6061 46.9355 23.752C46.6895 23.8932 46.4867 24.0892 46.3271 24.3398C46.1722 24.5859 46.056 24.873 45.9785 25.2012C45.9056 25.5247 45.8691 25.8711 45.8691 26.2402ZM54.0312 24.1826V30H52.7666V22.6035H53.9629L54.0312 24.1826ZM53.7305 26.0215L53.2041 26.001C53.2087 25.4951 53.2839 25.028 53.4297 24.5996C53.5755 24.1667 53.7806 23.7907 54.0449 23.4717C54.3092 23.1527 54.6237 22.9066 54.9883 22.7334C55.3574 22.5557 55.7653 22.4668 56.2119 22.4668C56.5765 22.4668 56.9046 22.5169 57.1963 22.6172C57.488 22.7129 57.7363 22.8678 57.9414 23.082C58.151 23.2962 58.3105 23.5742 58.4199 23.916C58.5293 24.2533 58.584 24.6657 58.584 25.1533V30H57.3125V25.1396C57.3125 24.7523 57.2555 24.4424 57.1416 24.21C57.0277 23.973 56.8613 23.8021 56.6426 23.6973C56.4238 23.5879 56.1549 23.5332 55.8359 23.5332C55.5215 23.5332 55.2344 23.5993 54.9746 23.7314C54.7194 23.8636 54.4984 24.0459 54.3115 24.2783C54.1292 24.5107 53.9857 24.7773 53.8809 25.0781C53.7806 25.3743 53.7305 25.6888 53.7305 26.0215Z" fill="#050038" fill-opacity="0.6"/>
</svg>
