<svg xmlns="http://www.w3.org/2000/svg" width="199" height="33" fill="none"><path fill="#050038" fill-opacity=".6" d="M8.982 8.927V10H1.45V8.927h7.533Zm-7.32 0v3.52H.354L.35 8.927H1.66Zm8.469 0-.014 3.513H8.812V8.927h1.319ZM7.69.047v1.08H3.328V.047H7.69Zm1.134 0V10H7.513V.047h1.312Zm-5.947 0h1.32l-.206 4.006a13.73 13.73 0 0 1-.17 1.668c-.087.506-.194.968-.322 1.387a7.47 7.47 0 0 1-.438 1.128c-.164.328-.339.613-.526.855a3.258 3.258 0 0 1-.588.588c-.2.15-.403.257-.608.321H.738V8.927h.424a3.74 3.74 0 0 0 .403-.554c.155-.241.308-.554.458-.936a8.39 8.39 0 0 0 .404-1.416c.118-.556.198-1.212.239-1.968L2.878.047Zm9.98 7.95 3.412-5.393h1.271V10H16.27V4.606L12.858 10h-1.257V2.604h1.257v5.393Zm7.978-3.972v8.819h-1.271V2.604h1.162l.109 1.421Zm4.983 2.215v.144c0 .538-.063 1.037-.191 1.497a3.68 3.68 0 0 1-.56 1.19c-.242.337-.54.599-.896.785-.356.187-.764.28-1.224.28-.47 0-.884-.077-1.244-.232a2.454 2.454 0 0 1-.916-.676 3.456 3.456 0 0 1-.602-1.067 6.174 6.174 0 0 1-.3-1.401v-.766a6.432 6.432 0 0 1 .307-1.47c.15-.433.349-.802.595-1.107.25-.31.554-.545.91-.704a2.907 2.907 0 0 1 1.23-.246c.465 0 .877.09 1.237.273.36.178.663.433.91.766.245.333.43.731.553 1.196.128.46.191.973.191 1.538Zm-1.271.144V6.24c0-.369-.039-.715-.116-1.039a2.623 2.623 0 0 0-.363-.861 1.725 1.725 0 0 0-.615-.588 1.75 1.75 0 0 0-.895-.219c-.32 0-.597.055-.834.164-.233.11-.431.258-.595.445a2.357 2.357 0 0 0-.403.629c-.1.232-.176.473-.226.724v1.77c.091.32.219.62.383.903.164.278.383.504.656.677.274.168.618.253 1.032.253.342 0 .636-.071.882-.212.25-.146.456-.344.615-.595.164-.25.285-.538.363-.861a4.54 4.54 0 0 0 .116-1.046Zm5.954 3.753c-.515 0-.982-.087-1.401-.26a3.178 3.178 0 0 1-1.074-.745 3.314 3.314 0 0 1-.683-1.135 4.16 4.16 0 0 1-.24-1.435v-.288c0-.601.09-1.137.267-1.606.178-.474.42-.875.725-1.203a3.103 3.103 0 0 1 1.039-.745 2.984 2.984 0 0 1 1.203-.253c.528 0 .984.09 1.367.273.387.183.704.438.95.766.246.323.429.706.547 1.148.119.438.178.916.178 1.436v.567h-5.524V5.625h4.26v-.096a3.156 3.156 0 0 0-.206-.957 1.722 1.722 0 0 0-.547-.765c-.25-.2-.592-.301-1.025-.301a1.722 1.722 0 0 0-1.415.718 2.684 2.684 0 0 0-.403.868 4.4 4.4 0 0 0-.144 1.182v.288c0 .35.048.68.143.99.1.306.244.575.431.807.192.233.422.415.69.547.274.132.584.198.93.198.447 0 .825-.09 1.135-.273a2.81 2.81 0 0 0 .814-.731l.765.608c-.16.242-.362.472-.608.69-.246.22-.55.397-.91.534-.355.136-.776.205-1.264.205Zm5.729-7.533V10h-1.265V2.604h1.264Zm4.853 0-3.507 4.238h-1.77l-.192-1.108h1.45l2.48-3.13h1.539ZM39.724 10l-2.721-3.35.813-.916L41.33 10h-1.606Zm5.721-7.396V10h-1.271V2.604h1.271Zm2.482 0v1.025H41.74V2.604h6.187Zm.622 3.78v-.157c0-.534.077-1.028.232-1.484.155-.46.379-.859.67-1.196a2.988 2.988 0 0 1 1.06-.793 3.29 3.29 0 0 1 1.394-.287c.52 0 .987.095 1.402.287.419.187.774.451 1.066.793.296.337.522.736.677 1.196.155.456.232.95.232 1.484v.157c0 .533-.077 1.027-.232 1.483-.155.456-.38.855-.677 1.196a3.1 3.1 0 0 1-1.06.793c-.41.187-.875.28-1.394.28-.52 0-.987-.093-1.401-.28a3.17 3.17 0 0 1-1.067-.793 3.614 3.614 0 0 1-.67-1.196 4.582 4.582 0 0 1-.232-1.483Zm1.264-.157v.157c0 .369.044.718.13 1.046.087.323.217.61.39.861.178.25.399.449.663.595.264.141.572.212.923.212.346 0 .65-.071.91-.212a1.91 1.91 0 0 0 .655-.595c.174-.25.303-.538.39-.861a3.89 3.89 0 0 0 .137-1.046v-.157c0-.365-.046-.71-.137-1.033a2.657 2.657 0 0 0-.397-.868 1.884 1.884 0 0 0-.656-.601 1.84 1.84 0 0 0-.916-.22c-.346 0-.651.074-.916.22-.26.145-.478.346-.656.601-.173.25-.303.54-.39.868-.086.324-.13.668-.13 1.033Zm8.32-2.202v8.819H56.86V2.604h1.162l.11 1.421Zm4.983 2.215v.144c0 .538-.064 1.037-.191 1.497a3.68 3.68 0 0 1-.56 1.19c-.242.337-.54.599-.896.785-.356.187-.764.28-1.224.28-.47 0-.884-.077-1.244-.232a2.454 2.454 0 0 1-.916-.676 3.456 3.456 0 0 1-.602-1.067 6.174 6.174 0 0 1-.3-1.401v-.766a6.432 6.432 0 0 1 .307-1.47c.15-.433.349-.802.595-1.107.25-.31.554-.545.91-.704a2.908 2.908 0 0 1 1.23-.246c.465 0 .877.09 1.237.273.36.178.663.433.91.766.245.333.43.731.553 1.196.127.46.191.973.191 1.538Zm-1.271.144V6.24c0-.369-.039-.715-.117-1.039a2.625 2.625 0 0 0-.362-.861 1.726 1.726 0 0 0-.615-.588 1.75 1.75 0 0 0-.895-.219c-.32 0-.598.055-.834.164-.233.11-.431.258-.595.445a2.36 2.36 0 0 0-.404.629c-.1.232-.175.473-.225.724v1.77c.091.32.219.62.383.903.164.278.383.504.656.677.273.168.617.253 1.032.253.342 0 .636-.071.882-.212.25-.146.456-.344.615-.595a2.71 2.71 0 0 0 .362-.861 4.54 4.54 0 0 0 .117-1.046Zm11.286-3.78v1.045h-3.74V2.604h3.74Zm-3.555 0V10h-1.264V2.604h1.264Zm4.676 0V10h-1.271V2.604h1.271Zm1.695 3.78v-.157c0-.534.078-1.028.233-1.484.155-.46.378-.859.67-1.196a2.99 2.99 0 0 1 1.06-.793c.414-.192.879-.287 1.394-.287.52 0 .986.095 1.401.287.42.187.775.451 1.067.793.296.337.521.736.676 1.196.155.456.233.95.233 1.484v.157c0 .533-.078 1.027-.233 1.483-.155.456-.38.855-.676 1.196a3.101 3.101 0 0 1-1.06.793c-.41.187-.875.28-1.395.28s-.986-.093-1.401-.28a3.17 3.17 0 0 1-1.066-.793 3.612 3.612 0 0 1-.67-1.196 4.579 4.579 0 0 1-.233-1.483Zm1.265-.157v.157c0 .369.043.718.13 1.046.086.323.216.61.39.861.177.25.398.449.662.595.265.141.572.212.923.212.347 0 .65-.071.91-.212.264-.146.483-.344.656-.595.173-.25.303-.538.39-.861.09-.328.136-.677.136-1.046v-.157c0-.365-.045-.71-.137-1.033a2.659 2.659 0 0 0-.396-.868 1.885 1.885 0 0 0-.656-.601 1.84 1.84 0 0 0-.916-.22c-.347 0-.652.074-.916.22-.26.145-.479.346-.657.601-.173.25-.303.54-.39.868-.086.324-.13.668-.13 1.033Zm15.456-3.623v1.045h-3.74V2.604h3.74Zm-3.555 0V10H87.85V2.604h1.264Zm4.676 0V10h-1.271V2.604h1.271Zm3.295 1.421v8.819h-1.272V2.604h1.163l.109 1.421Zm4.983 2.215v.144c0 .538-.063 1.037-.191 1.497a3.67 3.67 0 0 1-.561 1.19c-.241.337-.54.599-.895.785-.356.187-.763.28-1.224.28-.47 0-.884-.077-1.244-.232a2.455 2.455 0 0 1-.916-.676 3.458 3.458 0 0 1-.601-1.067 6.169 6.169 0 0 1-.301-1.401v-.766a6.432 6.432 0 0 1 .307-1.47c.15-.433.349-.802.595-1.107.25-.31.554-.545.91-.704a2.907 2.907 0 0 1 1.23-.246c.465 0 .877.09 1.237.273.36.178.663.433.909.766s.431.731.554 1.196c.128.46.191.973.191 1.538Zm-1.271.144V6.24c0-.369-.039-.715-.116-1.039a2.639 2.639 0 0 0-.363-.861 1.72 1.72 0 0 0-.615-.588 1.75 1.75 0 0 0-.895-.219c-.32 0-.597.055-.834.164-.233.11-.431.258-.595.445a2.359 2.359 0 0 0-.403.629c-.1.232-.176.473-.226.724v1.77c.091.32.219.62.383.903.164.278.383.504.656.677.273.168.618.253 1.032.253.342 0 .636-.071.882-.212a1.78 1.78 0 0 0 .615-.595c.164-.25.285-.538.363-.861.077-.328.116-.677.116-1.046Zm2.55 0v-.157c0-.534.077-1.028.232-1.484a3.52 3.52 0 0 1 .67-1.196 2.99 2.99 0 0 1 1.06-.793 3.284 3.284 0 0 1 1.394-.287c.52 0 .987.095 1.402.287.419.187.774.451 1.066.793.296.337.522.736.677 1.196.155.456.232.95.232 1.484v.157c0 .533-.077 1.027-.232 1.483a3.555 3.555 0 0 1-.677 1.196 3.103 3.103 0 0 1-1.06.793c-.41.187-.875.28-1.394.28-.52 0-.987-.093-1.402-.28a3.174 3.174 0 0 1-1.066-.793 3.609 3.609 0 0 1-.67-1.196 4.579 4.579 0 0 1-.232-1.483Zm1.264-.157v.157c0 .369.044.718.13 1.046.087.323.217.61.39.861.178.25.399.449.663.595.264.141.572.212.923.212.346 0 .649-.071.909-.212a1.91 1.91 0 0 0 .656-.595c.173-.25.303-.538.39-.861.091-.328.137-.677.137-1.046v-.157c0-.365-.046-.71-.137-1.033a2.662 2.662 0 0 0-.397-.868 1.885 1.885 0 0 0-.656-.601 1.841 1.841 0 0 0-.916-.22c-.346 0-.652.074-.916.22-.26.145-.478.346-.656.601-.173.25-.303.54-.39.868-.086.324-.13.668-.13 1.033Zm10.124 3.91c-.515 0-.982-.087-1.401-.26a3.175 3.175 0 0 1-1.073-.745 3.326 3.326 0 0 1-.684-1.135 4.174 4.174 0 0 1-.239-1.435v-.288c0-.601.089-1.137.267-1.606.177-.474.419-.875.724-1.203a3.104 3.104 0 0 1 1.039-.745 2.989 2.989 0 0 1 1.203-.253c.529 0 .985.09 1.368.273.387.183.704.438.95.766.246.323.428.706.547 1.148.118.438.177.916.177 1.436v.567h-5.523V5.625h4.259v-.096a3.192 3.192 0 0 0-.205-.957 1.726 1.726 0 0 0-.547-.765c-.251-.2-.593-.301-1.026-.301a1.723 1.723 0 0 0-1.415.718 2.694 2.694 0 0 0-.403.868 4.387 4.387 0 0 0-.144 1.182v.288c0 .35.048.68.144.99.1.306.244.575.431.807.191.233.421.415.69.547.273.132.583.198.93.198.446 0 .825-.09 1.135-.273.309-.182.581-.426.813-.731l.766.608c-.16.242-.363.472-.609.69a2.902 2.902 0 0 1-.909.534c-.355.136-.777.205-1.265.205Zm5.729-7.533V10h-1.265V2.604h1.265Zm4.853 0-3.506 4.238h-1.771l-.191-1.108h1.449l2.481-3.13h1.538ZM123.956 10l-2.721-3.35.814-.916L125.562 10h-1.606Zm5.722-7.396V10h-1.272V2.604h1.272Zm2.481 0v1.025h-6.186V2.604h6.186Zm2.612 5.393 3.411-5.393h1.271V10h-1.271V4.606L134.771 10h-1.258V2.604h1.258v5.393Zm7.977-3.972v8.819h-1.271V2.604h1.162l.109 1.421Zm4.983 2.215v.144c0 .538-.063 1.037-.191 1.497a3.67 3.67 0 0 1-.561 1.19c-.241.337-.54.599-.895.785a2.59 2.59 0 0 1-1.224.28c-.469 0-.884-.077-1.244-.232a2.457 2.457 0 0 1-.916-.676 3.461 3.461 0 0 1-.601-1.067 6.18 6.18 0 0 1-.301-1.401v-.766a6.47 6.47 0 0 1 .307-1.47c.151-.433.349-.802.595-1.107.251-.31.554-.545.909-.704a2.911 2.911 0 0 1 1.231-.246 2.7 2.7 0 0 1 1.237.273c.36.178.663.433.909.766s.431.731.554 1.196c.128.46.191.973.191 1.538Zm-1.271.144V6.24c0-.369-.039-.715-.116-1.039a2.618 2.618 0 0 0-.363-.861 1.718 1.718 0 0 0-.615-.588 1.748 1.748 0 0 0-.895-.219c-.319 0-.597.055-.834.164-.233.11-.431.258-.595.445a2.339 2.339 0 0 0-.403.629 3.559 3.559 0 0 0-.226.724v1.77c.091.32.219.62.383.903.164.278.383.504.656.677.274.168.618.253 1.032.253.342 0 .636-.071.882-.212.251-.146.456-.344.615-.595.165-.25.285-.538.363-.861.077-.328.116-.677.116-1.046Zm2.55 0v-.157c0-.534.077-1.028.232-1.484a3.52 3.52 0 0 1 .67-1.196 2.99 2.99 0 0 1 1.06-.793 3.284 3.284 0 0 1 1.394-.287c.52 0 .987.095 1.402.287.419.187.774.451 1.066.793.296.337.522.736.677 1.196.155.456.232.95.232 1.484v.157c0 .533-.077 1.027-.232 1.483a3.555 3.555 0 0 1-.677 1.196 3.103 3.103 0 0 1-1.06.793c-.41.187-.875.28-1.394.28a3.37 3.37 0 0 1-1.401-.28 3.168 3.168 0 0 1-1.067-.793 3.609 3.609 0 0 1-.67-1.196 4.579 4.579 0 0 1-.232-1.483Zm1.264-.157v.157c0 .369.044.718.13 1.046.087.323.217.61.39.861.178.25.399.449.663.595.264.141.572.212.923.212.346 0 .649-.071.909-.212a1.91 1.91 0 0 0 .656-.595c.173-.25.303-.538.39-.861.091-.328.137-.677.137-1.046v-.157c0-.365-.046-.71-.137-1.033a2.662 2.662 0 0 0-.397-.868 1.876 1.876 0 0 0-.656-.601 1.841 1.841 0 0 0-.916-.22c-.346 0-.651.074-.916.22-.26.145-.478.346-.656.601-.173.25-.303.54-.39.868-.086.324-.13.668-.13 1.033Zm10.528.52h-2.427l-.014-1.013h1.983c.392 0 .718-.038.977-.116.265-.077.463-.194.595-.348a.855.855 0 0 0 .198-.575.897.897 0 0 0-.451-.8 1.649 1.649 0 0 0-.56-.198 3.837 3.837 0 0 0-.773-.068h-1.62V10h-1.265V2.604h2.885c.469 0 .891.04 1.265.123.378.082.699.207.964.376.268.164.474.373.615.628.141.256.212.556.212.903a1.521 1.521 0 0 1-.54 1.169 2.19 2.19 0 0 1-.657.383 3.373 3.373 0 0 1-.895.184l-.492.376Zm0 3.253h-2.885l.629-1.025h2.256c.351 0 .642-.044.875-.13.232-.091.405-.219.519-.383.119-.169.178-.37.178-.602a.985.985 0 0 0-.178-.594 1.042 1.042 0 0 0-.519-.383c-.233-.091-.524-.137-.875-.137h-1.921l.014-1.012h2.399l.458.383c.406.032.75.132 1.032.301.283.169.497.383.643.643.146.255.219.533.219.834 0 .346-.067.651-.199.916a1.738 1.738 0 0 1-.56.663 2.74 2.74 0 0 1-.896.396c-.351.087-.747.13-1.189.13Zm8.9-1.265V4.928c0-.292-.059-.545-.178-.76a1.164 1.164 0 0 0-.519-.505c-.233-.118-.52-.178-.861-.178-.319 0-.6.055-.841.164-.237.11-.424.253-.561.431a.944.944 0 0 0-.198.574h-1.265c0-.264.069-.526.205-.786.137-.26.333-.494.588-.704.26-.214.57-.383.93-.506.365-.127.77-.191 1.217-.191.538 0 1.011.09 1.422.273.414.183.738.458.97.827.237.365.356.823.356 1.374v3.446c0 .246.02.508.061.786.046.278.112.517.199.718V10h-1.32a2.335 2.335 0 0 1-.15-.581 4.615 4.615 0 0 1-.055-.684Zm.219-3.22.014.89h-1.279c-.36 0-.681.029-.964.088a2.215 2.215 0 0 0-.711.253 1.202 1.202 0 0 0-.437.43c-.1.17-.15.368-.15.595 0 .233.052.445.157.636.105.192.262.344.471.458.215.11.477.164.787.164a2.08 2.08 0 0 0 1.025-.246c.296-.164.531-.364.704-.601.178-.237.274-.467.287-.69l.54.608a1.825 1.825 0 0 1-.26.635 3.05 3.05 0 0 1-1.401 1.196 2.716 2.716 0 0 1-1.08.206c-.501 0-.941-.098-1.319-.294a2.25 2.25 0 0 1-.875-.786 2.082 2.082 0 0 1-.308-1.115c0-.396.078-.745.232-1.046.155-.305.379-.558.67-.758.292-.205.643-.36 1.053-.465.41-.105.868-.157 1.374-.157h1.47Zm8.053.295v1.025h-3.911V5.81h3.911Zm-3.644-3.206V10h-1.265V2.604h1.265Zm4.669 0V10h-1.271V2.604h1.271Zm3.404 5.393 3.411-5.393h1.272V10h-1.272V4.606L182.403 10h-1.257V2.604h1.257v5.393Zm10.924-2.256v1.032h-3.931V5.741h3.931Zm-2.83-3.137V10h-1.265V2.604h1.265Zm1.75 3.78v-.157c0-.534.078-1.028.232-1.484.155-.46.379-.859.67-1.196.297-.342.65-.606 1.06-.793.415-.192.88-.287 1.395-.287.524 0 .993.095 1.408.287.414.187.768.451 1.059.793.297.337.522.736.677 1.196.155.456.232.95.232 1.484v.157c0 .533-.077 1.027-.232 1.483a3.609 3.609 0 0 1-.67 1.196 3.108 3.108 0 0 1-1.059.793c-.415.187-.882.28-1.402.28-.519 0-.986-.093-1.401-.28a3.178 3.178 0 0 1-1.067-.793 3.626 3.626 0 0 1-.67-1.196 4.606 4.606 0 0 1-.232-1.483Zm1.272-.157v.157c0 .369.043.718.129 1.046.087.323.217.61.39.861.178.25.397.449.656.595.265.141.572.212.923.212.351 0 .656-.071.916-.212a1.9 1.9 0 0 0 .656-.595c.174-.25.304-.538.39-.861.091-.328.137-.677.137-1.046v-.157c0-.365-.046-.71-.137-1.033a2.66 2.66 0 0 0-.396-.868 1.888 1.888 0 0 0-.657-.601 1.878 1.878 0 0 0-.922-.22c-.347 0-.65.074-.91.22a1.976 1.976 0 0 0-.656.601c-.173.25-.303.54-.39.868a4.004 4.004 0 0 0-.129 1.033ZM3.849 30H1.77l.013-1.073H3.85c.71 0 1.303-.148 1.777-.445.474-.3.83-.72 1.066-1.257.242-.543.363-1.176.363-1.9v-.61c0-.569-.069-1.075-.205-1.517a3.072 3.072 0 0 0-.602-1.128 2.541 2.541 0 0 0-.97-.704 3.336 3.336 0 0 0-1.306-.239H1.729v-1.08h2.243c.651 0 1.246.11 1.784.328.538.214 1 .526 1.388.936.391.406.692.898.902 1.477.21.574.314 1.221.314 1.942v.594c0 .72-.104 1.37-.314 1.948a3.968 3.968 0 0 1-2.331 2.406c-.552.215-1.174.322-1.866.322Zm-1.374-9.953V30h-1.32v-9.953h1.32Zm7.341 6.337v-.157c0-.534.078-1.028.233-1.484.155-.46.378-.859.67-1.196a2.989 2.989 0 0 1 1.06-.793 3.29 3.29 0 0 1 1.394-.287c.52 0 .986.096 1.401.287.42.187.775.451 1.067.793.296.337.521.736.676 1.196.155.456.233.95.233 1.484v.157c0 .533-.078 1.027-.233 1.483-.155.456-.38.855-.676 1.197a3.1 3.1 0 0 1-1.06.792c-.41.187-.875.28-1.394.28-.52 0-.987-.093-1.402-.28a3.17 3.17 0 0 1-1.066-.793 3.614 3.614 0 0 1-.67-1.196 4.581 4.581 0 0 1-.233-1.483Zm1.265-.157v.157c0 .369.043.718.13 1.046.086.323.216.61.39.861.177.25.398.449.663.595.264.141.572.212.923.212.346 0 .649-.071.909-.212.264-.146.483-.344.656-.595.173-.25.303-.538.39-.861.09-.328.136-.677.136-1.046v-.157c0-.365-.045-.71-.136-1.033a2.656 2.656 0 0 0-.397-.868 1.884 1.884 0 0 0-.656-.601 1.841 1.841 0 0 0-.916-.22c-.347 0-.652.074-.916.22-.26.145-.479.346-.656.601-.174.25-.304.54-.39.868-.087.324-.13.668-.13 1.033Zm10.015 2.87c.3 0 .578-.06.834-.184a1.72 1.72 0 0 0 .629-.506c.164-.218.257-.467.28-.745h1.203c-.023.438-.17.846-.444 1.224a3.034 3.034 0 0 1-1.06.909 3.075 3.075 0 0 1-1.442.342c-.556 0-1.042-.098-1.456-.294a2.886 2.886 0 0 1-1.026-.807 3.603 3.603 0 0 1-.608-1.176 4.961 4.961 0 0 1-.198-1.415v-.287c0-.497.066-.966.198-1.408.137-.447.34-.84.608-1.183.274-.341.616-.61 1.026-.806.414-.196.9-.294 1.456-.294.578 0 1.084.118 1.517.355a2.61 2.61 0 0 1 1.019.957c.25.401.387.857.41 1.367h-1.203a1.822 1.822 0 0 0-.26-.827 1.62 1.62 0 0 0-.602-.588 1.682 1.682 0 0 0-.881-.225c-.388 0-.713.077-.978.232-.26.15-.467.356-.622.616-.15.255-.26.54-.328.854a4.7 4.7 0 0 0-.096.95v.287c0 .324.032.643.096.957.064.315.17.6.321.855.155.255.363.46.622.615.265.15.593.226.985.226Zm8.893-.806v-5.688h1.272V30h-1.21l-.062-1.709Zm.24-1.559.526-.013c0 .492-.052.948-.157 1.367-.1.415-.265.775-.492 1.08a2.328 2.328 0 0 1-.896.718c-.37.168-.818.253-1.347.253-.36 0-.69-.053-.99-.157a1.98 1.98 0 0 1-.767-.486 2.21 2.21 0 0 1-.499-.854c-.113-.351-.17-.773-.17-1.265v-4.771H26.7v4.785c0 .332.037.608.11.827.077.214.18.385.307.512.132.124.278.21.438.26.164.05.332.076.505.076.538 0 .964-.103 1.279-.308.314-.21.54-.49.677-.841.14-.355.212-.75.212-1.183Zm8.456.752c0-.232-.037-.437-.11-.615a1.172 1.172 0 0 0-.369-.492 2.894 2.894 0 0 0-.725-.417 10.113 10.113 0 0 0-1.162-.403 10.69 10.69 0 0 1-1.333-.486 4.657 4.657 0 0 1-1.018-.622 2.454 2.454 0 0 1-.65-.8c-.15-.3-.225-.644-.225-1.032a2.422 2.422 0 0 1 .923-1.928c.3-.246.658-.437 1.073-.574a4.416 4.416 0 0 1 1.388-.205c.747 0 1.38.144 1.9.43.524.283.923.655 1.196 1.115.274.456.41.943.41 1.463h-1.312c0-.374-.08-.704-.24-.991a1.647 1.647 0 0 0-.724-.684c-.324-.168-.734-.253-1.23-.253-.47 0-.857.07-1.162.212-.306.141-.534.333-.684.574a1.568 1.568 0 0 0-.219.828c0 .21.043.4.13.574.091.168.23.326.417.471.191.146.433.28.725.404.296.123.649.241 1.06.355.564.16 1.052.337 1.462.533.41.196.747.417 1.012.664.269.241.467.517.594.827.133.305.199.651.199 1.039 0 .405-.082.772-.246 1.1a2.392 2.392 0 0 1-.705.841 3.401 3.401 0 0 1-1.1.54 5.093 5.093 0 0 1-1.422.185c-.46 0-.914-.064-1.36-.192a4.055 4.055 0 0 1-1.21-.574c-.36-.255-.65-.57-.868-.943-.215-.379-.322-.816-.322-1.313h1.313c0 .342.066.636.198.882.132.242.312.442.54.602.233.16.495.278.786.355.296.073.604.11.923.11.46 0 .85-.064 1.169-.192.319-.128.56-.31.725-.547.168-.237.253-.517.253-.84Zm4.19-4.88V30h-1.272v-7.396h1.272Zm-1.367-1.962c0-.206.061-.379.184-.52.128-.141.315-.212.56-.212.242 0 .427.07.555.212a.732.732 0 0 1 .198.52.715.715 0 0 1-.198.506c-.128.136-.313.204-.554.204-.246 0-.433-.068-.56-.204a.744.744 0 0 1-.185-.506Zm8.19 1.962h1.148v7.239c0 .651-.132 1.207-.397 1.668-.264.46-.633.809-1.107 1.046-.47.241-1.012.362-1.627.362-.255 0-.556-.041-.903-.123a3.64 3.64 0 0 1-1.011-.403 2.529 2.529 0 0 1-.827-.76l.663-.751c.31.373.633.633.97.78.342.145.68.218 1.012.218.401 0 .748-.075 1.04-.226.29-.15.517-.373.676-.67.164-.291.246-.651.246-1.08V24.23l.116-1.627Zm-5.093 3.78v-.144c0-.565.066-1.078.198-1.538.137-.465.33-.864.58-1.196a2.61 2.61 0 0 1 2.14-1.04c.465 0 .87.083 1.217.247.351.16.647.394.889.704.246.305.44.674.581 1.107.141.433.24.923.294 1.47v.629a6.44 6.44 0 0 1-.294 1.463 3.452 3.452 0 0 1-.581 1.107c-.242.306-.538.54-.889.704-.35.16-.76.24-1.23.24-.442 0-.843-.094-1.203-.28a2.74 2.74 0 0 1-.916-.787 3.725 3.725 0 0 1-.588-1.19 5.409 5.409 0 0 1-.198-1.496Zm1.264-.144v.144c0 .369.037.715.11 1.039.077.323.193.608.348.854.16.246.363.44.608.581.247.137.54.206.882.206.42 0 .766-.09 1.04-.267a1.93 1.93 0 0 0 .649-.704c.164-.292.291-.609.383-.95v-1.648a3.36 3.36 0 0 0-.233-.725 2.231 2.231 0 0 0-.396-.628 1.714 1.714 0 0 0-.595-.445 1.972 1.972 0 0 0-.834-.164 1.75 1.75 0 0 0-.896.219 1.746 1.746 0 0 0-.608.588 2.822 2.822 0 0 0-.349.861 4.72 4.72 0 0 0-.109 1.04Zm8.162-2.057V30h-1.264v-7.396h1.196l.068 1.579Zm-.3 1.838-.527-.02c.005-.506.08-.973.226-1.401.145-.433.35-.81.615-1.128a2.741 2.741 0 0 1 2.167-1.005c.364 0 .693.05.984.15.292.096.54.25.745.465.21.214.37.492.479.834.11.337.164.75.164 1.237V30h-1.272v-4.86c0-.388-.056-.698-.17-.93a1.05 1.05 0 0 0-.5-.513c-.218-.11-.487-.164-.806-.164-.314 0-.602.066-.861.198a2.062 2.062 0 0 0-.663.547 2.75 2.75 0 0 0-.431.8c-.1.296-.15.61-.15.944Z"/></svg>