<svg width="180" height="14" viewBox="0 0 180 14" fill="none" xmlns="http://www.w3.org/2000/svg">
<path d="M2.84863 11H0.770508L0.78418 9.92676H2.84863C3.55957 9.92676 4.15202 9.77865 4.62598 9.48242C5.09993 9.18164 5.4554 8.76237 5.69238 8.22461C5.93392 7.68229 6.05469 7.04883 6.05469 6.32422V5.71582C6.05469 5.14616 5.98633 4.6403 5.84961 4.19824C5.71289 3.75163 5.51237 3.37565 5.24805 3.07031C4.98372 2.76042 4.66016 2.52572 4.27734 2.36621C3.89909 2.20671 3.46387 2.12695 2.97168 2.12695H0.729492V1.04688H2.97168C3.62337 1.04688 4.2181 1.15625 4.75586 1.375C5.29362 1.58919 5.75618 1.90137 6.14355 2.31152C6.53548 2.71712 6.83626 3.20931 7.0459 3.78809C7.25553 4.3623 7.36035 5.00944 7.36035 5.72949V6.32422C7.36035 7.04427 7.25553 7.69368 7.0459 8.27246C6.83626 8.84668 6.5332 9.33659 6.13672 9.74219C5.74479 10.1478 5.27083 10.46 4.71484 10.6787C4.16341 10.8929 3.54134 11 2.84863 11ZM1.47461 1.04688V11H0.155273V1.04688H1.47461ZM12.2207 11.1367C11.7057 11.1367 11.2386 11.0501 10.8193 10.877C10.4046 10.6992 10.0469 10.4508 9.74609 10.1318C9.44987 9.81283 9.22201 9.43457 9.0625 8.99707C8.90299 8.55957 8.82324 8.08105 8.82324 7.56152V7.27441C8.82324 6.67285 8.91211 6.13737 9.08984 5.66797C9.26758 5.19401 9.50911 4.79297 9.81445 4.46484C10.1198 4.13672 10.4661 3.88835 10.8535 3.71973C11.2409 3.55111 11.6419 3.4668 12.0566 3.4668C12.5853 3.4668 13.041 3.55794 13.4238 3.74023C13.8112 3.92253 14.1279 4.17773 14.374 4.50586C14.6201 4.82943 14.8024 5.21224 14.9209 5.6543C15.0394 6.0918 15.0986 6.57031 15.0986 7.08984V7.65723H9.5752V6.625H13.834V6.5293C13.8158 6.20117 13.7474 5.88216 13.6289 5.57227C13.515 5.26237 13.3327 5.00716 13.082 4.80664C12.8314 4.60612 12.4896 4.50586 12.0566 4.50586C11.7695 4.50586 11.5052 4.56738 11.2637 4.69043C11.0221 4.80892 10.8148 4.98665 10.6416 5.22363C10.4684 5.46061 10.334 5.75 10.2383 6.0918C10.1426 6.43359 10.0947 6.8278 10.0947 7.27441V7.56152C10.0947 7.91243 10.1426 8.24284 10.2383 8.55273C10.3385 8.85807 10.4821 9.12695 10.6689 9.35938C10.8604 9.5918 11.0905 9.77409 11.3594 9.90625C11.6328 10.0384 11.9427 10.1045 12.2891 10.1045C12.7357 10.1045 13.1139 10.0133 13.4238 9.83105C13.7337 9.64876 14.0049 9.40495 14.2373 9.09961L15.0029 9.70801C14.8434 9.94954 14.6406 10.1797 14.3945 10.3984C14.1484 10.6172 13.8454 10.7949 13.4854 10.9316C13.1299 11.0684 12.7083 11.1367 12.2207 11.1367ZM20.8818 9.03809C20.8818 8.85579 20.8408 8.68717 20.7588 8.53223C20.6813 8.37272 20.5195 8.22917 20.2734 8.10156C20.0319 7.9694 19.6673 7.85547 19.1797 7.75977C18.7695 7.67318 18.3981 7.57064 18.0654 7.45215C17.7373 7.33366 17.457 7.1901 17.2246 7.02148C16.9967 6.85286 16.8213 6.65462 16.6982 6.42676C16.5752 6.19889 16.5137 5.93229 16.5137 5.62695C16.5137 5.33529 16.5775 5.05957 16.7051 4.7998C16.8372 4.54004 17.0218 4.3099 17.2588 4.10938C17.5003 3.90885 17.7897 3.75163 18.127 3.6377C18.4642 3.52376 18.8402 3.4668 19.2549 3.4668C19.8473 3.4668 20.3532 3.57161 20.7725 3.78125C21.1917 3.99089 21.513 4.27116 21.7363 4.62207C21.9596 4.96842 22.0713 5.35352 22.0713 5.77734H20.8066C20.8066 5.57227 20.7451 5.37402 20.6221 5.18262C20.5036 4.98665 20.3281 4.82487 20.0957 4.69727C19.8678 4.56966 19.5876 4.50586 19.2549 4.50586C18.904 4.50586 18.6191 4.56055 18.4004 4.66992C18.1862 4.77474 18.029 4.90918 17.9287 5.07324C17.833 5.2373 17.7852 5.41048 17.7852 5.59277C17.7852 5.72949 17.8079 5.85254 17.8535 5.96191C17.9036 6.06673 17.9902 6.16471 18.1133 6.25586C18.2363 6.34245 18.4095 6.42448 18.6328 6.50195C18.8561 6.57943 19.141 6.6569 19.4873 6.73438C20.0934 6.87109 20.5924 7.03516 20.9844 7.22656C21.3763 7.41797 21.668 7.65267 21.8594 7.93066C22.0508 8.20866 22.1465 8.5459 22.1465 8.94238C22.1465 9.26595 22.0781 9.56217 21.9414 9.83105C21.8092 10.0999 21.6156 10.3324 21.3604 10.5283C21.1097 10.7197 20.8089 10.8701 20.458 10.9795C20.1117 11.0843 19.722 11.1367 19.2891 11.1367C18.6374 11.1367 18.0859 11.0205 17.6348 10.7881C17.1836 10.5557 16.8418 10.2549 16.6094 9.88574C16.377 9.5166 16.2607 9.12695 16.2607 8.7168H17.5322C17.5505 9.06315 17.6507 9.33887 17.833 9.54395C18.0153 9.74447 18.2386 9.88802 18.5029 9.97461C18.7673 10.0566 19.0293 10.0977 19.2891 10.0977C19.6354 10.0977 19.9248 10.0521 20.1572 9.96094C20.3942 9.86979 20.5742 9.74447 20.6973 9.58496C20.8203 9.42546 20.8818 9.24316 20.8818 9.03809ZM25.1816 3.60352V11H23.9102V3.60352H25.1816ZM23.8145 1.6416C23.8145 1.43652 23.876 1.26335 23.999 1.12207C24.1266 0.980794 24.3135 0.910156 24.5596 0.910156C24.8011 0.910156 24.9857 0.980794 25.1133 1.12207C25.2454 1.26335 25.3115 1.43652 25.3115 1.6416C25.3115 1.83757 25.2454 2.00618 25.1133 2.14746C24.9857 2.28418 24.8011 2.35254 24.5596 2.35254C24.3135 2.35254 24.1266 2.28418 23.999 2.14746C23.876 2.00618 23.8145 1.83757 23.8145 1.6416ZM32.0039 3.60352H33.1523V10.8428C33.1523 11.4945 33.0202 12.0505 32.7559 12.5107C32.4915 12.971 32.1224 13.3197 31.6484 13.5566C31.179 13.7982 30.6367 13.9189 30.0215 13.9189C29.7663 13.9189 29.4655 13.8779 29.1191 13.7959C28.7773 13.7184 28.4401 13.584 28.1074 13.3926C27.7793 13.2057 27.5036 12.9528 27.2803 12.6338L27.9434 11.8818C28.2533 12.2555 28.5768 12.5153 28.9141 12.6611C29.2559 12.807 29.5931 12.8799 29.9258 12.8799C30.3268 12.8799 30.6732 12.8047 30.9648 12.6543C31.2565 12.5039 31.4821 12.2806 31.6416 11.9844C31.8057 11.6927 31.8877 11.3327 31.8877 10.9043V5.23047L32.0039 3.60352ZM26.9111 7.38379V7.24023C26.9111 6.67513 26.9772 6.16243 27.1094 5.70215C27.2461 5.2373 27.4398 4.83854 27.6904 4.50586C27.9456 4.17318 28.2533 3.91797 28.6133 3.74023C28.9733 3.55794 29.3789 3.4668 29.8301 3.4668C30.2949 3.4668 30.7005 3.54883 31.0469 3.71289C31.3978 3.8724 31.694 4.1071 31.9355 4.41699C32.1816 4.72233 32.3753 5.09147 32.5166 5.52441C32.6579 5.95736 32.7559 6.44727 32.8105 6.99414V7.62305C32.7604 8.16536 32.6624 8.65299 32.5166 9.08594C32.3753 9.51888 32.1816 9.88802 31.9355 10.1934C31.694 10.4987 31.3978 10.7334 31.0469 10.8975C30.696 11.057 30.2858 11.1367 29.8164 11.1367C29.3743 11.1367 28.9733 11.0433 28.6133 10.8564C28.2578 10.6696 27.9525 10.4076 27.6973 10.0703C27.4421 9.73307 27.2461 9.33659 27.1094 8.88086C26.9772 8.42057 26.9111 7.92155 26.9111 7.38379ZM28.1758 7.24023V7.38379C28.1758 7.75293 28.2122 8.09928 28.2852 8.42285C28.3626 8.74642 28.4788 9.03125 28.6338 9.27734C28.7933 9.52344 28.9961 9.71712 29.2422 9.8584C29.4883 9.99512 29.7822 10.0635 30.124 10.0635C30.5433 10.0635 30.8896 9.97461 31.1631 9.79688C31.4365 9.61914 31.653 9.38444 31.8125 9.09277C31.9766 8.80111 32.1042 8.48438 32.1953 8.14258V6.49512C32.1452 6.24447 32.0677 6.00293 31.9629 5.77051C31.8626 5.53353 31.7305 5.32389 31.5664 5.1416C31.4069 4.95475 31.2087 4.80664 30.9717 4.69727C30.7347 4.58789 30.4567 4.5332 30.1377 4.5332C29.7913 4.5332 29.4928 4.60612 29.2422 4.75195C28.9961 4.89323 28.7933 5.08919 28.6338 5.33984C28.4788 5.58594 28.3626 5.87305 28.2852 6.20117C28.2122 6.52474 28.1758 6.87109 28.1758 7.24023ZM36.3379 5.18262V11H35.0732V3.60352H36.2695L36.3379 5.18262ZM36.0371 7.02148L35.5107 7.00098C35.5153 6.49512 35.5905 6.02799 35.7363 5.59961C35.8822 5.16667 36.0872 4.79069 36.3516 4.47168C36.6159 4.15267 36.9303 3.90658 37.2949 3.7334C37.6641 3.55566 38.0719 3.4668 38.5186 3.4668C38.8831 3.4668 39.2113 3.51693 39.5029 3.61719C39.7946 3.71289 40.043 3.86784 40.248 4.08203C40.4577 4.29622 40.6172 4.57422 40.7266 4.91602C40.8359 5.25326 40.8906 5.66569 40.8906 6.15332V11H39.6191V6.13965C39.6191 5.75228 39.5622 5.44238 39.4482 5.20996C39.3343 4.97298 39.168 4.80208 38.9492 4.69727C38.7305 4.58789 38.4616 4.5332 38.1426 4.5332C37.8281 4.5332 37.541 4.59928 37.2812 4.73145C37.026 4.86361 36.805 5.0459 36.6182 5.27832C36.4359 5.51074 36.2923 5.77734 36.1875 6.07812C36.0872 6.37435 36.0371 6.6888 36.0371 7.02148ZM49.8799 1.04688V11H48.5811V1.04688H49.8799ZM53.0791 1.04688V2.12695H45.3887V1.04688H53.0791ZM56.75 11.1367C56.235 11.1367 55.7679 11.0501 55.3486 10.877C54.9339 10.6992 54.5762 10.4508 54.2754 10.1318C53.9792 9.81283 53.7513 9.43457 53.5918 8.99707C53.4323 8.55957 53.3525 8.08105 53.3525 7.56152V7.27441C53.3525 6.67285 53.4414 6.13737 53.6191 5.66797C53.7969 5.19401 54.0384 4.79297 54.3438 4.46484C54.6491 4.13672 54.9954 3.88835 55.3828 3.71973C55.7702 3.55111 56.1712 3.4668 56.5859 3.4668C57.1146 3.4668 57.5703 3.55794 57.9531 3.74023C58.3405 3.92253 58.6572 4.17773 58.9033 4.50586C59.1494 4.82943 59.3317 5.21224 59.4502 5.6543C59.5687 6.0918 59.6279 6.57031 59.6279 7.08984V7.65723H54.1045V6.625H58.3633V6.5293C58.3451 6.20117 58.2767 5.88216 58.1582 5.57227C58.0443 5.26237 57.862 5.00716 57.6113 4.80664C57.3607 4.60612 57.0189 4.50586 56.5859 4.50586C56.2988 4.50586 56.0345 4.56738 55.793 4.69043C55.5514 4.80892 55.3441 4.98665 55.1709 5.22363C54.9977 5.46061 54.8633 5.75 54.7676 6.0918C54.6719 6.43359 54.624 6.8278 54.624 7.27441V7.56152C54.624 7.91243 54.6719 8.24284 54.7676 8.55273C54.8678 8.85807 55.0114 9.12695 55.1982 9.35938C55.3896 9.5918 55.6198 9.77409 55.8887 9.90625C56.1621 10.0384 56.472 10.1045 56.8184 10.1045C57.265 10.1045 57.6432 10.0133 57.9531 9.83105C58.263 9.64876 58.5342 9.40495 58.7666 9.09961L59.5322 9.70801C59.3727 9.94954 59.1699 10.1797 58.9238 10.3984C58.6777 10.6172 58.3747 10.7949 58.0146 10.9316C57.6592 11.0684 57.2376 11.1367 56.75 11.1367ZM65.4658 9.73535V5.92773C65.4658 5.63607 65.4066 5.38314 65.2881 5.16895C65.1742 4.9502 65.001 4.78158 64.7686 4.66309C64.5361 4.5446 64.249 4.48535 63.9072 4.48535C63.5882 4.48535 63.3079 4.54004 63.0664 4.64941C62.8294 4.75879 62.6426 4.90234 62.5059 5.08008C62.3737 5.25781 62.3076 5.44922 62.3076 5.6543H61.043C61.043 5.38997 61.1113 5.12793 61.248 4.86816C61.3848 4.6084 61.5807 4.3737 61.8359 4.16406C62.0957 3.94987 62.4056 3.78125 62.7656 3.6582C63.1302 3.5306 63.5358 3.4668 63.9824 3.4668C64.5202 3.4668 64.9941 3.55794 65.4043 3.74023C65.819 3.92253 66.1426 4.19824 66.375 4.56738C66.612 4.93197 66.7305 5.38997 66.7305 5.94141V9.38672C66.7305 9.63281 66.751 9.89486 66.792 10.1729C66.8376 10.4508 66.9036 10.6901 66.9902 10.8906V11H65.6709C65.6071 10.8542 65.557 10.6605 65.5205 10.4189C65.484 10.1729 65.4658 9.94499 65.4658 9.73535ZM65.6846 6.51562L65.6982 7.4043H64.4199C64.0599 7.4043 63.7386 7.43392 63.4561 7.49316C63.1735 7.54785 62.9365 7.63216 62.7451 7.74609C62.5537 7.86003 62.4079 8.00358 62.3076 8.17676C62.2074 8.34538 62.1572 8.54362 62.1572 8.77148C62.1572 9.00391 62.2096 9.21582 62.3145 9.40723C62.4193 9.59863 62.5765 9.7513 62.7861 9.86523C63.0003 9.97461 63.2624 10.0293 63.5723 10.0293C63.9596 10.0293 64.3014 9.94727 64.5977 9.7832C64.8939 9.61914 65.1286 9.41862 65.3018 9.18164C65.4795 8.94466 65.5752 8.71452 65.5889 8.49121L66.1289 9.09961C66.097 9.29102 66.0104 9.50293 65.8691 9.73535C65.7279 9.96777 65.5387 10.1911 65.3018 10.4053C65.0693 10.6149 64.7913 10.7904 64.4678 10.9316C64.1488 11.0684 63.7887 11.1367 63.3877 11.1367C62.8864 11.1367 62.4466 11.0387 62.0684 10.8428C61.6947 10.6468 61.403 10.3848 61.1934 10.0566C60.9883 9.72396 60.8857 9.35254 60.8857 8.94238C60.8857 8.5459 60.9632 8.19727 61.1182 7.89648C61.2731 7.59115 61.4964 7.33822 61.7881 7.1377C62.0798 6.93262 62.4307 6.77767 62.8408 6.67285C63.251 6.56803 63.709 6.51562 64.2148 6.51562H65.6846ZM69.9775 5.07324V11H68.7061V3.60352H69.9092L69.9775 5.07324ZM69.7178 7.02148L69.1299 7.00098C69.1344 6.49512 69.2005 6.02799 69.3281 5.59961C69.4557 5.16667 69.6449 4.79069 69.8955 4.47168C70.1462 4.15267 70.4583 3.90658 70.832 3.7334C71.2057 3.55566 71.6387 3.4668 72.1309 3.4668C72.4772 3.4668 72.7962 3.51693 73.0879 3.61719C73.3796 3.71289 73.6325 3.86556 73.8467 4.0752C74.0609 4.28483 74.2272 4.55371 74.3457 4.88184C74.4642 5.20996 74.5234 5.60645 74.5234 6.07129V11H73.2588V6.13281C73.2588 5.74544 73.1927 5.43555 73.0605 5.20312C72.9329 4.9707 72.7507 4.80208 72.5137 4.69727C72.2767 4.58789 71.9987 4.5332 71.6797 4.5332C71.306 4.5332 70.9938 4.59928 70.7432 4.73145C70.4925 4.86361 70.292 5.0459 70.1416 5.27832C69.9912 5.51074 69.8818 5.77734 69.8135 6.07812C69.7497 6.37435 69.7178 6.6888 69.7178 7.02148ZM74.5098 6.32422L73.6621 6.58398C73.6667 6.17839 73.7327 5.78874 73.8604 5.41504C73.9925 5.04134 74.1816 4.70866 74.4277 4.41699C74.6784 4.12533 74.986 3.89518 75.3506 3.72656C75.7152 3.55339 76.1322 3.4668 76.6016 3.4668C76.998 3.4668 77.349 3.51921 77.6543 3.62402C77.9642 3.72884 78.224 3.89062 78.4336 4.10938C78.6478 4.32357 78.8096 4.59928 78.9189 4.93652C79.0283 5.27376 79.083 5.6748 79.083 6.13965V11H77.8115V6.12598C77.8115 5.71126 77.7454 5.38997 77.6133 5.16211C77.4857 4.92969 77.3034 4.7679 77.0664 4.67676C76.834 4.58105 76.556 4.5332 76.2324 4.5332C75.9544 4.5332 75.7083 4.58105 75.4941 4.67676C75.2799 4.77246 75.0999 4.90462 74.9541 5.07324C74.8083 5.2373 74.6966 5.42643 74.6191 5.64062C74.5462 5.85482 74.5098 6.08268 74.5098 6.32422ZM90.6973 9.92676V11H85.7207V9.92676H90.6973ZM85.9805 1.04688V11H84.6611V1.04688H85.9805ZM95.0859 11.1367C94.571 11.1367 94.1038 11.0501 93.6846 10.877C93.2699 10.6992 92.9121 10.4508 92.6113 10.1318C92.3151 9.81283 92.0872 9.43457 91.9277 8.99707C91.7682 8.55957 91.6885 8.08105 91.6885 7.56152V7.27441C91.6885 6.67285 91.7773 6.13737 91.9551 5.66797C92.1328 5.19401 92.3743 4.79297 92.6797 4.46484C92.985 4.13672 93.3314 3.88835 93.7188 3.71973C94.1061 3.55111 94.5072 3.4668 94.9219 3.4668C95.4505 3.4668 95.9062 3.55794 96.2891 3.74023C96.6764 3.92253 96.9932 4.17773 97.2393 4.50586C97.4854 4.82943 97.6676 5.21224 97.7861 5.6543C97.9046 6.0918 97.9639 6.57031 97.9639 7.08984V7.65723H92.4404V6.625H96.6992V6.5293C96.681 6.20117 96.6126 5.88216 96.4941 5.57227C96.3802 5.26237 96.1979 5.00716 95.9473 4.80664C95.6966 4.60612 95.3548 4.50586 94.9219 4.50586C94.6348 4.50586 94.3704 4.56738 94.1289 4.69043C93.8874 4.80892 93.68 4.98665 93.5068 5.22363C93.3337 5.46061 93.1992 5.75 93.1035 6.0918C93.0078 6.43359 92.96 6.8278 92.96 7.27441V7.56152C92.96 7.91243 93.0078 8.24284 93.1035 8.55273C93.2038 8.85807 93.3473 9.12695 93.5342 9.35938C93.7256 9.5918 93.9557 9.77409 94.2246 9.90625C94.498 10.0384 94.8079 10.1045 95.1543 10.1045C95.6009 10.1045 95.9792 10.0133 96.2891 9.83105C96.599 9.64876 96.8701 9.40495 97.1025 9.09961L97.8682 9.70801C97.7087 9.94954 97.5059 10.1797 97.2598 10.3984C97.0137 10.6172 96.7106 10.7949 96.3506 10.9316C95.9951 11.0684 95.5736 11.1367 95.0859 11.1367ZM103.802 9.73535V5.92773C103.802 5.63607 103.743 5.38314 103.624 5.16895C103.51 4.9502 103.337 4.78158 103.104 4.66309C102.872 4.5446 102.585 4.48535 102.243 4.48535C101.924 4.48535 101.644 4.54004 101.402 4.64941C101.165 4.75879 100.979 4.90234 100.842 5.08008C100.71 5.25781 100.644 5.44922 100.644 5.6543H99.3789C99.3789 5.38997 99.4473 5.12793 99.584 4.86816C99.7207 4.6084 99.9167 4.3737 100.172 4.16406C100.432 3.94987 100.742 3.78125 101.102 3.6582C101.466 3.5306 101.872 3.4668 102.318 3.4668C102.856 3.4668 103.33 3.55794 103.74 3.74023C104.155 3.92253 104.479 4.19824 104.711 4.56738C104.948 4.93197 105.066 5.38997 105.066 5.94141V9.38672C105.066 9.63281 105.087 9.89486 105.128 10.1729C105.174 10.4508 105.24 10.6901 105.326 10.8906V11H104.007C103.943 10.8542 103.893 10.6605 103.856 10.4189C103.82 10.1729 103.802 9.94499 103.802 9.73535ZM104.021 6.51562L104.034 7.4043H102.756C102.396 7.4043 102.075 7.43392 101.792 7.49316C101.509 7.54785 101.272 7.63216 101.081 7.74609C100.89 7.86003 100.744 8.00358 100.644 8.17676C100.543 8.34538 100.493 8.54362 100.493 8.77148C100.493 9.00391 100.546 9.21582 100.65 9.40723C100.755 9.59863 100.912 9.7513 101.122 9.86523C101.336 9.97461 101.598 10.0293 101.908 10.0293C102.296 10.0293 102.637 9.94727 102.934 9.7832C103.23 9.61914 103.465 9.41862 103.638 9.18164C103.815 8.94466 103.911 8.71452 103.925 8.49121L104.465 9.09961C104.433 9.29102 104.346 9.50293 104.205 9.73535C104.064 9.96777 103.875 10.1911 103.638 10.4053C103.405 10.6149 103.127 10.7904 102.804 10.9316C102.485 11.0684 102.125 11.1367 101.724 11.1367C101.222 11.1367 100.783 11.0387 100.404 10.8428C100.031 10.6468 99.7389 10.3848 99.5293 10.0566C99.3242 9.72396 99.2217 9.35254 99.2217 8.94238C99.2217 8.5459 99.2992 8.19727 99.4541 7.89648C99.609 7.59115 99.8324 7.33822 100.124 7.1377C100.416 6.93262 100.767 6.77767 101.177 6.67285C101.587 6.56803 102.045 6.51562 102.551 6.51562H104.021ZM111.718 9.56445V0.5H112.989V11H111.827L111.718 9.56445ZM106.741 7.38379V7.24023C106.741 6.67513 106.81 6.16243 106.946 5.70215C107.088 5.2373 107.286 4.83854 107.541 4.50586C107.801 4.17318 108.108 3.91797 108.464 3.74023C108.824 3.55794 109.225 3.4668 109.667 3.4668C110.132 3.4668 110.537 3.54883 110.884 3.71289C111.235 3.8724 111.531 4.1071 111.772 4.41699C112.019 4.72233 112.212 5.09147 112.354 5.52441C112.495 5.95736 112.593 6.44727 112.647 6.99414V7.62305C112.597 8.16536 112.499 8.65299 112.354 9.08594C112.212 9.51888 112.019 9.88802 111.772 10.1934C111.531 10.4987 111.235 10.7334 110.884 10.8975C110.533 11.057 110.123 11.1367 109.653 11.1367C109.22 11.1367 108.824 11.0433 108.464 10.8564C108.108 10.6696 107.801 10.4076 107.541 10.0703C107.286 9.73307 107.088 9.33659 106.946 8.88086C106.81 8.42057 106.741 7.92155 106.741 7.38379ZM108.013 7.24023V7.38379C108.013 7.75293 108.049 8.09928 108.122 8.42285C108.2 8.74642 108.318 9.03125 108.478 9.27734C108.637 9.52344 108.84 9.71712 109.086 9.8584C109.332 9.99512 109.626 10.0635 109.968 10.0635C110.387 10.0635 110.731 9.97461 111 9.79688C111.273 9.61914 111.492 9.38444 111.656 9.09277C111.82 8.80111 111.948 8.48438 112.039 8.14258V6.49512C111.984 6.24447 111.905 6.00293 111.8 5.77051C111.7 5.53353 111.567 5.32389 111.403 5.1416C111.244 4.95475 111.046 4.80664 110.809 4.69727C110.576 4.58789 110.3 4.5332 109.981 4.5332C109.635 4.5332 109.337 4.60612 109.086 4.75195C108.84 4.89323 108.637 5.08919 108.478 5.33984C108.318 5.58594 108.2 5.87305 108.122 6.20117C108.049 6.52474 108.013 6.87109 108.013 7.24023ZM121.903 7.74609H119.477L119.463 6.73438H121.445C121.837 6.73438 122.163 6.69564 122.423 6.61816C122.687 6.54069 122.885 6.42448 123.018 6.26953C123.15 6.11458 123.216 5.92318 123.216 5.69531C123.216 5.51758 123.177 5.36263 123.1 5.23047C123.027 5.09375 122.915 4.9821 122.765 4.89551C122.614 4.80436 122.427 4.73828 122.204 4.69727C121.985 4.65169 121.728 4.62891 121.432 4.62891H119.812V11H118.547V3.60352H121.432C121.901 3.60352 122.323 3.64453 122.696 3.72656C123.075 3.80859 123.396 3.93392 123.66 4.10254C123.929 4.2666 124.134 4.47624 124.275 4.73145C124.417 4.98665 124.487 5.28743 124.487 5.63379C124.487 5.8571 124.442 6.06901 124.351 6.26953C124.259 6.47005 124.125 6.64779 123.947 6.80273C123.77 6.95768 123.551 7.08529 123.291 7.18555C123.031 7.28125 122.733 7.34277 122.396 7.37012L121.903 7.74609ZM121.903 11H119.019L119.647 9.97461H121.903C122.254 9.97461 122.546 9.93132 122.778 9.84473C123.011 9.75358 123.184 9.62598 123.298 9.46191C123.416 9.29329 123.476 9.09277 123.476 8.86035C123.476 8.62793 123.416 8.42969 123.298 8.26562C123.184 8.09701 123.011 7.9694 122.778 7.88281C122.546 7.79167 122.254 7.74609 121.903 7.74609H119.982L119.996 6.73438H122.396L122.854 7.11719C123.259 7.14909 123.603 7.24935 123.886 7.41797C124.168 7.58659 124.382 7.80078 124.528 8.06055C124.674 8.31576 124.747 8.59375 124.747 8.89453C124.747 9.24089 124.681 9.54622 124.549 9.81055C124.421 10.0749 124.234 10.2959 123.988 10.4736C123.742 10.6468 123.444 10.779 123.093 10.8701C122.742 10.9567 122.345 11 121.903 11ZM133.319 9.48926L136.252 1.04688H137.681L133.996 11H132.978L133.319 9.48926ZM130.578 1.04688L133.483 9.48926L133.846 11H132.827L129.149 1.04688H130.578ZM139.438 1.04688H140.716L143.977 9.16113L147.23 1.04688H148.516L144.469 11H143.471L139.438 1.04688ZM139.021 1.04688H140.148L140.333 7.11719V11H139.021V1.04688ZM147.798 1.04688H148.926V11H147.613V7.11719L147.798 1.04688ZM152.925 9.6875L154.825 3.60352H155.659L155.495 4.81348L153.561 11H152.747L152.925 9.6875ZM151.646 3.60352L153.267 9.75586L153.383 11H152.528L150.382 3.60352H151.646ZM157.478 9.70801L159.022 3.60352H160.28L158.134 11H157.286L157.478 9.70801ZM155.844 3.60352L157.703 9.58496L157.915 11H157.108L155.119 4.7998L154.955 3.60352H155.844ZM165.94 9.73535V5.92773C165.94 5.63607 165.881 5.38314 165.763 5.16895C165.649 4.9502 165.476 4.78158 165.243 4.66309C165.011 4.5446 164.724 4.48535 164.382 4.48535C164.063 4.48535 163.783 4.54004 163.541 4.64941C163.304 4.75879 163.117 4.90234 162.98 5.08008C162.848 5.25781 162.782 5.44922 162.782 5.6543H161.518C161.518 5.38997 161.586 5.12793 161.723 4.86816C161.859 4.6084 162.055 4.3737 162.311 4.16406C162.57 3.94987 162.88 3.78125 163.24 3.6582C163.605 3.5306 164.01 3.4668 164.457 3.4668C164.995 3.4668 165.469 3.55794 165.879 3.74023C166.294 3.92253 166.617 4.19824 166.85 4.56738C167.087 4.93197 167.205 5.38997 167.205 5.94141V9.38672C167.205 9.63281 167.226 9.89486 167.267 10.1729C167.312 10.4508 167.378 10.6901 167.465 10.8906V11H166.146C166.082 10.8542 166.032 10.6605 165.995 10.4189C165.959 10.1729 165.94 9.94499 165.94 9.73535ZM166.159 6.51562L166.173 7.4043H164.895C164.535 7.4043 164.213 7.43392 163.931 7.49316C163.648 7.54785 163.411 7.63216 163.22 7.74609C163.028 7.86003 162.882 8.00358 162.782 8.17676C162.682 8.34538 162.632 8.54362 162.632 8.77148C162.632 9.00391 162.684 9.21582 162.789 9.40723C162.894 9.59863 163.051 9.7513 163.261 9.86523C163.475 9.97461 163.737 10.0293 164.047 10.0293C164.434 10.0293 164.776 9.94727 165.072 9.7832C165.368 9.61914 165.603 9.41862 165.776 9.18164C165.954 8.94466 166.05 8.71452 166.063 8.49121L166.604 9.09961C166.572 9.29102 166.485 9.50293 166.344 9.73535C166.202 9.96777 166.013 10.1911 165.776 10.4053C165.544 10.6149 165.266 10.7904 164.942 10.9316C164.623 11.0684 164.263 11.1367 163.862 11.1367C163.361 11.1367 162.921 11.0387 162.543 10.8428C162.169 10.6468 161.878 10.3848 161.668 10.0566C161.463 9.72396 161.36 9.35254 161.36 8.94238C161.36 8.5459 161.438 8.19727 161.593 7.89648C161.748 7.59115 161.971 7.33822 162.263 7.1377C162.554 6.93262 162.905 6.77767 163.315 6.67285C163.726 6.56803 164.184 6.51562 164.689 6.51562H166.159ZM170.459 4.76562V11H169.194V3.60352H170.425L170.459 4.76562ZM172.77 3.5625L172.763 4.73828C172.658 4.71549 172.558 4.70182 172.462 4.69727C172.371 4.68815 172.266 4.68359 172.147 4.68359C171.856 4.68359 171.598 4.72917 171.375 4.82031C171.152 4.91146 170.963 5.03906 170.808 5.20312C170.653 5.36719 170.53 5.56315 170.438 5.79102C170.352 6.01432 170.295 6.26042 170.268 6.5293L169.912 6.73438C169.912 6.28776 169.955 5.86849 170.042 5.47656C170.133 5.08464 170.272 4.73828 170.459 4.4375C170.646 4.13216 170.883 3.89518 171.17 3.72656C171.462 3.55339 171.808 3.4668 172.209 3.4668C172.3 3.4668 172.405 3.47819 172.523 3.50098C172.642 3.51921 172.724 3.53971 172.77 3.5625ZM176.871 11.1367C176.356 11.1367 175.889 11.0501 175.47 10.877C175.055 10.6992 174.697 10.4508 174.396 10.1318C174.1 9.81283 173.872 9.43457 173.713 8.99707C173.553 8.55957 173.474 8.08105 173.474 7.56152V7.27441C173.474 6.67285 173.562 6.13737 173.74 5.66797C173.918 5.19401 174.16 4.79297 174.465 4.46484C174.77 4.13672 175.117 3.88835 175.504 3.71973C175.891 3.55111 176.292 3.4668 176.707 3.4668C177.236 3.4668 177.691 3.55794 178.074 3.74023C178.462 3.92253 178.778 4.17773 179.024 4.50586C179.271 4.82943 179.453 5.21224 179.571 5.6543C179.69 6.0918 179.749 6.57031 179.749 7.08984V7.65723H174.226V6.625H178.484V6.5293C178.466 6.20117 178.398 5.88216 178.279 5.57227C178.165 5.26237 177.983 5.00716 177.732 4.80664C177.482 4.60612 177.14 4.50586 176.707 4.50586C176.42 4.50586 176.156 4.56738 175.914 4.69043C175.673 4.80892 175.465 4.98665 175.292 5.22363C175.119 5.46061 174.984 5.75 174.889 6.0918C174.793 6.43359 174.745 6.8278 174.745 7.27441V7.56152C174.745 7.91243 174.793 8.24284 174.889 8.55273C174.989 8.85807 175.132 9.12695 175.319 9.35938C175.511 9.5918 175.741 9.77409 176.01 9.90625C176.283 10.0384 176.593 10.1045 176.939 10.1045C177.386 10.1045 177.764 10.0133 178.074 9.83105C178.384 9.64876 178.655 9.40495 178.888 9.09961L179.653 9.70801C179.494 9.94954 179.291 10.1797 179.045 10.3984C178.799 10.6172 178.496 10.7949 178.136 10.9316C177.78 11.0684 177.359 11.1367 176.871 11.1367Z" fill="#050038" fill-opacity="0.6"/>
</svg>
