<svg width="123" height="14" viewBox="0 0 123 14" fill="none" xmlns="http://www.w3.org/2000/svg">
<path d="M3.82617 7.09668H1.16699V6.02344H3.82617C4.34115 6.02344 4.75814 5.94141 5.07715 5.77734C5.39616 5.61328 5.62858 5.38542 5.77441 5.09375C5.9248 4.80208 6 4.4694 6 4.0957C6 3.75391 5.9248 3.43262 5.77441 3.13184C5.62858 2.83105 5.39616 2.58952 5.07715 2.40723C4.75814 2.22038 4.34115 2.12695 3.82617 2.12695H1.47461V11H0.155273V1.04688H3.82617C4.57812 1.04688 5.21387 1.17676 5.7334 1.43652C6.25293 1.69629 6.64714 2.05632 6.91602 2.5166C7.1849 2.97233 7.31934 3.49414 7.31934 4.08203C7.31934 4.72005 7.1849 5.26465 6.91602 5.71582C6.64714 6.16699 6.25293 6.51107 5.7334 6.74805C5.21387 6.98047 4.57812 7.09668 3.82617 7.09668ZM8.36523 7.38379V7.22656C8.36523 6.69336 8.44271 6.19889 8.59766 5.74316C8.7526 5.28288 8.97591 4.88411 9.26758 4.54688C9.55924 4.20508 9.91243 3.94076 10.3271 3.75391C10.7419 3.5625 11.2067 3.4668 11.7217 3.4668C12.2412 3.4668 12.7083 3.5625 13.123 3.75391C13.5423 3.94076 13.8978 4.20508 14.1895 4.54688C14.4857 4.88411 14.7113 5.28288 14.8662 5.74316C15.0212 6.19889 15.0986 6.69336 15.0986 7.22656V7.38379C15.0986 7.91699 15.0212 8.41146 14.8662 8.86719C14.7113 9.32292 14.4857 9.72168 14.1895 10.0635C13.8978 10.4007 13.5446 10.665 13.1299 10.8564C12.7197 11.0433 12.2549 11.1367 11.7354 11.1367C11.2158 11.1367 10.7487 11.0433 10.334 10.8564C9.91927 10.665 9.5638 10.4007 9.26758 10.0635C8.97591 9.72168 8.7526 9.32292 8.59766 8.86719C8.44271 8.41146 8.36523 7.91699 8.36523 7.38379ZM9.62988 7.22656V7.38379C9.62988 7.75293 9.67318 8.10156 9.75977 8.42969C9.84635 8.75326 9.97624 9.04036 10.1494 9.29102C10.3271 9.54167 10.5482 9.73991 10.8125 9.88574C11.0768 10.027 11.3844 10.0977 11.7354 10.0977C12.0817 10.0977 12.3848 10.027 12.6445 9.88574C12.9089 9.73991 13.1276 9.54167 13.3008 9.29102C13.474 9.04036 13.6038 8.75326 13.6904 8.42969C13.7816 8.10156 13.8271 7.75293 13.8271 7.38379V7.22656C13.8271 6.86198 13.7816 6.5179 13.6904 6.19434C13.6038 5.86621 13.4717 5.57682 13.2939 5.32617C13.1208 5.07096 12.902 4.87044 12.6377 4.72461C12.3779 4.57878 12.0726 4.50586 11.7217 4.50586C11.3753 4.50586 11.07 4.57878 10.8057 4.72461C10.5459 4.87044 10.3271 5.07096 10.1494 5.32617C9.97624 5.57682 9.84635 5.86621 9.75977 6.19434C9.67318 6.5179 9.62988 6.86198 9.62988 7.22656ZM18.0586 3.60352V11H16.7939V3.60352H18.0586ZM22.9121 3.60352L19.4053 7.8418H17.6348L17.4434 6.73438H18.8926L21.374 3.60352H22.9121ZM21.5518 11L18.8311 7.65039L19.6445 6.73438L23.1582 11H21.5518ZM27.1094 10.0977C27.4102 10.0977 27.6882 10.0361 27.9434 9.91309C28.1986 9.79004 28.4082 9.62142 28.5723 9.40723C28.7363 9.18848 28.8298 8.9401 28.8525 8.66211H30.0557C30.0329 9.09961 29.8848 9.50749 29.6113 9.88574C29.3424 10.2594 28.9893 10.5625 28.5518 10.7949C28.1143 11.0228 27.6335 11.1367 27.1094 11.1367C26.5534 11.1367 26.068 11.0387 25.6533 10.8428C25.2432 10.6468 24.9014 10.3779 24.6279 10.0361C24.359 9.69434 24.1562 9.30241 24.0195 8.86035C23.8874 8.41374 23.8213 7.94206 23.8213 7.44531V7.1582C23.8213 6.66146 23.8874 6.19206 24.0195 5.75C24.1562 5.30339 24.359 4.90918 24.6279 4.56738C24.9014 4.22559 25.2432 3.95671 25.6533 3.76074C26.068 3.56478 26.5534 3.4668 27.1094 3.4668C27.6882 3.4668 28.194 3.58529 28.627 3.82227C29.0599 4.05469 29.3994 4.3737 29.6455 4.7793C29.8962 5.18034 30.0329 5.63607 30.0557 6.14648H28.8525C28.8298 5.84115 28.7432 5.56543 28.5928 5.31934C28.4469 5.07324 28.2464 4.87728 27.9912 4.73145C27.7406 4.58105 27.4466 4.50586 27.1094 4.50586C26.722 4.50586 26.3962 4.58333 26.1318 4.73828C25.8721 4.88867 25.6647 5.09375 25.5098 5.35352C25.3594 5.60872 25.25 5.89355 25.1816 6.20801C25.1178 6.5179 25.0859 6.83464 25.0859 7.1582V7.44531C25.0859 7.76888 25.1178 8.08789 25.1816 8.40234C25.2454 8.7168 25.3525 9.00163 25.5029 9.25684C25.6579 9.51204 25.8652 9.71712 26.125 9.87207C26.3893 10.0225 26.7174 10.0977 27.1094 10.0977ZM35.8389 9.73535V5.92773C35.8389 5.63607 35.7796 5.38314 35.6611 5.16895C35.5472 4.9502 35.374 4.78158 35.1416 4.66309C34.9092 4.5446 34.6221 4.48535 34.2803 4.48535C33.9613 4.48535 33.681 4.54004 33.4395 4.64941C33.2025 4.75879 33.0156 4.90234 32.8789 5.08008C32.7467 5.25781 32.6807 5.44922 32.6807 5.6543H31.416C31.416 5.38997 31.4844 5.12793 31.6211 4.86816C31.7578 4.6084 31.9538 4.3737 32.209 4.16406C32.4688 3.94987 32.7786 3.78125 33.1387 3.6582C33.5033 3.5306 33.9089 3.4668 34.3555 3.4668C34.8932 3.4668 35.3672 3.55794 35.7773 3.74023C36.1921 3.92253 36.5156 4.19824 36.748 4.56738C36.985 4.93197 37.1035 5.38997 37.1035 5.94141V9.38672C37.1035 9.63281 37.124 9.89486 37.165 10.1729C37.2106 10.4508 37.2767 10.6901 37.3633 10.8906V11H36.0439C35.9801 10.8542 35.93 10.6605 35.8936 10.4189C35.8571 10.1729 35.8389 9.94499 35.8389 9.73535ZM36.0576 6.51562L36.0713 7.4043H34.793C34.4329 7.4043 34.1117 7.43392 33.8291 7.49316C33.5465 7.54785 33.3096 7.63216 33.1182 7.74609C32.9268 7.86003 32.7809 8.00358 32.6807 8.17676C32.5804 8.34538 32.5303 8.54362 32.5303 8.77148C32.5303 9.00391 32.5827 9.21582 32.6875 9.40723C32.7923 9.59863 32.9495 9.7513 33.1592 9.86523C33.3734 9.97461 33.6354 10.0293 33.9453 10.0293C34.3327 10.0293 34.6745 9.94727 34.9707 9.7832C35.2669 9.61914 35.5016 9.41862 35.6748 9.18164C35.8525 8.94466 35.9482 8.71452 35.9619 8.49121L36.502 9.09961C36.4701 9.29102 36.3835 9.50293 36.2422 9.73535C36.1009 9.96777 35.9118 10.1911 35.6748 10.4053C35.4424 10.6149 35.1644 10.7904 34.8408 10.9316C34.5218 11.0684 34.1618 11.1367 33.7607 11.1367C33.2594 11.1367 32.8197 11.0387 32.4414 10.8428C32.0677 10.6468 31.776 10.3848 31.5664 10.0566C31.3613 9.72396 31.2588 9.35254 31.2588 8.94238C31.2588 8.5459 31.3363 8.19727 31.4912 7.89648C31.6462 7.59115 31.8695 7.33822 32.1611 7.1377C32.4528 6.93262 32.8037 6.77767 33.2139 6.67285C33.624 6.56803 34.082 6.51562 34.5879 6.51562H36.0576ZM44.1104 6.80957V7.83496H40.2002V6.80957H44.1104ZM40.4668 3.60352V11H39.2021V3.60352H40.4668ZM45.1357 3.60352V11H43.8643V3.60352H45.1357ZM52.1904 6.80957V7.83496H48.2803V6.80957H52.1904ZM48.5469 3.60352V11H47.2822V3.60352H48.5469ZM53.2158 3.60352V11H51.9443V3.60352H53.2158ZM59.6143 9.73535V5.92773C59.6143 5.63607 59.555 5.38314 59.4365 5.16895C59.3226 4.9502 59.1494 4.78158 58.917 4.66309C58.6846 4.5446 58.3975 4.48535 58.0557 4.48535C57.7367 4.48535 57.4564 4.54004 57.2148 4.64941C56.9779 4.75879 56.791 4.90234 56.6543 5.08008C56.5221 5.25781 56.4561 5.44922 56.4561 5.6543H55.1914C55.1914 5.38997 55.2598 5.12793 55.3965 4.86816C55.5332 4.6084 55.7292 4.3737 55.9844 4.16406C56.2441 3.94987 56.554 3.78125 56.9141 3.6582C57.2786 3.5306 57.6842 3.4668 58.1309 3.4668C58.6686 3.4668 59.1426 3.55794 59.5527 3.74023C59.9674 3.92253 60.291 4.19824 60.5234 4.56738C60.7604 4.93197 60.8789 5.38997 60.8789 5.94141V9.38672C60.8789 9.63281 60.8994 9.89486 60.9404 10.1729C60.986 10.4508 61.0521 10.6901 61.1387 10.8906V11H59.8193C59.7555 10.8542 59.7054 10.6605 59.6689 10.4189C59.6325 10.1729 59.6143 9.94499 59.6143 9.73535ZM59.833 6.51562L59.8467 7.4043H58.5684C58.2083 7.4043 57.887 7.43392 57.6045 7.49316C57.3219 7.54785 57.085 7.63216 56.8936 7.74609C56.7021 7.86003 56.5563 8.00358 56.4561 8.17676C56.3558 8.34538 56.3057 8.54362 56.3057 8.77148C56.3057 9.00391 56.3581 9.21582 56.4629 9.40723C56.5677 9.59863 56.7249 9.7513 56.9346 9.86523C57.1488 9.97461 57.4108 10.0293 57.7207 10.0293C58.1081 10.0293 58.4499 9.94727 58.7461 9.7832C59.0423 9.61914 59.277 9.41862 59.4502 9.18164C59.6279 8.94466 59.7236 8.71452 59.7373 8.49121L60.2773 9.09961C60.2454 9.29102 60.1589 9.50293 60.0176 9.73535C59.8763 9.96777 59.6872 10.1911 59.4502 10.4053C59.2178 10.6149 58.9398 10.7904 58.6162 10.9316C58.2972 11.0684 57.9372 11.1367 57.5361 11.1367C57.0348 11.1367 56.5951 11.0387 56.2168 10.8428C55.8431 10.6468 55.5514 10.3848 55.3418 10.0566C55.1367 9.72396 55.0342 9.35254 55.0342 8.94238C55.0342 8.5459 55.1117 8.19727 55.2666 7.89648C55.4215 7.59115 55.6449 7.33822 55.9365 7.1377C56.2282 6.93262 56.5791 6.77767 56.9893 6.67285C57.3994 6.56803 57.8574 6.51562 58.3633 6.51562H59.833ZM66.9492 1.04688H68.2275L71.4883 9.16113L74.7422 1.04688H76.0273L71.9805 11H70.9824L66.9492 1.04688ZM66.5322 1.04688H67.6602L67.8447 7.11719V11H66.5322V1.04688ZM75.3096 1.04688H76.4375V11H75.125V7.11719L75.3096 1.04688ZM80.6416 10.2344L82.6992 3.60352H84.0527L81.0859 12.1416C81.0176 12.3239 80.9264 12.5199 80.8125 12.7295C80.7031 12.9437 80.5618 13.1465 80.3887 13.3379C80.2155 13.5293 80.0059 13.6842 79.7598 13.8027C79.5182 13.9258 79.2288 13.9873 78.8916 13.9873C78.7913 13.9873 78.6637 13.9736 78.5088 13.9463C78.3538 13.9189 78.2445 13.8962 78.1807 13.8779L78.1738 12.8525C78.2103 12.8571 78.2673 12.8617 78.3447 12.8662C78.4268 12.8753 78.4837 12.8799 78.5156 12.8799C78.8027 12.8799 79.0465 12.8411 79.2471 12.7637C79.4476 12.6908 79.6162 12.5654 79.7529 12.3877C79.8942 12.2145 80.015 11.9753 80.1152 11.6699L80.6416 10.2344ZM79.1309 3.60352L81.0518 9.3457L81.3799 10.6787L80.4707 11.1436L77.75 3.60352H79.1309ZM88.0586 10.0977C88.3594 10.0977 88.6374 10.0361 88.8926 9.91309C89.1478 9.79004 89.3574 9.62142 89.5215 9.40723C89.6855 9.18848 89.779 8.9401 89.8018 8.66211H91.0049C90.9821 9.09961 90.834 9.50749 90.5605 9.88574C90.2917 10.2594 89.9385 10.5625 89.501 10.7949C89.0635 11.0228 88.5827 11.1367 88.0586 11.1367C87.5026 11.1367 87.0173 11.0387 86.6025 10.8428C86.1924 10.6468 85.8506 10.3779 85.5771 10.0361C85.3083 9.69434 85.1055 9.30241 84.9688 8.86035C84.8366 8.41374 84.7705 7.94206 84.7705 7.44531V7.1582C84.7705 6.66146 84.8366 6.19206 84.9688 5.75C85.1055 5.30339 85.3083 4.90918 85.5771 4.56738C85.8506 4.22559 86.1924 3.95671 86.6025 3.76074C87.0173 3.56478 87.5026 3.4668 88.0586 3.4668C88.6374 3.4668 89.1432 3.58529 89.5762 3.82227C90.0091 4.05469 90.3486 4.3737 90.5947 4.7793C90.8454 5.18034 90.9821 5.63607 91.0049 6.14648H89.8018C89.779 5.84115 89.6924 5.56543 89.542 5.31934C89.3962 5.07324 89.1956 4.87728 88.9404 4.73145C88.6898 4.58105 88.3958 4.50586 88.0586 4.50586C87.6712 4.50586 87.3454 4.58333 87.0811 4.73828C86.8213 4.88867 86.6139 5.09375 86.459 5.35352C86.3086 5.60872 86.1992 5.89355 86.1309 6.20801C86.0671 6.5179 86.0352 6.83464 86.0352 7.1582V7.44531C86.0352 7.76888 86.0671 8.08789 86.1309 8.40234C86.1947 8.7168 86.3018 9.00163 86.4521 9.25684C86.6071 9.51204 86.8145 9.71712 87.0742 9.87207C87.3385 10.0225 87.6667 10.0977 88.0586 10.0977ZM95.4414 3.60352V11H94.1699V3.60352H95.4414ZM97.9229 3.60352V4.62891H91.7363V3.60352H97.9229ZM103.419 9.73535V5.92773C103.419 5.63607 103.36 5.38314 103.241 5.16895C103.127 4.9502 102.954 4.78158 102.722 4.66309C102.489 4.5446 102.202 4.48535 101.86 4.48535C101.541 4.48535 101.261 4.54004 101.02 4.64941C100.783 4.75879 100.596 4.90234 100.459 5.08008C100.327 5.25781 100.261 5.44922 100.261 5.6543H98.9961C98.9961 5.38997 99.0645 5.12793 99.2012 4.86816C99.3379 4.6084 99.5339 4.3737 99.7891 4.16406C100.049 3.94987 100.359 3.78125 100.719 3.6582C101.083 3.5306 101.489 3.4668 101.936 3.4668C102.473 3.4668 102.947 3.55794 103.357 3.74023C103.772 3.92253 104.096 4.19824 104.328 4.56738C104.565 4.93197 104.684 5.38997 104.684 5.94141V9.38672C104.684 9.63281 104.704 9.89486 104.745 10.1729C104.791 10.4508 104.857 10.6901 104.943 10.8906V11H103.624C103.56 10.8542 103.51 10.6605 103.474 10.4189C103.437 10.1729 103.419 9.94499 103.419 9.73535ZM103.638 6.51562L103.651 7.4043H102.373C102.013 7.4043 101.692 7.43392 101.409 7.49316C101.127 7.54785 100.89 7.63216 100.698 7.74609C100.507 7.86003 100.361 8.00358 100.261 8.17676C100.16 8.34538 100.11 8.54362 100.11 8.77148C100.11 9.00391 100.163 9.21582 100.268 9.40723C100.372 9.59863 100.53 9.7513 100.739 9.86523C100.953 9.97461 101.215 10.0293 101.525 10.0293C101.913 10.0293 102.255 9.94727 102.551 9.7832C102.847 9.61914 103.082 9.41862 103.255 9.18164C103.433 8.94466 103.528 8.71452 103.542 8.49121L104.082 9.09961C104.05 9.29102 103.964 9.50293 103.822 9.73535C103.681 9.96777 103.492 10.1911 103.255 10.4053C103.022 10.6149 102.744 10.7904 102.421 10.9316C102.102 11.0684 101.742 11.1367 101.341 11.1367C100.84 11.1367 100.4 11.0387 100.021 10.8428C99.6478 10.6468 99.3561 10.3848 99.1465 10.0566C98.9414 9.72396 98.8389 9.35254 98.8389 8.94238C98.8389 8.5459 98.9163 8.19727 99.0713 7.89648C99.2262 7.59115 99.4495 7.33822 99.7412 7.1377C100.033 6.93262 100.384 6.77767 100.794 6.67285C101.204 6.56803 101.662 6.51562 102.168 6.51562H103.638ZM115.177 7.43164V7.5752C115.177 8.09473 115.12 8.57324 115.006 9.01074C114.892 9.44368 114.721 9.81966 114.493 10.1387C114.27 10.4577 113.992 10.7061 113.659 10.8838C113.326 11.057 112.941 11.1436 112.504 11.1436C112.144 11.1436 111.827 11.0957 111.554 11C111.28 10.8997 111.048 10.7562 110.856 10.5693C110.67 10.3825 110.519 10.1592 110.405 9.89941C110.296 9.63509 110.221 9.33887 110.18 9.01074V5.72949C110.221 5.37858 110.296 5.06413 110.405 4.78613C110.519 4.50814 110.67 4.27116 110.856 4.0752C111.048 3.87923 111.278 3.72884 111.547 3.62402C111.816 3.51921 112.13 3.4668 112.49 3.4668C112.846 3.4668 113.165 3.5306 113.447 3.6582C113.734 3.78125 113.985 3.95898 114.199 4.19141C114.418 4.42383 114.598 4.7041 114.739 5.03223C114.885 5.35579 114.994 5.72038 115.067 6.12598C115.14 6.53158 115.177 6.9668 115.177 7.43164ZM113.912 7.5752V7.43164C113.912 7.11263 113.889 6.80957 113.844 6.52246C113.803 6.23079 113.737 5.96419 113.646 5.72266C113.559 5.47656 113.445 5.26237 113.304 5.08008C113.162 4.89779 112.992 4.75651 112.791 4.65625C112.595 4.55599 112.369 4.50586 112.114 4.50586C111.841 4.50586 111.613 4.54004 111.431 4.6084C111.253 4.67676 111.114 4.7679 111.014 4.88184C110.913 4.99121 110.84 5.10742 110.795 5.23047V9.5166C110.85 9.61686 110.929 9.71257 111.034 9.80371C111.139 9.8903 111.28 9.96322 111.458 10.0225C111.636 10.0771 111.859 10.1045 112.128 10.1045C112.447 10.1045 112.718 10.0407 112.941 9.91309C113.169 9.78092 113.354 9.59863 113.495 9.36621C113.641 9.13379 113.746 8.86491 113.81 8.55957C113.878 8.25423 113.912 7.92611 113.912 7.5752ZM106.393 7.5752V7.43164C106.393 6.9668 106.429 6.53158 106.502 6.12598C106.575 5.72038 106.684 5.35579 106.83 5.03223C106.976 4.7041 107.156 4.42383 107.37 4.19141C107.589 3.95898 107.84 3.78125 108.122 3.6582C108.409 3.5306 108.73 3.4668 109.086 3.4668C109.437 3.4668 109.742 3.51921 110.002 3.62402C110.266 3.72884 110.49 3.87923 110.672 4.0752C110.854 4.27116 111 4.50814 111.109 4.78613C111.219 5.06413 111.296 5.37858 111.342 5.72949V8.88086C111.301 9.22721 111.226 9.53939 111.116 9.81738C111.007 10.0954 110.861 10.3346 110.679 10.5352C110.496 10.7311 110.271 10.8815 110.002 10.9863C109.738 11.0911 109.428 11.1436 109.072 11.1436C108.635 11.1436 108.25 11.057 107.917 10.8838C107.584 10.7061 107.304 10.4577 107.076 10.1387C106.853 9.81966 106.682 9.44368 106.563 9.01074C106.45 8.57324 106.393 8.09473 106.393 7.5752ZM107.664 7.43164V7.5752C107.664 7.92611 107.694 8.25423 107.753 8.55957C107.817 8.86491 107.915 9.13379 108.047 9.36621C108.184 9.59863 108.361 9.78092 108.58 9.91309C108.799 10.0407 109.068 10.1045 109.387 10.1045C109.66 10.1045 109.886 10.0703 110.063 10.002C110.241 9.93359 110.382 9.84473 110.487 9.73535C110.592 9.62598 110.672 9.51204 110.727 9.39355V5.23047C110.681 5.10742 110.606 4.99121 110.501 4.88184C110.401 4.7679 110.262 4.67676 110.084 4.6084C109.906 4.54004 109.678 4.50586 109.4 4.50586C109.081 4.50586 108.81 4.58333 108.587 4.73828C108.364 4.89323 108.184 5.10514 108.047 5.37402C107.915 5.6429 107.817 5.95508 107.753 6.31055C107.694 6.66146 107.664 7.03516 107.664 7.43164ZM110.098 13.8438V0.5H111.369V13.8438H110.098ZM121.192 9.73535V5.92773C121.192 5.63607 121.133 5.38314 121.015 5.16895C120.901 4.9502 120.728 4.78158 120.495 4.66309C120.263 4.5446 119.976 4.48535 119.634 4.48535C119.315 4.48535 119.035 4.54004 118.793 4.64941C118.556 4.75879 118.369 4.90234 118.232 5.08008C118.1 5.25781 118.034 5.44922 118.034 5.6543H116.77C116.77 5.38997 116.838 5.12793 116.975 4.86816C117.111 4.6084 117.307 4.3737 117.562 4.16406C117.822 3.94987 118.132 3.78125 118.492 3.6582C118.857 3.5306 119.262 3.4668 119.709 3.4668C120.247 3.4668 120.721 3.55794 121.131 3.74023C121.546 3.92253 121.869 4.19824 122.102 4.56738C122.339 4.93197 122.457 5.38997 122.457 5.94141V9.38672C122.457 9.63281 122.478 9.89486 122.519 10.1729C122.564 10.4508 122.63 10.6901 122.717 10.8906V11H121.397C121.334 10.8542 121.284 10.6605 121.247 10.4189C121.211 10.1729 121.192 9.94499 121.192 9.73535ZM121.411 6.51562L121.425 7.4043H120.146C119.786 7.4043 119.465 7.43392 119.183 7.49316C118.9 7.54785 118.663 7.63216 118.472 7.74609C118.28 7.86003 118.134 8.00358 118.034 8.17676C117.934 8.34538 117.884 8.54362 117.884 8.77148C117.884 9.00391 117.936 9.21582 118.041 9.40723C118.146 9.59863 118.303 9.7513 118.513 9.86523C118.727 9.97461 118.989 10.0293 119.299 10.0293C119.686 10.0293 120.028 9.94727 120.324 9.7832C120.62 9.61914 120.855 9.41862 121.028 9.18164C121.206 8.94466 121.302 8.71452 121.315 8.49121L121.855 9.09961C121.824 9.29102 121.737 9.50293 121.596 9.73535C121.454 9.96777 121.265 10.1911 121.028 10.4053C120.796 10.6149 120.518 10.7904 120.194 10.9316C119.875 11.0684 119.515 11.1367 119.114 11.1367C118.613 11.1367 118.173 11.0387 117.795 10.8428C117.421 10.6468 117.13 10.3848 116.92 10.0566C116.715 9.72396 116.612 9.35254 116.612 8.94238C116.612 8.5459 116.69 8.19727 116.845 7.89648C117 7.59115 117.223 7.33822 117.515 7.1377C117.806 6.93262 118.157 6.77767 118.567 6.67285C118.978 6.56803 119.436 6.51562 119.941 6.51562H121.411Z" fill="#050038" fill-opacity="0.6"/>
</svg>
