<svg width="77" height="14" viewBox="0 0 77 14" fill="none" xmlns="http://www.w3.org/2000/svg">
<path d="M7.55371 1.04688V2.12695H3.00098V1.04688H7.55371ZM8.68848 1.04688V11H7.36914V1.04688H8.68848ZM2.5498 1.04688H3.8623L3.63672 5.9209C3.60482 6.62272 3.55013 7.24935 3.47266 7.80078C3.39974 8.34766 3.29492 8.82389 3.1582 9.22949C3.02148 9.63053 2.84375 9.96322 2.625 10.2275C2.40625 10.4873 2.13737 10.681 1.81836 10.8086C1.50391 10.9362 1.12565 11 0.683594 11H0.328125V9.92676L0.601562 9.90625C0.856771 9.88802 1.07552 9.83105 1.25781 9.73535C1.44466 9.63509 1.60189 9.4847 1.72949 9.28418C1.86165 9.08366 1.96875 8.82389 2.05078 8.50488C2.13281 8.18587 2.19661 7.79622 2.24219 7.33594C2.29232 6.87109 2.33105 6.32878 2.3584 5.70898L2.5498 1.04688ZM10.541 7.38379V7.22656C10.541 6.69336 10.6185 6.19889 10.7734 5.74316C10.9284 5.28288 11.1517 4.88411 11.4434 4.54688C11.735 4.20508 12.0882 3.94076 12.5029 3.75391C12.9176 3.5625 13.3825 3.4668 13.8975 3.4668C14.417 3.4668 14.8841 3.5625 15.2988 3.75391C15.7181 3.94076 16.0736 4.20508 16.3652 4.54688C16.6615 4.88411 16.887 5.28288 17.042 5.74316C17.1969 6.19889 17.2744 6.69336 17.2744 7.22656V7.38379C17.2744 7.91699 17.1969 8.41146 17.042 8.86719C16.887 9.32292 16.6615 9.72168 16.3652 10.0635C16.0736 10.4007 15.7204 10.665 15.3057 10.8564C14.8955 11.0433 14.4307 11.1367 13.9111 11.1367C13.3916 11.1367 12.9245 11.0433 12.5098 10.8564C12.0951 10.665 11.7396 10.4007 11.4434 10.0635C11.1517 9.72168 10.9284 9.32292 10.7734 8.86719C10.6185 8.41146 10.541 7.91699 10.541 7.38379ZM11.8057 7.22656V7.38379C11.8057 7.75293 11.849 8.10156 11.9355 8.42969C12.0221 8.75326 12.152 9.04036 12.3252 9.29102C12.5029 9.54167 12.724 9.73991 12.9883 9.88574C13.2526 10.027 13.5602 10.0977 13.9111 10.0977C14.2575 10.0977 14.5605 10.027 14.8203 9.88574C15.0846 9.73991 15.3034 9.54167 15.4766 9.29102C15.6497 9.04036 15.7796 8.75326 15.8662 8.42969C15.9574 8.10156 16.0029 7.75293 16.0029 7.38379V7.22656C16.0029 6.86198 15.9574 6.5179 15.8662 6.19434C15.7796 5.86621 15.6475 5.57682 15.4697 5.32617C15.2965 5.07096 15.0778 4.87044 14.8135 4.72461C14.5537 4.57878 14.2484 4.50586 13.8975 4.50586C13.5511 4.50586 13.2458 4.57878 12.9814 4.72461C12.7217 4.87044 12.5029 5.07096 12.3252 5.32617C12.152 5.57682 12.0221 5.86621 11.9355 6.19434C11.849 6.5179 11.8057 6.86198 11.8057 7.22656ZM20.125 5.02539V13.8438H18.8535V3.60352H20.0156L20.125 5.02539ZM25.1084 7.24023V7.38379C25.1084 7.92155 25.0446 8.42057 24.917 8.88086C24.7894 9.33659 24.6025 9.73307 24.3564 10.0703C24.1149 10.4076 23.8164 10.6696 23.4609 10.8564C23.1055 11.0433 22.6976 11.1367 22.2373 11.1367C21.7679 11.1367 21.3532 11.0592 20.9932 10.9043C20.6331 10.7493 20.3278 10.5238 20.0771 10.2275C19.8265 9.93132 19.626 9.57585 19.4756 9.16113C19.3298 8.74642 19.2295 8.2793 19.1748 7.75977V6.99414C19.2295 6.44727 19.332 5.95736 19.4824 5.52441C19.6328 5.09147 19.8311 4.72233 20.0771 4.41699C20.3278 4.1071 20.6309 3.8724 20.9863 3.71289C21.3418 3.54883 21.752 3.4668 22.2168 3.4668C22.6816 3.4668 23.0941 3.55794 23.4541 3.74023C23.8141 3.91797 24.1172 4.17318 24.3633 4.50586C24.6094 4.83854 24.7939 5.2373 24.917 5.70215C25.0446 6.16243 25.1084 6.67513 25.1084 7.24023ZM23.8369 7.38379V7.24023C23.8369 6.87109 23.7982 6.52474 23.7207 6.20117C23.6432 5.87305 23.5225 5.58594 23.3584 5.33984C23.1989 5.08919 22.9938 4.89323 22.7432 4.75195C22.4925 4.60612 22.194 4.5332 21.8477 4.5332C21.5286 4.5332 21.2507 4.58789 21.0137 4.69727C20.7812 4.80664 20.583 4.95475 20.4189 5.1416C20.2549 5.32389 20.1204 5.53353 20.0156 5.77051C19.9154 6.00293 19.8402 6.24447 19.79 6.49512V8.26562C19.8812 8.58464 20.0088 8.88542 20.1729 9.16797C20.3369 9.44596 20.5557 9.67155 20.8291 9.84473C21.1025 10.0133 21.4466 10.0977 21.8613 10.0977C22.2031 10.0977 22.4971 10.027 22.7432 9.88574C22.9938 9.73991 23.1989 9.54167 23.3584 9.29102C23.5225 9.04036 23.6432 8.75326 23.7207 8.42969C23.7982 8.10156 23.8369 7.75293 23.8369 7.38379ZM31.083 9.73535V5.92773C31.083 5.63607 31.0238 5.38314 30.9053 5.16895C30.7913 4.9502 30.6182 4.78158 30.3857 4.66309C30.1533 4.5446 29.8662 4.48535 29.5244 4.48535C29.2054 4.48535 28.9251 4.54004 28.6836 4.64941C28.4466 4.75879 28.2598 4.90234 28.123 5.08008C27.9909 5.25781 27.9248 5.44922 27.9248 5.6543H26.6602C26.6602 5.38997 26.7285 5.12793 26.8652 4.86816C27.002 4.6084 27.1979 4.3737 27.4531 4.16406C27.7129 3.94987 28.0228 3.78125 28.3828 3.6582C28.7474 3.5306 29.153 3.4668 29.5996 3.4668C30.1374 3.4668 30.6113 3.55794 31.0215 3.74023C31.4362 3.92253 31.7598 4.19824 31.9922 4.56738C32.2292 4.93197 32.3477 5.38997 32.3477 5.94141V9.38672C32.3477 9.63281 32.3682 9.89486 32.4092 10.1729C32.4548 10.4508 32.5208 10.6901 32.6074 10.8906V11H31.2881C31.2243 10.8542 31.1742 10.6605 31.1377 10.4189C31.1012 10.1729 31.083 9.94499 31.083 9.73535ZM31.3018 6.51562L31.3154 7.4043H30.0371C29.6771 7.4043 29.3558 7.43392 29.0732 7.49316C28.7907 7.54785 28.5537 7.63216 28.3623 7.74609C28.1709 7.86003 28.0251 8.00358 27.9248 8.17676C27.8245 8.34538 27.7744 8.54362 27.7744 8.77148C27.7744 9.00391 27.8268 9.21582 27.9316 9.40723C28.0365 9.59863 28.1937 9.7513 28.4033 9.86523C28.6175 9.97461 28.8796 10.0293 29.1895 10.0293C29.5768 10.0293 29.9186 9.94727 30.2148 9.7832C30.5111 9.61914 30.7458 9.41862 30.9189 9.18164C31.0967 8.94466 31.1924 8.71452 31.2061 8.49121L31.7461 9.09961C31.7142 9.29102 31.6276 9.50293 31.4863 9.73535C31.3451 9.96777 31.1559 10.1911 30.9189 10.4053C30.6865 10.6149 30.4085 10.7904 30.085 10.9316C29.766 11.0684 29.4059 11.1367 29.0049 11.1367C28.5036 11.1367 28.0638 11.0387 27.6855 10.8428C27.3118 10.6468 27.0202 10.3848 26.8105 10.0566C26.6055 9.72396 26.5029 9.35254 26.5029 8.94238C26.5029 8.5459 26.5804 8.19727 26.7354 7.89648C26.8903 7.59115 27.1136 7.33822 27.4053 7.1377C27.6969 6.93262 28.0479 6.77767 28.458 6.67285C28.8682 6.56803 29.3262 6.51562 29.832 6.51562H31.3018ZM44.0713 1.04688V2.12695H39.2725V11H37.96V1.04688H44.0713ZM38.9648 5.10059H41.6787C42.4079 5.10059 43.0231 5.22363 43.5244 5.46973C44.0257 5.71126 44.4062 6.05078 44.666 6.48828C44.9258 6.92578 45.0557 7.43848 45.0557 8.02637C45.0557 8.46387 44.9827 8.86491 44.8369 9.22949C44.6911 9.58952 44.4746 9.90397 44.1875 10.1729C43.9004 10.4372 43.5472 10.6423 43.1279 10.7881C42.7087 10.9294 42.2256 11 41.6787 11H37.96V1.04688H39.2793V9.92676H41.6787C42.1663 9.92676 42.5605 9.83789 42.8613 9.66016C43.1667 9.47786 43.39 9.24089 43.5312 8.94922C43.6725 8.65755 43.7432 8.34538 43.7432 8.0127C43.7432 7.68001 43.6725 7.37467 43.5312 7.09668C43.39 6.81868 43.1667 6.59766 42.8613 6.43359C42.5605 6.26497 42.1663 6.18066 41.6787 6.18066H38.9648V5.10059ZM49.7109 11.1367C49.196 11.1367 48.7288 11.0501 48.3096 10.877C47.8949 10.6992 47.5371 10.4508 47.2363 10.1318C46.9401 9.81283 46.7122 9.43457 46.5527 8.99707C46.3932 8.55957 46.3135 8.08105 46.3135 7.56152V7.27441C46.3135 6.67285 46.4023 6.13737 46.5801 5.66797C46.7578 5.19401 46.9993 4.79297 47.3047 4.46484C47.61 4.13672 47.9564 3.88835 48.3438 3.71973C48.7311 3.55111 49.1322 3.4668 49.5469 3.4668C50.0755 3.4668 50.5312 3.55794 50.9141 3.74023C51.3014 3.92253 51.6182 4.17773 51.8643 4.50586C52.1104 4.82943 52.2926 5.21224 52.4111 5.6543C52.5296 6.0918 52.5889 6.57031 52.5889 7.08984V7.65723H47.0654V6.625H51.3242V6.5293C51.306 6.20117 51.2376 5.88216 51.1191 5.57227C51.0052 5.26237 50.8229 5.00716 50.5723 4.80664C50.3216 4.60612 49.9798 4.50586 49.5469 4.50586C49.2598 4.50586 48.9954 4.56738 48.7539 4.69043C48.5124 4.80892 48.305 4.98665 48.1318 5.22363C47.9587 5.46061 47.8242 5.75 47.7285 6.0918C47.6328 6.43359 47.585 6.8278 47.585 7.27441V7.56152C47.585 7.91243 47.6328 8.24284 47.7285 8.55273C47.8288 8.85807 47.9723 9.12695 48.1592 9.35938C48.3506 9.5918 48.5807 9.77409 48.8496 9.90625C49.123 10.0384 49.4329 10.1045 49.7793 10.1045C50.2259 10.1045 50.6042 10.0133 50.9141 9.83105C51.224 9.64876 51.4951 9.40495 51.7275 9.09961L52.4932 9.70801C52.3337 9.94954 52.1309 10.1797 51.8848 10.3984C51.6387 10.6172 51.3356 10.7949 50.9756 10.9316C50.6201 11.0684 50.1986 11.1367 49.7109 11.1367ZM55.4326 8.99707L58.8438 3.60352H60.1152V11H58.8438V5.60645L55.4326 11H54.1748V3.60352H55.4326V8.99707ZM58.1533 0.923828H59.1787C59.1787 1.2793 59.0967 1.59603 58.9326 1.87402C58.7686 2.14746 58.5339 2.36165 58.2285 2.5166C57.9232 2.67155 57.5609 2.74902 57.1416 2.74902C56.5081 2.74902 56.0068 2.5804 55.6377 2.24316C55.2731 1.90137 55.0908 1.46159 55.0908 0.923828H56.1162C56.1162 1.19271 56.1937 1.42969 56.3486 1.63477C56.5036 1.83984 56.7679 1.94238 57.1416 1.94238C57.5062 1.94238 57.766 1.83984 57.9209 1.63477C58.0758 1.42969 58.1533 1.19271 58.1533 0.923828ZM63.4102 5.02539V13.8438H62.1387V3.60352H63.3008L63.4102 5.02539ZM68.3936 7.24023V7.38379C68.3936 7.92155 68.3298 8.42057 68.2021 8.88086C68.0745 9.33659 67.8877 9.73307 67.6416 10.0703C67.4001 10.4076 67.1016 10.6696 66.7461 10.8564C66.3906 11.0433 65.9827 11.1367 65.5225 11.1367C65.0531 11.1367 64.6383 11.0592 64.2783 10.9043C63.9183 10.7493 63.613 10.5238 63.3623 10.2275C63.1117 9.93132 62.9111 9.57585 62.7607 9.16113C62.6149 8.74642 62.5146 8.2793 62.46 7.75977V6.99414C62.5146 6.44727 62.6172 5.95736 62.7676 5.52441C62.918 5.09147 63.1162 4.72233 63.3623 4.41699C63.613 4.1071 63.916 3.8724 64.2715 3.71289C64.627 3.54883 65.0371 3.4668 65.502 3.4668C65.9668 3.4668 66.3792 3.55794 66.7393 3.74023C67.0993 3.91797 67.4023 4.17318 67.6484 4.50586C67.8945 4.83854 68.0791 5.2373 68.2021 5.70215C68.3298 6.16243 68.3936 6.67513 68.3936 7.24023ZM67.1221 7.38379V7.24023C67.1221 6.87109 67.0833 6.52474 67.0059 6.20117C66.9284 5.87305 66.8076 5.58594 66.6436 5.33984C66.484 5.08919 66.279 4.89323 66.0283 4.75195C65.7777 4.60612 65.4792 4.5332 65.1328 4.5332C64.8138 4.5332 64.5358 4.58789 64.2988 4.69727C64.0664 4.80664 63.8682 4.95475 63.7041 5.1416C63.54 5.32389 63.4056 5.53353 63.3008 5.77051C63.2005 6.00293 63.1253 6.24447 63.0752 6.49512V8.26562C63.1663 8.58464 63.2939 8.88542 63.458 9.16797C63.6221 9.44596 63.8408 9.67155 64.1143 9.84473C64.3877 10.0133 64.7318 10.0977 65.1465 10.0977C65.4883 10.0977 65.7822 10.027 66.0283 9.88574C66.279 9.73991 66.484 9.54167 66.6436 9.29102C66.8076 9.04036 66.9284 8.75326 67.0059 8.42969C67.0833 8.10156 67.1221 7.75293 67.1221 7.38379ZM71.2168 3.60352H72.4814L72.3721 6.37207C72.3447 7.07389 72.265 7.68001 72.1328 8.19043C72.0007 8.70085 71.832 9.13607 71.627 9.49609C71.4219 9.85156 71.1917 10.1501 70.9365 10.3916C70.6859 10.6331 70.4261 10.8359 70.1572 11H69.5283L69.5625 9.96777L69.8223 9.96094C69.9727 9.7832 70.1185 9.60091 70.2598 9.41406C70.401 9.22266 70.5309 8.99707 70.6494 8.7373C70.7679 8.47298 70.8659 8.15169 70.9434 7.77344C71.0254 7.39062 71.0778 6.9235 71.1006 6.37207L71.2168 3.60352ZM71.5312 3.60352H75.9814V11H74.7168V4.77246H71.5312V3.60352ZM69.2412 9.96094H76.9316V13.1807H75.667V11H70.5059V13.1807H69.2344L69.2412 9.96094Z" fill="#050038" fill-opacity="0.6"/>
</svg>
