<svg width="201" height="14" viewBox="0 0 201 14" fill="none" xmlns="http://www.w3.org/2000/svg">
<path d="M4.83984 1.92871L1.54492 11H0.198242L3.99219 1.04688H4.86035L4.83984 1.92871ZM7.60156 11L4.2998 1.92871L4.2793 1.04688H5.14746L8.95508 11H7.60156ZM7.43066 7.31543V8.39551H1.83887V7.31543H7.43066ZM14.4033 9.03809C14.4033 8.85579 14.3623 8.68717 14.2803 8.53223C14.2028 8.37272 14.041 8.22917 13.7949 8.10156C13.5534 7.9694 13.1888 7.85547 12.7012 7.75977C12.291 7.67318 11.9196 7.57064 11.5869 7.45215C11.2588 7.33366 10.9785 7.1901 10.7461 7.02148C10.5182 6.85286 10.3428 6.65462 10.2197 6.42676C10.0967 6.19889 10.0352 5.93229 10.0352 5.62695C10.0352 5.33529 10.099 5.05957 10.2266 4.7998C10.3587 4.54004 10.5433 4.3099 10.7803 4.10938C11.0218 3.90885 11.3112 3.75163 11.6484 3.6377C11.9857 3.52376 12.3617 3.4668 12.7764 3.4668C13.3688 3.4668 13.8747 3.57161 14.2939 3.78125C14.7132 3.99089 15.0345 4.27116 15.2578 4.62207C15.4811 4.96842 15.5928 5.35352 15.5928 5.77734H14.3281C14.3281 5.57227 14.2666 5.37402 14.1436 5.18262C14.0251 4.98665 13.8496 4.82487 13.6172 4.69727C13.3893 4.56966 13.109 4.50586 12.7764 4.50586C12.4255 4.50586 12.1406 4.56055 11.9219 4.66992C11.7077 4.77474 11.5505 4.90918 11.4502 5.07324C11.3545 5.2373 11.3066 5.41048 11.3066 5.59277C11.3066 5.72949 11.3294 5.85254 11.375 5.96191C11.4251 6.06673 11.5117 6.16471 11.6348 6.25586C11.7578 6.34245 11.931 6.42448 12.1543 6.50195C12.3776 6.57943 12.6624 6.6569 13.0088 6.73438C13.6149 6.87109 14.1139 7.03516 14.5059 7.22656C14.8978 7.41797 15.1895 7.65267 15.3809 7.93066C15.5723 8.20866 15.668 8.5459 15.668 8.94238C15.668 9.26595 15.5996 9.56217 15.4629 9.83105C15.3307 10.0999 15.137 10.3324 14.8818 10.5283C14.6312 10.7197 14.3304 10.8701 13.9795 10.9795C13.6331 11.0843 13.2435 11.1367 12.8105 11.1367C12.1589 11.1367 11.6074 11.0205 11.1562 10.7881C10.7051 10.5557 10.3633 10.2549 10.1309 9.88574C9.89844 9.5166 9.78223 9.12695 9.78223 8.7168H11.0537C11.0719 9.06315 11.1722 9.33887 11.3545 9.54395C11.5368 9.74447 11.7601 9.88802 12.0244 9.97461C12.2887 10.0566 12.5508 10.0977 12.8105 10.0977C13.1569 10.0977 13.4463 10.0521 13.6787 9.96094C13.9157 9.86979 14.0957 9.74447 14.2188 9.58496C14.3418 9.42546 14.4033 9.24316 14.4033 9.03809ZM21.6357 9.03809C21.6357 8.85579 21.5947 8.68717 21.5127 8.53223C21.4352 8.37272 21.2734 8.22917 21.0273 8.10156C20.7858 7.9694 20.4212 7.85547 19.9336 7.75977C19.5234 7.67318 19.152 7.57064 18.8193 7.45215C18.4912 7.33366 18.2109 7.1901 17.9785 7.02148C17.7507 6.85286 17.5752 6.65462 17.4521 6.42676C17.3291 6.19889 17.2676 5.93229 17.2676 5.62695C17.2676 5.33529 17.3314 5.05957 17.459 4.7998C17.5911 4.54004 17.7757 4.3099 18.0127 4.10938C18.2542 3.90885 18.5436 3.75163 18.8809 3.6377C19.2181 3.52376 19.5941 3.4668 20.0088 3.4668C20.6012 3.4668 21.1071 3.57161 21.5264 3.78125C21.9456 3.99089 22.2669 4.27116 22.4902 4.62207C22.7135 4.96842 22.8252 5.35352 22.8252 5.77734H21.5605C21.5605 5.57227 21.499 5.37402 21.376 5.18262C21.2575 4.98665 21.082 4.82487 20.8496 4.69727C20.6217 4.56966 20.3415 4.50586 20.0088 4.50586C19.6579 4.50586 19.373 4.56055 19.1543 4.66992C18.9401 4.77474 18.7829 4.90918 18.6826 5.07324C18.5869 5.2373 18.5391 5.41048 18.5391 5.59277C18.5391 5.72949 18.5618 5.85254 18.6074 5.96191C18.6576 6.06673 18.7441 6.16471 18.8672 6.25586C18.9902 6.34245 19.1634 6.42448 19.3867 6.50195C19.61 6.57943 19.8949 6.6569 20.2412 6.73438C20.8473 6.87109 21.3464 7.03516 21.7383 7.22656C22.1302 7.41797 22.4219 7.65267 22.6133 7.93066C22.8047 8.20866 22.9004 8.5459 22.9004 8.94238C22.9004 9.26595 22.832 9.56217 22.6953 9.83105C22.5632 10.0999 22.3695 10.3324 22.1143 10.5283C21.8636 10.7197 21.5628 10.8701 21.2119 10.9795C20.8656 11.0843 20.4759 11.1367 20.043 11.1367C19.3913 11.1367 18.8398 11.0205 18.3887 10.7881C17.9375 10.5557 17.5957 10.2549 17.3633 9.88574C17.1309 9.5166 17.0146 9.12695 17.0146 8.7168H18.2861C18.3044 9.06315 18.4046 9.33887 18.5869 9.54395C18.7692 9.74447 18.9925 9.88802 19.2568 9.97461C19.5212 10.0566 19.7832 10.0977 20.043 10.0977C20.3893 10.0977 20.6787 10.0521 20.9111 9.96094C21.1481 9.86979 21.3281 9.74447 21.4512 9.58496C21.5742 9.42546 21.6357 9.24316 21.6357 9.03809ZM24.2266 7.38379V7.22656C24.2266 6.69336 24.304 6.19889 24.459 5.74316C24.6139 5.28288 24.8372 4.88411 25.1289 4.54688C25.4206 4.20508 25.7738 3.94076 26.1885 3.75391C26.6032 3.5625 27.068 3.4668 27.583 3.4668C28.1025 3.4668 28.5697 3.5625 28.9844 3.75391C29.4036 3.94076 29.7591 4.20508 30.0508 4.54688C30.347 4.88411 30.5726 5.28288 30.7275 5.74316C30.8825 6.19889 30.96 6.69336 30.96 7.22656V7.38379C30.96 7.91699 30.8825 8.41146 30.7275 8.86719C30.5726 9.32292 30.347 9.72168 30.0508 10.0635C29.7591 10.4007 29.4059 10.665 28.9912 10.8564C28.5811 11.0433 28.1162 11.1367 27.5967 11.1367C27.0771 11.1367 26.61 11.0433 26.1953 10.8564C25.7806 10.665 25.4251 10.4007 25.1289 10.0635C24.8372 9.72168 24.6139 9.32292 24.459 8.86719C24.304 8.41146 24.2266 7.91699 24.2266 7.38379ZM25.4912 7.22656V7.38379C25.4912 7.75293 25.5345 8.10156 25.6211 8.42969C25.7077 8.75326 25.8376 9.04036 26.0107 9.29102C26.1885 9.54167 26.4095 9.73991 26.6738 9.88574C26.9382 10.027 27.2458 10.0977 27.5967 10.0977C27.943 10.0977 28.2461 10.027 28.5059 9.88574C28.7702 9.73991 28.9889 9.54167 29.1621 9.29102C29.3353 9.04036 29.4652 8.75326 29.5518 8.42969C29.6429 8.10156 29.6885 7.75293 29.6885 7.38379V7.22656C29.6885 6.86198 29.6429 6.5179 29.5518 6.19434C29.4652 5.86621 29.333 5.57682 29.1553 5.32617C28.9821 5.07096 28.7633 4.87044 28.499 4.72461C28.2393 4.57878 27.9339 4.50586 27.583 4.50586C27.2367 4.50586 26.9313 4.57878 26.667 4.72461C26.4072 4.87044 26.1885 5.07096 26.0107 5.32617C25.8376 5.57682 25.7077 5.86621 25.6211 6.19434C25.5345 6.5179 25.4912 6.86198 25.4912 7.22656ZM35.5059 10.0977C35.8066 10.0977 36.0846 10.0361 36.3398 9.91309C36.5951 9.79004 36.8047 9.62142 36.9688 9.40723C37.1328 9.18848 37.2262 8.9401 37.249 8.66211H38.4521C38.4294 9.09961 38.2812 9.50749 38.0078 9.88574C37.7389 10.2594 37.3857 10.5625 36.9482 10.7949C36.5107 11.0228 36.0299 11.1367 35.5059 11.1367C34.9499 11.1367 34.4645 11.0387 34.0498 10.8428C33.6396 10.6468 33.2979 10.3779 33.0244 10.0361C32.7555 9.69434 32.5527 9.30241 32.416 8.86035C32.2839 8.41374 32.2178 7.94206 32.2178 7.44531V7.1582C32.2178 6.66146 32.2839 6.19206 32.416 5.75C32.5527 5.30339 32.7555 4.90918 33.0244 4.56738C33.2979 4.22559 33.6396 3.95671 34.0498 3.76074C34.4645 3.56478 34.9499 3.4668 35.5059 3.4668C36.0846 3.4668 36.5905 3.58529 37.0234 3.82227C37.4564 4.05469 37.7959 4.3737 38.042 4.7793C38.2926 5.18034 38.4294 5.63607 38.4521 6.14648H37.249C37.2262 5.84115 37.1396 5.56543 36.9893 5.31934C36.8434 5.07324 36.6429 4.87728 36.3877 4.73145C36.137 4.58105 35.8431 4.50586 35.5059 4.50586C35.1185 4.50586 34.7926 4.58333 34.5283 4.73828C34.2686 4.88867 34.0612 5.09375 33.9062 5.35352C33.7559 5.60872 33.6465 5.89355 33.5781 6.20801C33.5143 6.5179 33.4824 6.83464 33.4824 7.1582V7.44531C33.4824 7.76888 33.5143 8.08789 33.5781 8.40234C33.6419 8.7168 33.749 9.00163 33.8994 9.25684C34.0544 9.51204 34.2617 9.71712 34.5215 9.87207C34.7858 10.0225 35.1139 10.0977 35.5059 10.0977ZM41.248 3.60352V11H39.9766V3.60352H41.248ZM39.8809 1.6416C39.8809 1.43652 39.9424 1.26335 40.0654 1.12207C40.193 0.980794 40.3799 0.910156 40.626 0.910156C40.8675 0.910156 41.0521 0.980794 41.1797 1.12207C41.3118 1.26335 41.3779 1.43652 41.3779 1.6416C41.3779 1.83757 41.3118 2.00618 41.1797 2.14746C41.0521 2.28418 40.8675 2.35254 40.626 2.35254C40.3799 2.35254 40.193 2.28418 40.0654 2.14746C39.9424 2.00618 39.8809 1.83757 39.8809 1.6416ZM47.6396 9.73535V5.92773C47.6396 5.63607 47.5804 5.38314 47.4619 5.16895C47.348 4.9502 47.1748 4.78158 46.9424 4.66309C46.71 4.5446 46.4229 4.48535 46.0811 4.48535C45.762 4.48535 45.4818 4.54004 45.2402 4.64941C45.0033 4.75879 44.8164 4.90234 44.6797 5.08008C44.5475 5.25781 44.4814 5.44922 44.4814 5.6543H43.2168C43.2168 5.38997 43.2852 5.12793 43.4219 4.86816C43.5586 4.6084 43.7546 4.3737 44.0098 4.16406C44.2695 3.94987 44.5794 3.78125 44.9395 3.6582C45.304 3.5306 45.7096 3.4668 46.1562 3.4668C46.694 3.4668 47.168 3.55794 47.5781 3.74023C47.9928 3.92253 48.3164 4.19824 48.5488 4.56738C48.7858 4.93197 48.9043 5.38997 48.9043 5.94141V9.38672C48.9043 9.63281 48.9248 9.89486 48.9658 10.1729C49.0114 10.4508 49.0775 10.6901 49.1641 10.8906V11H47.8447C47.7809 10.8542 47.7308 10.6605 47.6943 10.4189C47.6579 10.1729 47.6396 9.94499 47.6396 9.73535ZM47.8584 6.51562L47.8721 7.4043H46.5938C46.2337 7.4043 45.9124 7.43392 45.6299 7.49316C45.3473 7.54785 45.1104 7.63216 44.9189 7.74609C44.7275 7.86003 44.5817 8.00358 44.4814 8.17676C44.3812 8.34538 44.3311 8.54362 44.3311 8.77148C44.3311 9.00391 44.3835 9.21582 44.4883 9.40723C44.5931 9.59863 44.7503 9.7513 44.96 9.86523C45.1742 9.97461 45.4362 10.0293 45.7461 10.0293C46.1335 10.0293 46.4753 9.94727 46.7715 9.7832C47.0677 9.61914 47.3024 9.41862 47.4756 9.18164C47.6533 8.94466 47.749 8.71452 47.7627 8.49121L48.3027 9.09961C48.2708 9.29102 48.1842 9.50293 48.043 9.73535C47.9017 9.96777 47.7126 10.1911 47.4756 10.4053C47.2432 10.6149 46.9652 10.7904 46.6416 10.9316C46.3226 11.0684 45.9626 11.1367 45.5615 11.1367C45.0602 11.1367 44.6204 11.0387 44.2422 10.8428C43.8685 10.6468 43.5768 10.3848 43.3672 10.0566C43.1621 9.72396 43.0596 9.35254 43.0596 8.94238C43.0596 8.5459 43.137 8.19727 43.292 7.89648C43.4469 7.59115 43.6702 7.33822 43.9619 7.1377C44.2536 6.93262 44.6045 6.77767 45.0146 6.67285C45.4248 6.56803 45.8828 6.51562 46.3887 6.51562H47.8584ZM53.9902 3.60352V4.57422H49.9912V3.60352H53.9902ZM51.3447 1.80566H52.6094V9.16797C52.6094 9.41862 52.6481 9.60775 52.7256 9.73535C52.8031 9.86296 52.9033 9.94727 53.0264 9.98828C53.1494 10.0293 53.2816 10.0498 53.4229 10.0498C53.5277 10.0498 53.637 10.0407 53.751 10.0225C53.8695 9.99967 53.9583 9.98145 54.0176 9.96777L54.0244 11C53.9242 11.0319 53.792 11.0615 53.6279 11.0889C53.4684 11.1208 53.2747 11.1367 53.0469 11.1367C52.737 11.1367 52.4521 11.0752 52.1924 10.9521C51.9326 10.8291 51.7253 10.624 51.5703 10.3369C51.4199 10.0452 51.3447 9.65332 51.3447 9.16113V1.80566ZM58.543 11.1367C58.028 11.1367 57.5609 11.0501 57.1416 10.877C56.7269 10.6992 56.3691 10.4508 56.0684 10.1318C55.7721 9.81283 55.5443 9.43457 55.3848 8.99707C55.2253 8.55957 55.1455 8.08105 55.1455 7.56152V7.27441C55.1455 6.67285 55.2344 6.13737 55.4121 5.66797C55.5898 5.19401 55.8314 4.79297 56.1367 4.46484C56.4421 4.13672 56.7884 3.88835 57.1758 3.71973C57.5632 3.55111 57.9642 3.4668 58.3789 3.4668C58.9076 3.4668 59.3633 3.55794 59.7461 3.74023C60.1335 3.92253 60.4502 4.17773 60.6963 4.50586C60.9424 4.82943 61.1247 5.21224 61.2432 5.6543C61.3617 6.0918 61.4209 6.57031 61.4209 7.08984V7.65723H55.8975V6.625H60.1562V6.5293C60.138 6.20117 60.0697 5.88216 59.9512 5.57227C59.8372 5.26237 59.6549 5.00716 59.4043 4.80664C59.1536 4.60612 58.8118 4.50586 58.3789 4.50586C58.0918 4.50586 57.8275 4.56738 57.5859 4.69043C57.3444 4.80892 57.137 4.98665 56.9639 5.22363C56.7907 5.46061 56.6562 5.75 56.5605 6.0918C56.4648 6.43359 56.417 6.8278 56.417 7.27441V7.56152C56.417 7.91243 56.4648 8.24284 56.5605 8.55273C56.6608 8.85807 56.8044 9.12695 56.9912 9.35938C57.1826 9.5918 57.4128 9.77409 57.6816 9.90625C57.9551 10.0384 58.265 10.1045 58.6113 10.1045C59.0579 10.1045 59.4362 10.0133 59.7461 9.83105C60.056 9.64876 60.3271 9.40495 60.5596 9.09961L61.3252 9.70801C61.1657 9.94954 60.9629 10.1797 60.7168 10.3984C60.4707 10.6172 60.1676 10.7949 59.8076 10.9316C59.4521 11.0684 59.0306 11.1367 58.543 11.1367ZM69.2549 11H67.1768L67.1904 9.92676H69.2549C69.9658 9.92676 70.5583 9.77865 71.0322 9.48242C71.5062 9.18164 71.8617 8.76237 72.0986 8.22461C72.3402 7.68229 72.4609 7.04883 72.4609 6.32422V5.71582C72.4609 5.14616 72.3926 4.6403 72.2559 4.19824C72.1191 3.75163 71.9186 3.37565 71.6543 3.07031C71.39 2.76042 71.0664 2.52572 70.6836 2.36621C70.3053 2.20671 69.8701 2.12695 69.3779 2.12695H67.1357V1.04688H69.3779C70.0296 1.04688 70.6243 1.15625 71.1621 1.375C71.6999 1.58919 72.1624 1.90137 72.5498 2.31152C72.9417 2.71712 73.2425 3.20931 73.4521 3.78809C73.6618 4.3623 73.7666 5.00944 73.7666 5.72949V6.32422C73.7666 7.04427 73.6618 7.69368 73.4521 8.27246C73.2425 8.84668 72.9395 9.33659 72.543 9.74219C72.151 10.1478 71.6771 10.46 71.1211 10.6787C70.5697 10.8929 69.9476 11 69.2549 11ZM67.8809 1.04688V11H66.5615V1.04688H67.8809ZM78.627 11.1367C78.112 11.1367 77.6449 11.0501 77.2256 10.877C76.8109 10.6992 76.4531 10.4508 76.1523 10.1318C75.8561 9.81283 75.6283 9.43457 75.4688 8.99707C75.3092 8.55957 75.2295 8.08105 75.2295 7.56152V7.27441C75.2295 6.67285 75.3184 6.13737 75.4961 5.66797C75.6738 5.19401 75.9154 4.79297 76.2207 4.46484C76.526 4.13672 76.8724 3.88835 77.2598 3.71973C77.6471 3.55111 78.0482 3.4668 78.4629 3.4668C78.9915 3.4668 79.4473 3.55794 79.8301 3.74023C80.2174 3.92253 80.5342 4.17773 80.7803 4.50586C81.0264 4.82943 81.2087 5.21224 81.3271 5.6543C81.4456 6.0918 81.5049 6.57031 81.5049 7.08984V7.65723H75.9814V6.625H80.2402V6.5293C80.222 6.20117 80.1536 5.88216 80.0352 5.57227C79.9212 5.26237 79.7389 5.00716 79.4883 4.80664C79.2376 4.60612 78.8958 4.50586 78.4629 4.50586C78.1758 4.50586 77.9115 4.56738 77.6699 4.69043C77.4284 4.80892 77.221 4.98665 77.0479 5.22363C76.8747 5.46061 76.7402 5.75 76.6445 6.0918C76.5488 6.43359 76.501 6.8278 76.501 7.27441V7.56152C76.501 7.91243 76.5488 8.24284 76.6445 8.55273C76.7448 8.85807 76.8883 9.12695 77.0752 9.35938C77.2666 9.5918 77.4967 9.77409 77.7656 9.90625C78.0391 10.0384 78.349 10.1045 78.6953 10.1045C79.1419 10.1045 79.5202 10.0133 79.8301 9.83105C80.14 9.64876 80.4111 9.40495 80.6436 9.09961L81.4092 9.70801C81.2497 9.94954 81.0469 10.1797 80.8008 10.3984C80.5547 10.6172 80.2516 10.7949 79.8916 10.9316C79.5361 11.0684 79.1146 11.1367 78.627 11.1367ZM87.2881 9.03809C87.2881 8.85579 87.2471 8.68717 87.165 8.53223C87.0876 8.37272 86.9258 8.22917 86.6797 8.10156C86.4382 7.9694 86.0736 7.85547 85.5859 7.75977C85.1758 7.67318 84.8044 7.57064 84.4717 7.45215C84.1436 7.33366 83.8633 7.1901 83.6309 7.02148C83.403 6.85286 83.2275 6.65462 83.1045 6.42676C82.9814 6.19889 82.9199 5.93229 82.9199 5.62695C82.9199 5.33529 82.9837 5.05957 83.1113 4.7998C83.2435 4.54004 83.4281 4.3099 83.665 4.10938C83.9066 3.90885 84.196 3.75163 84.5332 3.6377C84.8704 3.52376 85.2464 3.4668 85.6611 3.4668C86.2536 3.4668 86.7594 3.57161 87.1787 3.78125C87.598 3.99089 87.9193 4.27116 88.1426 4.62207C88.3659 4.96842 88.4775 5.35352 88.4775 5.77734H87.2129C87.2129 5.57227 87.1514 5.37402 87.0283 5.18262C86.9098 4.98665 86.7344 4.82487 86.502 4.69727C86.2741 4.56966 85.9938 4.50586 85.6611 4.50586C85.3102 4.50586 85.0254 4.56055 84.8066 4.66992C84.5924 4.77474 84.4352 4.90918 84.335 5.07324C84.2393 5.2373 84.1914 5.41048 84.1914 5.59277C84.1914 5.72949 84.2142 5.85254 84.2598 5.96191C84.3099 6.06673 84.3965 6.16471 84.5195 6.25586C84.6426 6.34245 84.8158 6.42448 85.0391 6.50195C85.2624 6.57943 85.5472 6.6569 85.8936 6.73438C86.4997 6.87109 86.9987 7.03516 87.3906 7.22656C87.7826 7.41797 88.0742 7.65267 88.2656 7.93066C88.457 8.20866 88.5527 8.5459 88.5527 8.94238C88.5527 9.26595 88.4844 9.56217 88.3477 9.83105C88.2155 10.0999 88.0218 10.3324 87.7666 10.5283C87.516 10.7197 87.2152 10.8701 86.8643 10.9795C86.5179 11.0843 86.1283 11.1367 85.6953 11.1367C85.0436 11.1367 84.4922 11.0205 84.041 10.7881C83.5898 10.5557 83.248 10.2549 83.0156 9.88574C82.7832 9.5166 82.667 9.12695 82.667 8.7168H83.9385C83.9567 9.06315 84.057 9.33887 84.2393 9.54395C84.4215 9.74447 84.6449 9.88802 84.9092 9.97461C85.1735 10.0566 85.4355 10.0977 85.6953 10.0977C86.0417 10.0977 86.3311 10.0521 86.5635 9.96094C86.8005 9.86979 86.9805 9.74447 87.1035 9.58496C87.2266 9.42546 87.2881 9.24316 87.2881 9.03809ZM91.5879 3.60352V11H90.3164V3.60352H91.5879ZM90.2207 1.6416C90.2207 1.43652 90.2822 1.26335 90.4053 1.12207C90.5329 0.980794 90.7197 0.910156 90.9658 0.910156C91.2074 0.910156 91.3919 0.980794 91.5195 1.12207C91.6517 1.26335 91.7178 1.43652 91.7178 1.6416C91.7178 1.83757 91.6517 2.00618 91.5195 2.14746C91.3919 2.28418 91.2074 2.35254 90.9658 2.35254C90.7197 2.35254 90.5329 2.28418 90.4053 2.14746C90.2822 2.00618 90.2207 1.83757 90.2207 1.6416ZM98.4102 3.60352H99.5586V10.8428C99.5586 11.4945 99.4264 12.0505 99.1621 12.5107C98.8978 12.971 98.5286 13.3197 98.0547 13.5566C97.5853 13.7982 97.043 13.9189 96.4277 13.9189C96.1725 13.9189 95.8717 13.8779 95.5254 13.7959C95.1836 13.7184 94.8464 13.584 94.5137 13.3926C94.1855 13.2057 93.9098 12.9528 93.6865 12.6338L94.3496 11.8818C94.6595 12.2555 94.9831 12.5153 95.3203 12.6611C95.6621 12.807 95.9993 12.8799 96.332 12.8799C96.7331 12.8799 97.0794 12.8047 97.3711 12.6543C97.6628 12.5039 97.8883 12.2806 98.0479 11.9844C98.2119 11.6927 98.2939 11.3327 98.2939 10.9043V5.23047L98.4102 3.60352ZM93.3174 7.38379V7.24023C93.3174 6.67513 93.3835 6.16243 93.5156 5.70215C93.6523 5.2373 93.846 4.83854 94.0967 4.50586C94.3519 4.17318 94.6595 3.91797 95.0195 3.74023C95.3796 3.55794 95.7852 3.4668 96.2363 3.4668C96.7012 3.4668 97.1068 3.54883 97.4531 3.71289C97.804 3.8724 98.1003 4.1071 98.3418 4.41699C98.5879 4.72233 98.7816 5.09147 98.9229 5.52441C99.0641 5.95736 99.1621 6.44727 99.2168 6.99414V7.62305C99.1667 8.16536 99.0687 8.65299 98.9229 9.08594C98.7816 9.51888 98.5879 9.88802 98.3418 10.1934C98.1003 10.4987 97.804 10.7334 97.4531 10.8975C97.1022 11.057 96.6921 11.1367 96.2227 11.1367C95.7806 11.1367 95.3796 11.0433 95.0195 10.8564C94.6641 10.6696 94.3587 10.4076 94.1035 10.0703C93.8483 9.73307 93.6523 9.33659 93.5156 8.88086C93.3835 8.42057 93.3174 7.92155 93.3174 7.38379ZM94.582 7.24023V7.38379C94.582 7.75293 94.6185 8.09928 94.6914 8.42285C94.7689 8.74642 94.8851 9.03125 95.04 9.27734C95.1995 9.52344 95.4023 9.71712 95.6484 9.8584C95.8945 9.99512 96.1885 10.0635 96.5303 10.0635C96.9495 10.0635 97.2959 9.97461 97.5693 9.79688C97.8428 9.61914 98.0592 9.38444 98.2188 9.09277C98.3828 8.80111 98.5104 8.48438 98.6016 8.14258V6.49512C98.5514 6.24447 98.474 6.00293 98.3691 5.77051C98.2689 5.53353 98.1367 5.32389 97.9727 5.1416C97.8132 4.95475 97.6149 4.80664 97.3779 4.69727C97.141 4.58789 96.863 4.5332 96.5439 4.5332C96.1976 4.5332 95.8991 4.60612 95.6484 4.75195C95.4023 4.89323 95.1995 5.08919 95.04 5.33984C94.8851 5.58594 94.7689 5.87305 94.6914 6.20117C94.6185 6.52474 94.582 6.87109 94.582 7.24023ZM102.744 5.18262V11H101.479V3.60352H102.676L102.744 5.18262ZM102.443 7.02148L101.917 7.00098C101.922 6.49512 101.997 6.02799 102.143 5.59961C102.288 5.16667 102.493 4.79069 102.758 4.47168C103.022 4.15267 103.337 3.90658 103.701 3.7334C104.07 3.55566 104.478 3.4668 104.925 3.4668C105.289 3.4668 105.618 3.51693 105.909 3.61719C106.201 3.71289 106.449 3.86784 106.654 4.08203C106.864 4.29622 107.023 4.57422 107.133 4.91602C107.242 5.25326 107.297 5.66569 107.297 6.15332V11H106.025V6.13965C106.025 5.75228 105.968 5.44238 105.854 5.20996C105.741 4.97298 105.574 4.80208 105.355 4.69727C105.137 4.58789 104.868 4.5332 104.549 4.5332C104.234 4.5332 103.947 4.59928 103.688 4.73145C103.432 4.86361 103.211 5.0459 103.024 5.27832C102.842 5.51074 102.699 5.77734 102.594 6.07812C102.493 6.37435 102.443 6.6888 102.443 7.02148ZM115.575 11H113.497L113.511 9.92676H115.575C116.286 9.92676 116.879 9.77865 117.353 9.48242C117.826 9.18164 118.182 8.76237 118.419 8.22461C118.66 7.68229 118.781 7.04883 118.781 6.32422V5.71582C118.781 5.14616 118.713 4.6403 118.576 4.19824C118.439 3.75163 118.239 3.37565 117.975 3.07031C117.71 2.76042 117.387 2.52572 117.004 2.36621C116.626 2.20671 116.19 2.12695 115.698 2.12695H113.456V1.04688H115.698C116.35 1.04688 116.945 1.15625 117.482 1.375C118.02 1.58919 118.483 1.90137 118.87 2.31152C119.262 2.71712 119.563 3.20931 119.772 3.78809C119.982 4.3623 120.087 5.00944 120.087 5.72949V6.32422C120.087 7.04427 119.982 7.69368 119.772 8.27246C119.563 8.84668 119.26 9.33659 118.863 9.74219C118.471 10.1478 117.997 10.46 117.441 10.6787C116.89 10.8929 116.268 11 115.575 11ZM114.201 1.04688V11H112.882V1.04688H114.201ZM123.252 3.60352V11H121.98V3.60352H123.252ZM121.885 1.6416C121.885 1.43652 121.946 1.26335 122.069 1.12207C122.197 0.980794 122.384 0.910156 122.63 0.910156C122.871 0.910156 123.056 0.980794 123.184 1.12207C123.316 1.26335 123.382 1.43652 123.382 1.6416C123.382 1.83757 123.316 2.00618 123.184 2.14746C123.056 2.28418 122.871 2.35254 122.63 2.35254C122.384 2.35254 122.197 2.28418 122.069 2.14746C121.946 2.00618 121.885 1.83757 121.885 1.6416ZM126.547 4.76562V11H125.282V3.60352H126.513L126.547 4.76562ZM128.857 3.5625L128.851 4.73828C128.746 4.71549 128.646 4.70182 128.55 4.69727C128.459 4.68815 128.354 4.68359 128.235 4.68359C127.944 4.68359 127.686 4.72917 127.463 4.82031C127.24 4.91146 127.05 5.03906 126.896 5.20312C126.741 5.36719 126.618 5.56315 126.526 5.79102C126.44 6.01432 126.383 6.26042 126.355 6.5293L126 6.73438C126 6.28776 126.043 5.86849 126.13 5.47656C126.221 5.08464 126.36 4.73828 126.547 4.4375C126.734 4.13216 126.971 3.89518 127.258 3.72656C127.549 3.55339 127.896 3.4668 128.297 3.4668C128.388 3.4668 128.493 3.47819 128.611 3.50098C128.73 3.51921 128.812 3.53971 128.857 3.5625ZM132.959 11.1367C132.444 11.1367 131.977 11.0501 131.558 10.877C131.143 10.6992 130.785 10.4508 130.484 10.1318C130.188 9.81283 129.96 9.43457 129.801 8.99707C129.641 8.55957 129.562 8.08105 129.562 7.56152V7.27441C129.562 6.67285 129.65 6.13737 129.828 5.66797C130.006 5.19401 130.247 4.79297 130.553 4.46484C130.858 4.13672 131.204 3.88835 131.592 3.71973C131.979 3.55111 132.38 3.4668 132.795 3.4668C133.324 3.4668 133.779 3.55794 134.162 3.74023C134.549 3.92253 134.866 4.17773 135.112 4.50586C135.358 4.82943 135.541 5.21224 135.659 5.6543C135.778 6.0918 135.837 6.57031 135.837 7.08984V7.65723H130.313V6.625H134.572V6.5293C134.554 6.20117 134.486 5.88216 134.367 5.57227C134.253 5.26237 134.071 5.00716 133.82 4.80664C133.57 4.60612 133.228 4.50586 132.795 4.50586C132.508 4.50586 132.243 4.56738 132.002 4.69043C131.76 4.80892 131.553 4.98665 131.38 5.22363C131.207 5.46061 131.072 5.75 130.977 6.0918C130.881 6.43359 130.833 6.8278 130.833 7.27441V7.56152C130.833 7.91243 130.881 8.24284 130.977 8.55273C131.077 8.85807 131.22 9.12695 131.407 9.35938C131.599 9.5918 131.829 9.77409 132.098 9.90625C132.371 10.0384 132.681 10.1045 133.027 10.1045C133.474 10.1045 133.852 10.0133 134.162 9.83105C134.472 9.64876 134.743 9.40495 134.976 9.09961L135.741 9.70801C135.582 9.94954 135.379 10.1797 135.133 10.3984C134.887 10.6172 134.584 10.7949 134.224 10.9316C133.868 11.0684 133.447 11.1367 132.959 11.1367ZM140.273 10.0977C140.574 10.0977 140.852 10.0361 141.107 9.91309C141.363 9.79004 141.572 9.62142 141.736 9.40723C141.9 9.18848 141.994 8.9401 142.017 8.66211H143.22C143.197 9.09961 143.049 9.50749 142.775 9.88574C142.507 10.2594 142.153 10.5625 141.716 10.7949C141.278 11.0228 140.798 11.1367 140.273 11.1367C139.717 11.1367 139.232 11.0387 138.817 10.8428C138.407 10.6468 138.065 10.3779 137.792 10.0361C137.523 9.69434 137.32 9.30241 137.184 8.86035C137.051 8.41374 136.985 7.94206 136.985 7.44531V7.1582C136.985 6.66146 137.051 6.19206 137.184 5.75C137.32 5.30339 137.523 4.90918 137.792 4.56738C138.065 4.22559 138.407 3.95671 138.817 3.76074C139.232 3.56478 139.717 3.4668 140.273 3.4668C140.852 3.4668 141.358 3.58529 141.791 3.82227C142.224 4.05469 142.563 4.3737 142.81 4.7793C143.06 5.18034 143.197 5.63607 143.22 6.14648H142.017C141.994 5.84115 141.907 5.56543 141.757 5.31934C141.611 5.07324 141.41 4.87728 141.155 4.73145C140.905 4.58105 140.611 4.50586 140.273 4.50586C139.886 4.50586 139.56 4.58333 139.296 4.73828C139.036 4.88867 138.829 5.09375 138.674 5.35352C138.523 5.60872 138.414 5.89355 138.346 6.20801C138.282 6.5179 138.25 6.83464 138.25 7.1582V7.44531C138.25 7.76888 138.282 8.08789 138.346 8.40234C138.41 8.7168 138.517 9.00163 138.667 9.25684C138.822 9.51204 139.029 9.71712 139.289 9.87207C139.553 10.0225 139.882 10.0977 140.273 10.0977ZM147.738 3.60352V4.57422H143.739V3.60352H147.738ZM145.093 1.80566H146.357V9.16797C146.357 9.41862 146.396 9.60775 146.474 9.73535C146.551 9.86296 146.651 9.94727 146.774 9.98828C146.897 10.0293 147.03 10.0498 147.171 10.0498C147.276 10.0498 147.385 10.0407 147.499 10.0225C147.618 9.99967 147.706 9.98145 147.766 9.96777L147.772 11C147.672 11.0319 147.54 11.0615 147.376 11.0889C147.216 11.1208 147.023 11.1367 146.795 11.1367C146.485 11.1367 146.2 11.0752 145.94 10.9521C145.681 10.8291 145.473 10.624 145.318 10.3369C145.168 10.0452 145.093 9.65332 145.093 9.16113V1.80566ZM148.75 7.38379V7.22656C148.75 6.69336 148.827 6.19889 148.982 5.74316C149.137 5.28288 149.361 4.88411 149.652 4.54688C149.944 4.20508 150.297 3.94076 150.712 3.75391C151.127 3.5625 151.591 3.4668 152.106 3.4668C152.626 3.4668 153.093 3.5625 153.508 3.75391C153.927 3.94076 154.283 4.20508 154.574 4.54688C154.87 4.88411 155.096 5.28288 155.251 5.74316C155.406 6.19889 155.483 6.69336 155.483 7.22656V7.38379C155.483 7.91699 155.406 8.41146 155.251 8.86719C155.096 9.32292 154.87 9.72168 154.574 10.0635C154.283 10.4007 153.929 10.665 153.515 10.8564C153.104 11.0433 152.64 11.1367 152.12 11.1367C151.601 11.1367 151.133 11.0433 150.719 10.8564C150.304 10.665 149.949 10.4007 149.652 10.0635C149.361 9.72168 149.137 9.32292 148.982 8.86719C148.827 8.41146 148.75 7.91699 148.75 7.38379ZM150.015 7.22656V7.38379C150.015 7.75293 150.058 8.10156 150.145 8.42969C150.231 8.75326 150.361 9.04036 150.534 9.29102C150.712 9.54167 150.933 9.73991 151.197 9.88574C151.462 10.027 151.769 10.0977 152.12 10.0977C152.466 10.0977 152.77 10.027 153.029 9.88574C153.294 9.73991 153.512 9.54167 153.686 9.29102C153.859 9.04036 153.989 8.75326 154.075 8.42969C154.166 8.10156 154.212 7.75293 154.212 7.38379V7.22656C154.212 6.86198 154.166 6.5179 154.075 6.19434C153.989 5.86621 153.856 5.57682 153.679 5.32617C153.506 5.07096 153.287 4.87044 153.022 4.72461C152.763 4.57878 152.457 4.50586 152.106 4.50586C151.76 4.50586 151.455 4.57878 151.19 4.72461C150.931 4.87044 150.712 5.07096 150.534 5.32617C150.361 5.57682 150.231 5.86621 150.145 6.19434C150.058 6.5179 150.015 6.86198 150.015 7.22656ZM158.334 4.76562V11H157.069V3.60352H158.3L158.334 4.76562ZM160.645 3.5625L160.638 4.73828C160.533 4.71549 160.433 4.70182 160.337 4.69727C160.246 4.68815 160.141 4.68359 160.022 4.68359C159.731 4.68359 159.473 4.72917 159.25 4.82031C159.027 4.91146 158.838 5.03906 158.683 5.20312C158.528 5.36719 158.405 5.56315 158.313 5.79102C158.227 6.01432 158.17 6.26042 158.143 6.5293L157.787 6.73438C157.787 6.28776 157.83 5.86849 157.917 5.47656C158.008 5.08464 158.147 4.73828 158.334 4.4375C158.521 4.13216 158.758 3.89518 159.045 3.72656C159.337 3.55339 159.683 3.4668 160.084 3.4668C160.175 3.4668 160.28 3.47819 160.398 3.50098C160.517 3.51921 160.599 3.53971 160.645 3.5625ZM168.759 7.74609H166.332L166.318 6.73438H168.301C168.693 6.73438 169.019 6.69564 169.278 6.61816C169.543 6.54069 169.741 6.42448 169.873 6.26953C170.005 6.11458 170.071 5.92318 170.071 5.69531C170.071 5.51758 170.033 5.36263 169.955 5.23047C169.882 5.09375 169.771 4.9821 169.62 4.89551C169.47 4.80436 169.283 4.73828 169.06 4.69727C168.841 4.65169 168.583 4.62891 168.287 4.62891H166.667V11H165.402V3.60352H168.287C168.757 3.60352 169.178 3.64453 169.552 3.72656C169.93 3.80859 170.251 3.93392 170.516 4.10254C170.785 4.2666 170.99 4.47624 171.131 4.73145C171.272 4.98665 171.343 5.28743 171.343 5.63379C171.343 5.8571 171.297 6.06901 171.206 6.26953C171.115 6.47005 170.98 6.64779 170.803 6.80273C170.625 6.95768 170.406 7.08529 170.146 7.18555C169.887 7.28125 169.588 7.34277 169.251 7.37012L168.759 7.74609ZM168.759 11H165.874L166.503 9.97461H168.759C169.11 9.97461 169.401 9.93132 169.634 9.84473C169.866 9.75358 170.039 9.62598 170.153 9.46191C170.272 9.29329 170.331 9.09277 170.331 8.86035C170.331 8.62793 170.272 8.42969 170.153 8.26562C170.039 8.09701 169.866 7.9694 169.634 7.88281C169.401 7.79167 169.11 7.74609 168.759 7.74609H166.838L166.852 6.73438H169.251L169.709 7.11719C170.115 7.14909 170.459 7.24935 170.741 7.41797C171.024 7.58659 171.238 7.80078 171.384 8.06055C171.53 8.31576 171.603 8.59375 171.603 8.89453C171.603 9.24089 171.536 9.54622 171.404 9.81055C171.277 10.0749 171.09 10.2959 170.844 10.4736C170.598 10.6468 170.299 10.779 169.948 10.8701C169.597 10.9567 169.201 11 168.759 11ZM178.657 11H177.393V2.82422C177.393 2.29102 177.488 1.84212 177.68 1.47754C177.876 1.1084 178.156 0.830404 178.521 0.643555C178.885 0.452148 179.318 0.356445 179.819 0.356445C179.965 0.356445 180.111 0.36556 180.257 0.383789C180.407 0.402018 180.553 0.429362 180.694 0.46582L180.626 1.49805C180.53 1.47526 180.421 1.45931 180.298 1.4502C180.179 1.44108 180.061 1.43652 179.942 1.43652C179.674 1.43652 179.441 1.49121 179.245 1.60059C179.054 1.7054 178.908 1.86035 178.808 2.06543C178.707 2.27051 178.657 2.52344 178.657 2.82422V11ZM180.229 3.60352V4.57422H176.224V3.60352H180.229ZM182.902 4.76562V11H181.638V3.60352H182.868L182.902 4.76562ZM185.213 3.5625L185.206 4.73828C185.101 4.71549 185.001 4.70182 184.905 4.69727C184.814 4.68815 184.709 4.68359 184.591 4.68359C184.299 4.68359 184.042 4.72917 183.818 4.82031C183.595 4.91146 183.406 5.03906 183.251 5.20312C183.096 5.36719 182.973 5.56315 182.882 5.79102C182.795 6.01432 182.738 6.26042 182.711 6.5293L182.355 6.73438C182.355 6.28776 182.399 5.86849 182.485 5.47656C182.576 5.08464 182.715 4.73828 182.902 4.4375C183.089 4.13216 183.326 3.89518 183.613 3.72656C183.905 3.55339 184.251 3.4668 184.652 3.4668C184.743 3.4668 184.848 3.47819 184.967 3.50098C185.085 3.51921 185.167 3.53971 185.213 3.5625ZM185.91 7.38379V7.22656C185.91 6.69336 185.988 6.19889 186.143 5.74316C186.298 5.28288 186.521 4.88411 186.812 4.54688C187.104 4.20508 187.457 3.94076 187.872 3.75391C188.287 3.5625 188.752 3.4668 189.267 3.4668C189.786 3.4668 190.253 3.5625 190.668 3.75391C191.087 3.94076 191.443 4.20508 191.734 4.54688C192.031 4.88411 192.256 5.28288 192.411 5.74316C192.566 6.19889 192.644 6.69336 192.644 7.22656V7.38379C192.644 7.91699 192.566 8.41146 192.411 8.86719C192.256 9.32292 192.031 9.72168 191.734 10.0635C191.443 10.4007 191.09 10.665 190.675 10.8564C190.265 11.0433 189.8 11.1367 189.28 11.1367C188.761 11.1367 188.294 11.0433 187.879 10.8564C187.464 10.665 187.109 10.4007 186.812 10.0635C186.521 9.72168 186.298 9.32292 186.143 8.86719C185.988 8.41146 185.91 7.91699 185.91 7.38379ZM187.175 7.22656V7.38379C187.175 7.75293 187.218 8.10156 187.305 8.42969C187.391 8.75326 187.521 9.04036 187.694 9.29102C187.872 9.54167 188.093 9.73991 188.357 9.88574C188.622 10.027 188.929 10.0977 189.28 10.0977C189.627 10.0977 189.93 10.027 190.189 9.88574C190.454 9.73991 190.673 9.54167 190.846 9.29102C191.019 9.04036 191.149 8.75326 191.235 8.42969C191.326 8.10156 191.372 7.75293 191.372 7.38379V7.22656C191.372 6.86198 191.326 6.5179 191.235 6.19434C191.149 5.86621 191.017 5.57682 190.839 5.32617C190.666 5.07096 190.447 4.87044 190.183 4.72461C189.923 4.57878 189.618 4.50586 189.267 4.50586C188.92 4.50586 188.615 4.57878 188.351 4.72461C188.091 4.87044 187.872 5.07096 187.694 5.32617C187.521 5.57682 187.391 5.86621 187.305 6.19434C187.218 6.5179 187.175 6.86198 187.175 7.22656ZM199.021 3.60352H200.17V10.8428C200.17 11.4945 200.038 12.0505 199.773 12.5107C199.509 12.971 199.14 13.3197 198.666 13.5566C198.197 13.7982 197.654 13.9189 197.039 13.9189C196.784 13.9189 196.483 13.8779 196.137 13.7959C195.795 13.7184 195.458 13.584 195.125 13.3926C194.797 13.2057 194.521 12.9528 194.298 12.6338L194.961 11.8818C195.271 12.2555 195.594 12.5153 195.932 12.6611C196.273 12.807 196.611 12.8799 196.943 12.8799C197.344 12.8799 197.691 12.8047 197.982 12.6543C198.274 12.5039 198.5 12.2806 198.659 11.9844C198.823 11.6927 198.905 11.3327 198.905 10.9043V5.23047L199.021 3.60352ZM193.929 7.38379V7.24023C193.929 6.67513 193.995 6.16243 194.127 5.70215C194.264 5.2373 194.457 4.83854 194.708 4.50586C194.963 4.17318 195.271 3.91797 195.631 3.74023C195.991 3.55794 196.396 3.4668 196.848 3.4668C197.312 3.4668 197.718 3.54883 198.064 3.71289C198.415 3.8724 198.712 4.1071 198.953 4.41699C199.199 4.72233 199.393 5.09147 199.534 5.52441C199.675 5.95736 199.773 6.44727 199.828 6.99414V7.62305C199.778 8.16536 199.68 8.65299 199.534 9.08594C199.393 9.51888 199.199 9.88802 198.953 10.1934C198.712 10.4987 198.415 10.7334 198.064 10.8975C197.714 11.057 197.303 11.1367 196.834 11.1367C196.392 11.1367 195.991 11.0433 195.631 10.8564C195.275 10.6696 194.97 10.4076 194.715 10.0703C194.46 9.73307 194.264 9.33659 194.127 8.88086C193.995 8.42057 193.929 7.92155 193.929 7.38379ZM195.193 7.24023V7.38379C195.193 7.75293 195.23 8.09928 195.303 8.42285C195.38 8.74642 195.496 9.03125 195.651 9.27734C195.811 9.52344 196.014 9.71712 196.26 9.8584C196.506 9.99512 196.8 10.0635 197.142 10.0635C197.561 10.0635 197.907 9.97461 198.181 9.79688C198.454 9.61914 198.671 9.38444 198.83 9.09277C198.994 8.80111 199.122 8.48438 199.213 8.14258V6.49512C199.163 6.24447 199.085 6.00293 198.98 5.77051C198.88 5.53353 198.748 5.32389 198.584 5.1416C198.424 4.95475 198.226 4.80664 197.989 4.69727C197.752 4.58789 197.474 4.5332 197.155 4.5332C196.809 4.5332 196.51 4.60612 196.26 4.75195C196.014 4.89323 195.811 5.08919 195.651 5.33984C195.496 5.58594 195.38 5.87305 195.303 6.20117C195.23 6.52474 195.193 6.87109 195.193 7.24023Z" fill="#050038" fill-opacity="0.6"/>
</svg>
