<svg xmlns="http://www.w3.org/2000/svg" width="201" height="14" fill="none"><path fill="#050038" fill-opacity=".6" d="M4.84 1.929 1.545 11H.198l3.794-9.953h.868l-.02.882ZM7.602 11 4.3 1.929l-.02-.882h.867L8.955 11H7.602ZM7.43 7.315v1.08H1.839v-1.08H7.43Zm6.972 1.723c0-.182-.04-.35-.123-.506-.077-.16-.239-.303-.485-.43-.242-.133-.606-.247-1.094-.342a8.664 8.664 0 0 1-1.114-.308 3.38 3.38 0 0 1-.84-.43 1.807 1.807 0 0 1-.527-.595 1.659 1.659 0 0 1-.185-.8c0-.292.064-.567.192-.827.132-.26.316-.49.553-.69.242-.201.531-.358.868-.472a3.51 3.51 0 0 1 1.128-.171c.593 0 1.099.105 1.518.314.42.21.74.49.964.841.223.346.335.732.335 1.155h-1.265c0-.205-.061-.403-.184-.594a1.362 1.362 0 0 0-.527-.486c-.228-.127-.508-.191-.84-.191-.351 0-.636.055-.855.164-.214.105-.372.24-.472.403a1.015 1.015 0 0 0-.075.889c.05.105.137.203.26.294.123.086.296.168.52.246.223.077.507.155.854.232.606.137 1.105.301 1.497.493.392.191.684.426.875.704.191.278.287.615.287 1.011a1.97 1.97 0 0 1-.786 1.586c-.25.192-.552.342-.902.452a4.032 4.032 0 0 1-1.17.157c-.651 0-1.203-.117-1.654-.349-.45-.232-.793-.533-1.025-.902a2.159 2.159 0 0 1-.349-1.17h1.272c.018.347.118.623.3.828.183.2.406.344.67.43.265.083.527.124.787.124.346 0 .635-.046.868-.137a1.21 1.21 0 0 0 .54-.376.871.871 0 0 0 .184-.547Zm7.233 0c0-.182-.041-.35-.123-.506-.078-.16-.24-.303-.486-.43-.241-.133-.606-.247-1.093-.342a8.664 8.664 0 0 1-1.115-.308 3.38 3.38 0 0 1-.84-.43 1.808 1.808 0 0 1-.527-.595 1.659 1.659 0 0 1-.184-.8c0-.292.063-.567.191-.827.132-.26.317-.49.554-.69.241-.201.53-.358.868-.472.337-.114.713-.171 1.128-.171.592 0 1.098.105 1.517.314.42.21.74.49.964.841.224.346.335.732.335 1.155h-1.264c0-.205-.062-.403-.185-.594a1.362 1.362 0 0 0-.526-.486c-.228-.127-.509-.191-.841-.191-.351 0-.636.055-.855.164-.214.105-.371.24-.471.403a1.015 1.015 0 0 0-.076.889c.05.105.137.203.26.294.123.086.296.168.52.246.223.077.508.155.854.232.606.137 1.105.301 1.497.493.392.191.684.426.875.704.192.278.287.615.287 1.011a1.97 1.97 0 0 1-.786 1.586 2.89 2.89 0 0 1-.902.452 4.031 4.031 0 0 1-1.169.157c-.652 0-1.203-.117-1.654-.349-.451-.232-.793-.533-1.026-.902a2.16 2.16 0 0 1-.348-1.17h1.271c.018.347.119.623.3.828.183.2.407.344.67.43.265.083.527.124.787.124.346 0 .636-.046.868-.137a1.21 1.21 0 0 0 .54-.376.871.871 0 0 0 .185-.547Zm2.59-1.654v-.157c0-.534.078-1.028.233-1.484.155-.46.378-.859.67-1.196a2.99 2.99 0 0 1 1.06-.793c.414-.192.879-.287 1.394-.287.52 0 .987.095 1.401.287.42.187.775.451 1.067.793.296.337.522.736.677 1.196.154.456.232.95.232 1.484v.157c0 .533-.078 1.027-.233 1.483a3.55 3.55 0 0 1-.676 1.196 3.101 3.101 0 0 1-1.06.793c-.41.187-.875.28-1.394.28-.52 0-.987-.093-1.402-.28a3.171 3.171 0 0 1-1.066-.793 3.612 3.612 0 0 1-.67-1.196 4.579 4.579 0 0 1-.232-1.483Zm1.265-.157v.157c0 .369.044.718.13 1.046.087.323.217.61.39.861.178.25.399.449.663.595.264.141.572.212.923.212.346 0 .65-.071.909-.212.264-.146.483-.344.656-.595.173-.25.303-.538.39-.861.09-.328.137-.677.137-1.046v-.157c0-.365-.046-.71-.137-1.033a2.659 2.659 0 0 0-.397-.868 1.885 1.885 0 0 0-.656-.601 1.84 1.84 0 0 0-.916-.22c-.346 0-.652.074-.916.22-.26.145-.479.346-.656.601-.173.25-.303.54-.39.868-.086.324-.13.668-.13 1.033Zm10.015 2.87c.3 0 .579-.06.834-.184.255-.123.465-.292.629-.506a1.41 1.41 0 0 0 .28-.745h1.203c-.023.438-.17.845-.444 1.224a3.034 3.034 0 0 1-1.06.909 3.075 3.075 0 0 1-1.442.342c-.556 0-1.041-.098-1.456-.294a2.887 2.887 0 0 1-1.026-.807 3.603 3.603 0 0 1-.608-1.176 4.964 4.964 0 0 1-.198-1.415v-.287c0-.497.066-.966.198-1.408.137-.447.34-.84.608-1.183.274-.341.616-.61 1.026-.806.415-.196.9-.294 1.456-.294.579 0 1.084.118 1.517.355a2.61 2.61 0 0 1 1.019.957c.25.401.387.857.41 1.367H37.25a1.823 1.823 0 0 0-.26-.827 1.62 1.62 0 0 0-.601-.588 1.681 1.681 0 0 0-.882-.225c-.388 0-.713.077-.978.232-.26.15-.467.356-.622.616-.15.255-.26.54-.328.854a4.7 4.7 0 0 0-.096.95v.287c0 .324.032.643.096.957.064.315.171.6.321.855.155.255.363.46.623.615.264.15.592.226.984.226Zm5.742-6.493V11h-1.271V3.604h1.271Zm-1.367-1.962c0-.205.061-.379.184-.52.128-.141.315-.212.561-.212.242 0 .426.07.554.212a.732.732 0 0 1 .198.52.715.715 0 0 1-.198.505c-.128.137-.313.206-.554.206-.246 0-.433-.069-.56-.206a.745.745 0 0 1-.185-.505Zm7.759 8.093V5.928c0-.292-.06-.545-.178-.76a1.163 1.163 0 0 0-.52-.505c-.232-.118-.52-.178-.86-.178-.32 0-.6.055-.842.164-.237.11-.424.253-.56.431a.944.944 0 0 0-.199.574h-1.264c0-.264.068-.526.205-.786a2.3 2.3 0 0 1 .588-.704c.26-.214.57-.383.93-.506.364-.127.77-.191 1.216-.191.538 0 1.012.09 1.422.273.415.183.738.458.97.827.238.365.356.823.356 1.374v3.446c0 .246.02.508.062.786.045.278.111.517.198.718V11h-1.32a2.364 2.364 0 0 1-.15-.581 4.693 4.693 0 0 1-.054-.684Zm.218-3.22.014.89h-1.278c-.36 0-.682.029-.964.088-.283.055-.52.14-.711.253a1.203 1.203 0 0 0-.438.43c-.1.17-.15.368-.15.595 0 .233.052.445.157.636.105.192.262.344.472.458.214.11.476.164.786.164.387 0 .73-.082 1.026-.246.296-.164.53-.364.704-.601.177-.237.273-.467.287-.69l.54.608a1.837 1.837 0 0 1-.26.635 3.06 3.06 0 0 1-1.401 1.196 2.715 2.715 0 0 1-1.08.206c-.502 0-.942-.098-1.32-.294a2.255 2.255 0 0 1-.875-.786 2.08 2.08 0 0 1-.307-1.115c0-.396.077-.745.232-1.046.155-.305.378-.558.67-.758.292-.205.642-.36 1.053-.465.41-.105.868-.157 1.374-.157h1.47Zm6.132-2.911v.97h-3.999v-.97h4Zm-2.645-1.798h1.264v7.362c0 .25.04.44.117.567a.556.556 0 0 0 .3.253c.123.041.256.062.397.062.105 0 .214-.01.328-.027.119-.023.207-.042.267-.055L54.024 11c-.1.032-.232.062-.396.089-.16.032-.353.048-.581.048a1.97 1.97 0 0 1-.855-.185 1.374 1.374 0 0 1-.622-.615c-.15-.292-.225-.684-.225-1.176V1.806Zm7.198 9.33a3.64 3.64 0 0 1-1.401-.259 3.178 3.178 0 0 1-1.074-.745 3.312 3.312 0 0 1-.683-1.135 4.162 4.162 0 0 1-.24-1.435v-.288c0-.601.09-1.137.267-1.606.178-.474.42-.875.725-1.203a3.104 3.104 0 0 1 1.039-.745 2.985 2.985 0 0 1 1.203-.253c.529 0 .984.09 1.367.273.387.183.704.438.95.766.246.323.429.706.547 1.148.119.438.178.916.178 1.436v.567h-5.523V6.625h4.258v-.096a3.153 3.153 0 0 0-.205-.957 1.722 1.722 0 0 0-.547-.765c-.25-.2-.592-.301-1.025-.301a1.722 1.722 0 0 0-1.415.718 2.684 2.684 0 0 0-.404.868 4.4 4.4 0 0 0-.143 1.182v.288c0 .35.048.68.143.99.1.306.244.575.431.807.192.233.422.415.69.547.274.132.584.198.93.198.447 0 .825-.09 1.135-.273a2.81 2.81 0 0 0 .814-.731l.765.608c-.16.242-.362.472-.608.69-.246.22-.55.397-.91.534-.355.136-.776.205-1.264.205ZM69.255 11h-2.078l.013-1.073h2.065c.71 0 1.303-.148 1.777-.445.474-.3.83-.72 1.067-1.257.241-.543.362-1.176.362-1.9v-.61c0-.569-.068-1.075-.205-1.517a3.073 3.073 0 0 0-.602-1.128 2.541 2.541 0 0 0-.97-.704 3.337 3.337 0 0 0-1.306-.24h-2.242v-1.08h2.242c.652 0 1.246.11 1.784.329.538.214 1 .526 1.388.937.392.405.693.897.902 1.476.21.574.315 1.221.315 1.941v.595c0 .72-.105 1.37-.315 1.948a3.968 3.968 0 0 1-2.331 2.406c-.551.215-1.173.322-1.866.322ZM67.88 1.047V11h-1.32V1.047h1.32Zm10.746 10.09a3.64 3.64 0 0 1-1.401-.26 3.179 3.179 0 0 1-1.074-.745 3.314 3.314 0 0 1-.683-1.135 4.16 4.16 0 0 1-.24-1.435v-.288c0-.601.09-1.137.267-1.606.178-.474.42-.875.725-1.203a3.103 3.103 0 0 1 1.039-.745 2.984 2.984 0 0 1 1.203-.253c.529 0 .984.09 1.367.273.387.183.704.438.95.766.246.323.429.706.547 1.148.119.438.178.916.178 1.436v.567H75.98V6.625h4.26v-.096a3.156 3.156 0 0 0-.206-.957 1.722 1.722 0 0 0-.547-.765c-.25-.2-.592-.301-1.025-.301a1.722 1.722 0 0 0-1.415.718 2.684 2.684 0 0 0-.404.868 4.4 4.4 0 0 0-.143 1.182v.288c0 .35.048.68.143.99.1.306.244.575.431.807.192.233.422.415.69.547.274.132.584.198.93.198.447 0 .825-.09 1.135-.273a2.81 2.81 0 0 0 .814-.731l.765.608c-.16.242-.362.472-.608.69-.246.22-.55.397-.91.534-.355.136-.776.205-1.264.205Zm8.661-2.099c0-.182-.04-.35-.123-.506-.077-.16-.24-.303-.485-.43-.242-.133-.606-.247-1.094-.342a8.667 8.667 0 0 1-1.114-.308 3.38 3.38 0 0 1-.841-.43 1.806 1.806 0 0 1-.526-.595 1.658 1.658 0 0 1-.185-.8c0-.292.064-.567.191-.827.132-.26.317-.49.554-.69.242-.201.531-.358.868-.472.337-.114.713-.171 1.128-.171.593 0 1.098.105 1.518.314.419.21.74.49.964.841.223.346.335.732.335 1.155h-1.265c0-.205-.062-.403-.185-.594a1.362 1.362 0 0 0-.526-.486c-.228-.127-.508-.191-.84-.191-.352 0-.637.055-.855.164-.215.105-.372.24-.472.403a1.015 1.015 0 0 0-.075.889c.05.105.136.203.26.294.123.086.296.168.52.246.222.077.507.155.854.232.606.137 1.105.301 1.497.493.392.191.683.426.875.704.191.278.287.615.287 1.011a1.97 1.97 0 0 1-.786 1.586c-.251.192-.552.342-.903.452a4.032 4.032 0 0 1-1.169.157c-.651 0-1.203-.117-1.654-.349-.451-.232-.793-.533-1.025-.902a2.16 2.16 0 0 1-.349-1.17h1.272c.018.347.118.623.3.828.182.2.406.344.67.43.264.083.526.124.786.124.347 0 .636-.046.869-.137.237-.091.417-.217.54-.376a.87.87 0 0 0 .184-.547Zm4.3-5.434V11h-1.272V3.604h1.272ZM90.22 1.642c0-.205.061-.379.184-.52.128-.141.315-.212.56-.212.242 0 .427.07.554.212a.732.732 0 0 1 .199.52.715.715 0 0 1-.199.505c-.127.137-.312.206-.553.206-.246 0-.433-.069-.56-.206a.744.744 0 0 1-.185-.505Zm8.19 1.962h1.148v7.239c0 .652-.133 1.207-.397 1.668-.264.46-.633.809-1.107 1.046-.47.241-1.012.362-1.627.362-.255 0-.556-.041-.903-.123a3.64 3.64 0 0 1-1.011-.403 2.528 2.528 0 0 1-.828-.76l.664-.751c.31.373.633.633.97.78.342.145.68.218 1.012.218.401 0 .747-.075 1.04-.226.29-.15.516-.373.676-.67.164-.291.246-.651.246-1.08V5.23l.116-1.626Zm-5.094 3.78V7.24c0-.565.067-1.078.199-1.538.136-.465.33-.863.58-1.196a2.609 2.609 0 0 1 2.14-1.04c.465 0 .87.083 1.217.247.351.16.647.394.889.704.246.305.44.674.58 1.107.142.433.24.923.295 1.47v.63a6.442 6.442 0 0 1-.294 1.462 3.452 3.452 0 0 1-.581 1.107c-.242.306-.538.54-.889.705-.35.159-.76.239-1.23.239-.442 0-.843-.094-1.204-.28a2.74 2.74 0 0 1-.916-.787 3.723 3.723 0 0 1-.587-1.19 5.408 5.408 0 0 1-.199-1.496Zm1.265-.144v.144c0 .369.037.715.11 1.039.077.323.193.608.348.854.16.246.362.44.608.581.246.137.54.205.882.205.42 0 .766-.088 1.04-.266a1.93 1.93 0 0 0 .649-.704 4.07 4.07 0 0 0 .383-.95V6.495a3.359 3.359 0 0 0-.233-.724 2.231 2.231 0 0 0-.396-.63 1.714 1.714 0 0 0-.595-.444 1.973 1.973 0 0 0-.834-.164 1.75 1.75 0 0 0-.896.219 1.744 1.744 0 0 0-.608.588 2.823 2.823 0 0 0-.349.861 4.72 4.72 0 0 0-.109 1.04Zm8.162-2.057V11h-1.265V3.604h1.197l.068 1.579Zm-.301 1.838-.526-.02c.005-.506.08-.973.226-1.401.145-.433.35-.81.615-1.128a2.742 2.742 0 0 1 2.167-1.005c.364 0 .693.05.984.15.292.096.54.25.745.465.21.214.369.492.479.834.109.337.164.75.164 1.237V11h-1.272V6.14c0-.388-.057-.698-.171-.93a1.046 1.046 0 0 0-.499-.513c-.218-.11-.487-.164-.806-.164-.315 0-.602.066-.861.198a2.057 2.057 0 0 0-.664.547 2.761 2.761 0 0 0-.43.8c-.101.296-.151.61-.151.943ZM115.575 11h-2.078l.014-1.073h2.064c.711 0 1.304-.148 1.778-.445.473-.3.829-.72 1.066-1.257.241-.543.362-1.176.362-1.9v-.61c0-.569-.068-1.075-.205-1.517a3.08 3.08 0 0 0-.601-1.128 2.546 2.546 0 0 0-.971-.704 3.338 3.338 0 0 0-1.306-.24h-2.242v-1.08h2.242c.652 0 1.247.11 1.784.329a3.831 3.831 0 0 1 1.388.937c.392.405.693.897.902 1.476.21.574.315 1.221.315 1.941v.595c0 .72-.105 1.37-.315 1.948a3.969 3.969 0 0 1-2.331 2.406c-.551.215-1.173.322-1.866.322Zm-1.374-9.953V11h-1.319V1.047h1.319Zm9.051 2.557V11h-1.272V3.604h1.272Zm-1.367-1.962c0-.205.061-.379.184-.52.128-.141.315-.212.561-.212.241 0 .426.07.554.212a.733.733 0 0 1 .198.52.715.715 0 0 1-.198.505c-.128.137-.313.206-.554.206-.246 0-.433-.069-.561-.206a.744.744 0 0 1-.184-.505Zm4.662 3.124V11h-1.265V3.604h1.231l.034 1.162Zm2.31-1.204-.006 1.176a1.826 1.826 0 0 0-.301-.04 3.197 3.197 0 0 0-.315-.014 2.03 2.03 0 0 0-.772.136 1.593 1.593 0 0 0-.567.383c-.155.164-.278.36-.37.588-.086.223-.143.47-.171.738l-.355.205c0-.446.043-.866.13-1.257.091-.392.23-.739.417-1.04.187-.305.424-.542.711-.71.291-.174.638-.26 1.039-.26.091 0 .196.011.314.034a.92.92 0 0 1 .246.062Zm4.102 7.575c-.515 0-.982-.087-1.401-.26a3.18 3.18 0 0 1-1.074-.745 3.308 3.308 0 0 1-.683-1.135 4.15 4.15 0 0 1-.239-1.435v-.288c0-.601.088-1.137.266-1.606.178-.474.419-.875.725-1.203a3.094 3.094 0 0 1 1.039-.745 2.982 2.982 0 0 1 1.203-.253c.529 0 .984.09 1.367.273.387.183.704.438.95.766.246.323.429.706.547 1.148.119.438.178.916.178 1.436v.567h-5.524V6.625h4.259v-.096a3.132 3.132 0 0 0-.205-.957 1.719 1.719 0 0 0-.547-.765c-.25-.2-.592-.301-1.025-.301a1.72 1.72 0 0 0-1.415.718 2.673 2.673 0 0 0-.403.868 4.387 4.387 0 0 0-.144 1.182v.288c0 .35.048.68.144.99.1.306.243.575.43.807.192.233.422.415.691.547.273.132.583.198.929.198.447 0 .825-.09 1.135-.273.31-.182.581-.426.814-.731l.765.608a3.52 3.52 0 0 1-.608.69 2.9 2.9 0 0 1-.909.534c-.356.136-.777.205-1.265.205Zm7.314-1.04c.301 0 .579-.06.834-.184.256-.123.465-.292.629-.506.164-.219.258-.467.281-.745h1.203a2.254 2.254 0 0 1-.445 1.224 3.028 3.028 0 0 1-1.059.909 3.076 3.076 0 0 1-1.443.342c-.556 0-1.041-.098-1.456-.294a2.883 2.883 0 0 1-1.025-.807 3.586 3.586 0 0 1-.608-1.176 4.933 4.933 0 0 1-.199-1.415v-.287c0-.497.066-.966.199-1.408.136-.447.339-.84.608-1.183.273-.341.615-.61 1.025-.806.415-.196.9-.294 1.456-.294.579 0 1.085.118 1.518.355.433.233.772.552 1.019.957.25.401.387.857.41 1.367h-1.203a1.83 1.83 0 0 0-.26-.827 1.623 1.623 0 0 0-.602-.588 1.678 1.678 0 0 0-.882-.225c-.387 0-.713.077-.977.232-.26.15-.467.356-.622.616-.151.255-.26.54-.328.854-.064.31-.096.627-.096.95v.287c0 .324.032.643.096.957.064.315.171.6.321.855.155.255.362.46.622.615.264.15.593.226.984.226Zm7.465-6.493v.97h-3.999v-.97h3.999Zm-2.645-1.798h1.264v7.362c0 .25.039.44.117.567a.553.553 0 0 0 .3.253c.123.041.256.062.397.062.105 0 .214-.01.328-.027.119-.023.207-.042.267-.055l.006 1.032c-.1.032-.232.062-.396.089-.16.032-.353.048-.581.048-.31 0-.595-.062-.855-.185a1.378 1.378 0 0 1-.622-.615c-.15-.292-.225-.684-.225-1.176V1.806Zm3.657 5.578v-.157c0-.534.077-1.028.232-1.484.155-.46.379-.859.67-1.196a2.99 2.99 0 0 1 1.06-.793 3.288 3.288 0 0 1 1.394-.287c.52 0 .987.095 1.402.287.419.187.775.451 1.066.793.296.337.522.736.677 1.196.155.456.232.95.232 1.484v.157c0 .533-.077 1.027-.232 1.483a3.555 3.555 0 0 1-.677 1.196 3.1 3.1 0 0 1-1.059.793 3.33 3.33 0 0 1-1.395.28c-.519 0-.987-.093-1.401-.28a3.178 3.178 0 0 1-1.067-.793 3.627 3.627 0 0 1-.67-1.196 4.579 4.579 0 0 1-.232-1.483Zm1.265-.157v.157c0 .369.043.718.13 1.046.086.323.216.61.389.861.178.25.399.449.663.595.265.141.572.212.923.212.346 0 .65-.071.909-.212.265-.146.483-.344.657-.595.173-.25.303-.538.389-.861.091-.328.137-.677.137-1.046v-.157c0-.365-.046-.71-.137-1.033a2.66 2.66 0 0 0-.396-.868 1.879 1.879 0 0 0-.657-.601 1.839 1.839 0 0 0-.916-.22c-.346 0-.651.074-.916.22a1.976 1.976 0 0 0-.656.601c-.173.25-.303.54-.389.868a3.96 3.96 0 0 0-.13 1.033Zm8.319-2.461V11h-1.265V3.604h1.231l.034 1.162Zm2.311-1.204-.007 1.176a1.826 1.826 0 0 0-.301-.04 3.197 3.197 0 0 0-.315-.014 2.03 2.03 0 0 0-.772.136 1.602 1.602 0 0 0-.567.383c-.155.164-.278.36-.37.588-.086.223-.143.47-.17.738l-.356.205c0-.446.043-.866.13-1.257.091-.392.23-.739.417-1.04.187-.305.424-.542.711-.71.292-.174.638-.26 1.039-.26.091 0 .196.011.314.034a.942.942 0 0 1 .247.062Zm8.114 4.184h-2.427l-.014-1.012h1.983c.392 0 .718-.038.977-.116.265-.077.463-.194.595-.348a.855.855 0 0 0 .198-.575.897.897 0 0 0-.451-.8 1.649 1.649 0 0 0-.56-.198 3.837 3.837 0 0 0-.773-.068h-1.62V11h-1.265V3.604h2.885c.47 0 .891.04 1.265.123.378.082.699.207.964.376.269.164.474.373.615.628.141.256.212.556.212.903a1.521 1.521 0 0 1-.54 1.169 2.19 2.19 0 0 1-.657.383 3.373 3.373 0 0 1-.895.184l-.492.376Zm0 3.254h-2.885l.629-1.025h2.256c.351 0 .642-.044.875-.13.232-.091.405-.219.519-.383.119-.169.178-.37.178-.602a.985.985 0 0 0-.178-.594 1.042 1.042 0 0 0-.519-.383c-.233-.091-.524-.137-.875-.137h-1.921l.014-1.012h2.399l.458.383c.406.032.75.132 1.032.301.283.169.497.383.643.643.146.255.219.533.219.834 0 .346-.067.651-.199.916a1.737 1.737 0 0 1-.56.663 2.738 2.738 0 0 1-.896.396c-.351.087-.747.13-1.189.13Zm9.898 0h-1.264V2.824c0-.533.095-.982.287-1.346.196-.37.476-.648.841-.834.364-.192.797-.288 1.298-.288a3.532 3.532 0 0 1 .875.11l-.068 1.032a2.097 2.097 0 0 0-.328-.048 4.644 4.644 0 0 0-.356-.013 1.41 1.41 0 0 0-.697.164 1.03 1.03 0 0 0-.437.464c-.101.206-.151.458-.151.76V11Zm1.572-7.396v.97h-4.005v-.97h4.005Zm2.673 1.162V11h-1.264V3.604h1.23l.034 1.162Zm2.311-1.204-.007 1.176a1.826 1.826 0 0 0-.301-.04 3.19 3.19 0 0 0-.314-.014c-.292 0-.549.045-.773.136a1.602 1.602 0 0 0-.567.383c-.155.164-.278.36-.369.588-.087.223-.144.47-.171.738l-.356.205c0-.446.044-.866.13-1.257.091-.392.23-.739.417-1.04.187-.305.424-.542.711-.71.292-.174.638-.26 1.039-.26a1.7 1.7 0 0 1 .315.034c.118.018.2.039.246.062Zm.697 3.822v-.157c0-.534.078-1.028.233-1.484.155-.46.378-.859.669-1.196a2.99 2.99 0 0 1 1.06-.793c.415-.192.88-.287 1.395-.287.519 0 .986.095 1.401.287.419.187.775.451 1.066.793.297.337.522.736.677 1.196.155.456.233.95.233 1.484v.157c0 .533-.078 1.027-.233 1.483-.155.456-.38.855-.677 1.196a3.09 3.09 0 0 1-1.059.793c-.41.187-.875.28-1.395.28-.519 0-.986-.093-1.401-.28a3.178 3.178 0 0 1-1.067-.793 3.624 3.624 0 0 1-.669-1.196 4.579 4.579 0 0 1-.233-1.483Zm1.265-.157v.157c0 .369.043.718.13 1.046.086.323.216.61.389.861.178.25.399.449.663.595.265.141.572.212.923.212.347 0 .65-.071.909-.212.265-.146.484-.344.657-.595.173-.25.303-.538.389-.861.091-.328.137-.677.137-1.046v-.157c0-.365-.046-.71-.137-1.033a2.64 2.64 0 0 0-.396-.868 1.885 1.885 0 0 0-.656-.601 1.841 1.841 0 0 0-.916-.22c-.347 0-.652.074-.916.22a1.97 1.97 0 0 0-.657.601c-.173.25-.303.54-.389.868a3.96 3.96 0 0 0-.13 1.033Zm11.846-3.623h1.149v7.239c0 .652-.132 1.207-.397 1.668-.264.46-.633.809-1.107 1.046-.469.241-1.012.362-1.627.362-.255 0-.556-.041-.902-.123a3.643 3.643 0 0 1-1.012-.403 2.526 2.526 0 0 1-.827-.76l.663-.751c.31.373.633.633.971.78a2.56 2.56 0 0 0 1.011.218c.401 0 .748-.075 1.039-.226a1.57 1.57 0 0 0 .677-.67c.164-.291.246-.651.246-1.08V5.23l.116-1.626Zm-5.092 3.78V7.24c0-.565.066-1.078.198-1.538.137-.465.33-.863.581-1.196a2.608 2.608 0 0 1 2.14-1.04c.464 0 .87.083 1.216.247.351.16.648.394.889.704.246.305.44.674.581 1.107.141.433.239.923.294 1.47v.63a6.426 6.426 0 0 1-.294 1.462 3.448 3.448 0 0 1-.581 1.107c-.241.306-.538.54-.889.705-.35.159-.761.239-1.23.239-.442 0-.843-.094-1.203-.28a2.732 2.732 0 0 1-.916-.787 3.734 3.734 0 0 1-.588-1.19 5.412 5.412 0 0 1-.198-1.496Zm1.264-.144v.144c0 .369.037.715.11 1.039.077.323.193.608.348.854.16.246.363.44.609.581.246.137.54.205.882.205.419 0 .765-.088 1.039-.266.273-.178.49-.413.649-.704.164-.292.292-.609.383-.95V6.495a3.344 3.344 0 0 0-.233-.724 2.226 2.226 0 0 0-.396-.63 1.72 1.72 0 0 0-.595-.444 1.973 1.973 0 0 0-.834-.164c-.346 0-.645.073-.895.219a1.751 1.751 0 0 0-.609.588 2.807 2.807 0 0 0-.348.861c-.073.324-.11.67-.11 1.04Z"/></svg>