<svg width="85" height="14" viewBox="0 0 85 14" fill="none" xmlns="http://www.w3.org/2000/svg">
<path d="M8.98242 9.92676V11H1.44922V9.92676H8.98242ZM1.66113 9.92676V13.4473H0.355469L0.348633 9.92676H1.66113ZM10.1309 9.92676L10.1172 13.4404H8.81152V9.92676H10.1309ZM7.69043 1.04688V2.12695H3.3291V1.04688H7.69043ZM8.8252 1.04688V11H7.5127V1.04688H8.8252ZM2.87793 1.04688H4.19727L3.99219 5.05273C3.96484 5.6543 3.90788 6.21029 3.82129 6.7207C3.7347 7.22656 3.6276 7.68913 3.5 8.1084C3.3724 8.52767 3.22656 8.90365 3.0625 9.23633C2.89844 9.56445 2.72298 9.84928 2.53613 10.0908C2.34928 10.3278 2.15332 10.5238 1.94824 10.6787C1.74772 10.8291 1.54492 10.9362 1.33984 11H0.738281V9.92676H1.16211C1.2806 9.79915 1.41504 9.61458 1.56543 9.37305C1.72038 9.13151 1.87305 8.81934 2.02344 8.43652C2.17839 8.04915 2.31283 7.57747 2.42676 7.02148C2.54525 6.46549 2.625 5.80924 2.66602 5.05273L2.87793 1.04688ZM13.7334 7.78027L10.9307 3.60352H12.4551L14.3691 6.66602H15.8457L15.6611 7.78027H13.7334ZM14.4238 7.65039L12.2773 11H10.6777L13.624 6.73438L14.4238 7.65039ZM16.4951 3.60352V11H15.2305V3.60352H16.4951ZM20.8086 3.60352L18.0059 7.78027H16.0781L15.8799 6.66602H17.3633L19.2773 3.60352H20.8086ZM19.4551 11L17.3018 7.65039L18.1152 6.73438L21.0547 11H19.4551ZM25.1562 11.1367C24.6413 11.1367 24.1742 11.0501 23.7549 10.877C23.3402 10.6992 22.9824 10.4508 22.6816 10.1318C22.3854 9.81283 22.1576 9.43457 21.998 8.99707C21.8385 8.55957 21.7588 8.08105 21.7588 7.56152V7.27441C21.7588 6.67285 21.8477 6.13737 22.0254 5.66797C22.2031 5.19401 22.4447 4.79297 22.75 4.46484C23.0553 4.13672 23.4017 3.88835 23.7891 3.71973C24.1764 3.55111 24.5775 3.4668 24.9922 3.4668C25.5208 3.4668 25.9766 3.55794 26.3594 3.74023C26.7467 3.92253 27.0635 4.17773 27.3096 4.50586C27.5557 4.82943 27.738 5.21224 27.8564 5.6543C27.9749 6.0918 28.0342 6.57031 28.0342 7.08984V7.65723H22.5107V6.625H26.7695V6.5293C26.7513 6.20117 26.6829 5.88216 26.5645 5.57227C26.4505 5.26237 26.2682 5.00716 26.0176 4.80664C25.7669 4.60612 25.4251 4.50586 24.9922 4.50586C24.7051 4.50586 24.4408 4.56738 24.1992 4.69043C23.9577 4.80892 23.7503 4.98665 23.5771 5.22363C23.404 5.46061 23.2695 5.75 23.1738 6.0918C23.0781 6.43359 23.0303 6.8278 23.0303 7.27441V7.56152C23.0303 7.91243 23.0781 8.24284 23.1738 8.55273C23.2741 8.85807 23.4176 9.12695 23.6045 9.35938C23.7959 9.5918 24.026 9.77409 24.2949 9.90625C24.5684 10.0384 24.8783 10.1045 25.2246 10.1045C25.6712 10.1045 26.0495 10.0133 26.3594 9.83105C26.6693 9.64876 26.9404 9.40495 27.1729 9.09961L27.9385 9.70801C27.779 9.94954 27.5762 10.1797 27.3301 10.3984C27.084 10.6172 26.7809 10.7949 26.4209 10.9316C26.0654 11.0684 25.6439 11.1367 25.1562 11.1367ZM30.8779 8.99707L34.2891 3.60352H35.5605V11H34.2891V5.60645L30.8779 11H29.6201V3.60352H30.8779V8.99707ZM33.5986 0.923828H34.624C34.624 1.2793 34.542 1.59603 34.3779 1.87402C34.2139 2.14746 33.9792 2.36165 33.6738 2.5166C33.3685 2.67155 33.0062 2.74902 32.5869 2.74902C31.9535 2.74902 31.4521 2.5804 31.083 2.24316C30.7184 1.90137 30.5361 1.46159 30.5361 0.923828H31.5615C31.5615 1.19271 31.639 1.42969 31.7939 1.63477C31.9489 1.83984 32.2132 1.94238 32.5869 1.94238C32.9515 1.94238 33.2113 1.83984 33.3662 1.63477C33.5212 1.42969 33.5986 1.19271 33.5986 0.923828ZM42.6084 6.80957V7.83496H38.6982V6.80957H42.6084ZM38.9648 3.60352V11H37.7002V3.60352H38.9648ZM43.6338 3.60352V11H42.3623V3.60352H43.6338ZM55.6992 5.49707V6.57715H51.6182V5.49707H55.6992ZM49.1914 7.83496H50.5039C50.5768 8.30436 50.6976 8.7054 50.8662 9.03809C51.0394 9.37077 51.2923 9.62598 51.625 9.80371C51.9577 9.97689 52.4043 10.0635 52.9648 10.0635C53.4069 10.0635 53.7897 9.97233 54.1133 9.79004C54.4368 9.60319 54.7035 9.34798 54.9131 9.02441C55.1227 8.70085 55.2777 8.32487 55.3779 7.89648C55.4827 7.4681 55.5352 7.01009 55.5352 6.52246V5.52441C55.5352 5.10059 55.4987 4.70866 55.4258 4.34863C55.3529 3.98405 55.2435 3.6582 55.0977 3.37109C54.9518 3.07943 54.7695 2.83105 54.5508 2.62598C54.3366 2.4209 54.0859 2.26367 53.7988 2.1543C53.5163 2.04492 53.1995 1.99023 52.8486 1.99023C52.3382 1.99023 51.9212 2.08138 51.5977 2.26367C51.2786 2.44596 51.0326 2.70573 50.8594 3.04297C50.6908 3.37565 50.5723 3.77441 50.5039 4.23926H49.1914C49.2598 3.58301 49.4398 3.00651 49.7314 2.50977C50.0231 2.00846 50.4264 1.61654 50.9414 1.33398C51.4609 1.05143 52.0967 0.910156 52.8486 0.910156C53.4639 0.910156 54.0176 1.01953 54.5098 1.23828C55.002 1.45703 55.4212 1.76921 55.7676 2.1748C56.1185 2.5804 56.3851 3.06803 56.5674 3.6377C56.7542 4.20736 56.8477 4.84082 56.8477 5.53809V6.52246C56.8477 7.21973 56.7542 7.85319 56.5674 8.42285C56.3851 8.98796 56.123 9.47331 55.7812 9.87891C55.4395 10.2799 55.0293 10.5898 54.5508 10.8086C54.0768 11.0273 53.5482 11.1367 52.9648 11.1367C52.1673 11.1367 51.502 10.9932 50.9688 10.7061C50.4355 10.4144 50.0231 10.0202 49.7314 9.52344C49.4443 9.02669 49.2643 8.46387 49.1914 7.83496ZM58.7002 3.60352H59.9648V9.96094H62.6719V3.60352H63.9434V9.96094H66.6436V3.60352H67.9082V11H58.7002V3.60352ZM74.8672 3.60352V4.64941H71.292V3.60352H74.8672ZM75.9814 3.60352V11H74.7168V3.60352H75.9814ZM70.9844 3.60352H72.2559L72.0645 7.17188C72.0326 7.72331 71.9801 8.21094 71.9072 8.63477C71.8389 9.05404 71.7432 9.41406 71.6201 9.71484C71.5016 10.0156 71.3512 10.2617 71.1689 10.4531C70.9912 10.64 70.777 10.779 70.5264 10.8701C70.2757 10.9567 69.9863 11 69.6582 11H69.2617V9.88574L69.5352 9.86523C69.7311 9.85156 69.8975 9.80599 70.0342 9.72852C70.1755 9.65104 70.2939 9.53711 70.3896 9.38672C70.4854 9.23177 70.5628 9.03353 70.6221 8.79199C70.6859 8.55046 70.7337 8.26335 70.7656 7.93066C70.8021 7.59798 70.8294 7.21061 70.8477 6.76855L70.9844 3.60352ZM79.3857 8.99707L82.7969 3.60352H84.0684V11H82.7969V5.60645L79.3857 11H78.1279V3.60352H79.3857V8.99707Z" fill="#050038" fill-opacity="0.6"/>
</svg>
