<svg width="147" height="47" fill="none" xmlns="http://www.w3.org/2000/svg"><path d="M19.76.56C8.56.56.944 7.536.944 17.328c0 9.216 6.784 15.68 15.936 15.68a12.42 12.42 0 0 0 3.584-.512L8.112 46h12.16l10.88-12.8c2.752-3.264 7.488-8.768 7.488-16.192C38.64 7.408 30.96.56 19.76.56zm.064 24.64c-4.608 0-7.808-3.136-7.808-7.744s3.264-7.744 7.808-7.744c4.672 0 7.808 3.2 7.808 7.744S24.496 25.2 19.824 25.2zM62.51.56c-11.2 0-18.816 6.976-18.816 16.768 0 9.216 6.784 15.68 15.936 15.68a12.42 12.42 0 0 0 3.584-.512L50.862 46h12.16l10.88-12.8c2.752-3.264 7.488-8.768 7.488-16.192C81.39 7.408 73.71.56 62.51.56zm.064 24.64c-4.608 0-7.808-3.136-7.808-7.744s3.264-7.744 7.808-7.744c4.672 0 7.808 3.2 7.808 7.744S67.246 25.2 62.574 25.2zm37.194-.512c7.168 0 12.544-5.184 12.544-12.032 0-6.912-5.376-12.096-12.544-12.096s-12.48 5.184-12.48 12.096c0 6.848 5.312 12.032 12.48 12.032zM95.288 46h10.368l32.896-44.8H128.12L95.288 46zm4.48-28.992c-2.432 0-4.16-1.792-4.16-4.352 0-2.624 1.728-4.416 4.16-4.416 2.496 0 4.224 1.792 4.224 4.416 0 2.56-1.728 4.352-4.224 4.352zm34.24 29.632c7.168 0 12.544-5.12 12.544-12.032 0-6.848-5.376-12.032-12.544-12.032-7.104 0-12.48 5.184-12.48 12.032 0 6.912 5.376 12.032 12.48 12.032zm0-7.616c-2.432 0-4.16-1.856-4.16-4.416 0-2.56 1.728-4.416 4.16-4.416 2.496 0 4.224 1.856 4.224 4.416 0 2.56-1.728 4.416-4.224 4.416z" fill="#050038"/></svg>