<svg width="24" height="24" fill="none" xmlns="http://www.w3.org/2000/svg"><path fill-rule="evenodd" clip-rule="evenodd" d="M24 12c0 6.628-5.372 12-12 12-6.627 0-12-5.372-12-12C0 5.373 5.373 0 12 0c6.628 0 12 5.373 12 12zM6.124 14a16.16 16.16 0 0 1 0-4H2.2a10.046 10.046 0 0 0 0 4h3.924zm.38 2H2.832a10.026 10.026 0 0 0 6.37 5.603A15.939 15.939 0 0 1 6.503 16zm2.076 0h6.84A13.99 13.99 0 0 1 12 21.798 13.99 13.99 0 0 1 8.58 16zm7.278-2H8.142a14.12 14.12 0 0 1 0-4h7.716a14.139 14.139 0 0 1 0 4zm2.018 0a16.178 16.178 0 0 0 0-4H21.8a10.044 10.044 0 0 1 0 4h-3.924zm-.38 2h3.672a10.026 10.026 0 0 1-6.37 5.603A15.94 15.94 0 0 0 17.497 16zM12 2.202A13.99 13.99 0 0 0 8.58 8h6.84A13.99 13.99 0 0 0 12 2.202zm2.799.195A15.938 15.938 0 0 1 17.496 8h3.672a10.026 10.026 0 0 0-6.37-5.603zM2.832 8h3.672a15.937 15.937 0 0 1 2.697-5.603A10.026 10.026 0 0 0 2.832 8z" fill="#000"/></svg>