<svg width="113" height="47" fill="none" xmlns="http://www.w3.org/2000/svg"><path d="M.288 46h10.624V1.2H.288V46zm39.346.64c12.224 0 19.712-6.144 19.712-15.488 0-7.68-4.864-12.096-14.016-13.248l-8.32-1.088c-2.24-.32-4.992-1.088-4.992-3.904 0-2.624 2.304-4.288 5.632-4.288 3.712 0 6.016 1.664 6.784 4.992l11.328-.064C55.122 5.552 48.274.56 38.034.56 27.602.56 21.33 5.808 21.33 14.064c0 6.848 4.224 10.816 12.608 11.904l9.152 1.152c2.496.384 5.12 1.28 5.12 4.672 0 3.776-3.2 6.016-8.384 6.016-6.4 0-10.24-3.392-10.624-9.472H17.17c.448 10.496 8.64 18.304 22.464 18.304zm48.313 0c13.952 0 24.384-9.856 24.384-23.04 0-13.12-10.432-23.04-24.384-23.04S63.563 10.48 63.563 23.6c0 13.184 10.432 23.04 24.384 23.04zm0-9.536c-7.744 0-13.184-5.568-13.184-13.504 0-7.872 5.44-13.44 13.184-13.44 7.744 0 13.184 5.568 13.184 13.44 0 7.936-5.44 13.504-13.184 13.504z" fill="#050038"/></svg>