<svg width="91" height="32" fill="none" xmlns="http://www.w3.org/2000/svg"><path fill-rule="evenodd" clip-rule="evenodd" d="M39.511.919c-1.234 1.183-1.234 3.21 0 4.435 1.234 1.225 3.277 1.225 4.511 0 1.234-1.224 1.234-3.252 0-4.435-1.234-1.225-3.277-1.225-4.51 0zm24.795 8.29-2.893.464c-5.52 1.248-9.107 3.037-9.107 9.052v12.07l5.022 1.013V19.48c0-2.81 1.598-4.08 4.085-4.55l2.894-.526V9.208zm-38.22 21.635 5.021 1.014V18.213c0-6.548-5.106-8.913-8.639-8.913-2.383 0-4.255.591-5.957 2.239-1.744-1.648-3.83-2.281-5.532-2.281-2.425 0-4.554 1.055-5.958 2.746V9.722L0 10.694v20.15l5.021 1.014V18.002c0-2.197 1.617-3.76 4.043-3.76 2.383 0 4 1.563 4 3.76v12.842l5.022 1.014V18.002c0-2.197 1.616-3.76 4-3.76 2.383 0 4 1.563 4 3.76v12.842zM91 20.608C91 26.89 85.853 32 79.566 32c-6.328 0-11.475-5.11-11.475-11.392 0-6.24 5.147-11.35 11.475-11.35 6.287 0 11.434 5.11 11.434 11.35zm-11.434 6.66c-3.67 0-6.666-2.974-6.666-6.66 0-3.644 2.996-6.576 6.666-6.576 3.671 0 6.624 2.932 6.624 6.576 0 3.686-2.953 6.66-6.624 6.66zM44.235 32l-5.021-1.156V10.55l5.02-1.013V32z" fill="#000"/></svg>